<svg version="1.1" xmlns="http://www.w3.org/2000/svg" xmlns:xlink="http://www.w3.org/1999/xlink" x="0px" y="0px" width="160" height="55" viewBox="0 0 160 55" enable-background="new 0 0 160 55" xml:space="preserve">
        <path fill="white" d="M50.001,7.142V0H28.572v50.001H50v-7.143H35.715V7.142H50.001z M14.286,42.86h7.143V0.001h-7.143V42.86z M7.143,0.001H0 V42.86h7.143V50h7.143v-7.143H7.143V0.001z M152.883,50.147c-0.992,0-1.778-0.212-2.358-0.639c-0.579-0.425-0.887-1.011-0.923-1.759 h2.029c0.044,0.335,0.173,0.587,0.383,0.752c0.21,0.166,0.496,0.251,0.856,0.251c0.324,0,0.582-0.057,0.77-0.173 c0.19-0.113,0.283-0.281,0.283-0.5c0-0.148-0.047-0.27-0.144-0.362c-0.097-0.093-0.224-0.166-0.382-0.224 c-0.158-0.057-0.341-0.101-0.547-0.132c-0.207-0.031-0.419-0.068-0.639-0.111c-0.289-0.053-0.58-0.118-0.869-0.192 c-0.29-0.075-0.551-0.186-0.784-0.337c-0.234-0.149-0.42-0.348-0.56-0.598c-0.141-0.251-0.211-0.573-0.211-0.968 c0-0.35,0.077-0.662,0.229-0.935c0.155-0.272,0.364-0.499,0.627-0.679c0.263-0.18,0.573-0.315,0.929-0.407 c0.354-0.093,0.731-0.138,1.126-0.138c0.958,0,1.691,0.192,2.199,0.579c0.511,0.386,0.791,0.913,0.845,1.581h-1.976 c-0.045-0.307-0.16-0.516-0.35-0.625c-0.188-0.11-0.433-0.166-0.731-0.166c-0.263,0-0.486,0.051-0.666,0.153 c-0.179,0.101-0.271,0.257-0.271,0.468c0,0.122,0.045,0.219,0.133,0.289c0.086,0.07,0.206,0.129,0.354,0.179 c0.15,0.047,0.324,0.09,0.52,0.124c0.198,0.036,0.402,0.07,0.613,0.106c0.298,0.053,0.599,0.116,0.903,0.191 c0.302,0.076,0.578,0.191,0.829,0.35c0.251,0.158,0.454,0.371,0.612,0.639c0.159,0.268,0.238,0.618,0.238,1.047 c0,0.369-0.077,0.695-0.231,0.975c-0.153,0.283-0.365,0.513-0.639,0.699c-0.271,0.185-0.597,0.323-0.974,0.421 C153.731,50.1,153.322,50.147,152.883,50.147 M142.5,43.192h2.069v0.922h0.038c0.255-0.369,0.546-0.647,0.877-0.836 c0.328-0.19,0.731-0.283,1.205-0.283c0.368,0,0.699,0.063,0.989,0.191c0.29,0.126,0.534,0.302,0.737,0.526 c0.202,0.224,0.356,0.493,0.461,0.804c0.106,0.31,0.16,0.657,0.16,1.035v4.387h-2.149v-3.952c0-0.361-0.087-0.651-0.264-0.87 c-0.174-0.219-0.437-0.33-0.788-0.33c-0.361,0-0.648,0.131-0.864,0.396c-0.215,0.263-0.323,0.606-0.323,1.027v3.729H142.5V43.192z  M138.231,48.619c0.475,0,0.832-0.188,1.074-0.559c0.241-0.373,0.363-0.868,0.363-1.483c0-0.615-0.122-1.111-0.363-1.489 c-0.242-0.377-0.599-0.566-1.074-0.566c-0.474,0-0.83,0.19-1.068,0.566c-0.237,0.378-0.356,0.874-0.356,1.489 c0,0.614,0.119,1.109,0.356,1.483C137.401,48.431,137.757,48.619,138.231,48.619 M138.245,50.147c-0.544,0-1.04-0.09-1.482-0.27 c-0.445-0.18-0.826-0.429-1.14-0.75c-0.318-0.32-0.56-0.699-0.733-1.134c-0.171-0.435-0.257-0.907-0.257-1.416 c0-0.51,0.086-0.981,0.257-1.415c0.173-0.435,0.415-0.813,0.733-1.135c0.315-0.32,0.695-0.571,1.14-0.75 c0.442-0.18,0.938-0.271,1.482-0.271c0.544,0,1.038,0.091,1.481,0.271c0.443,0.179,0.82,0.43,1.132,0.75 c0.313,0.322,0.555,0.7,0.726,1.135c0.171,0.434,0.256,0.906,0.256,1.415c0,0.51-0.085,0.981-0.256,1.416 c-0.172,0.435-0.414,0.814-0.726,1.134c-0.311,0.321-0.689,0.57-1.132,0.75C139.282,50.057,138.789,50.147,138.245,50.147  M131.761,43.192h2.149v6.745h-2.149V43.192z M131.761,40.517h2.149v1.739h-2.149V40.517z M129.811,50.016 c-0.316,0-0.605-0.029-0.863-0.085c-0.259-0.058-0.485-0.156-0.678-0.297c-0.194-0.142-0.342-0.332-0.449-0.574 c-0.105-0.241-0.157-0.541-0.157-0.901v-3.623h-0.897v-1.344h0.897v-2.134h2.095v2.134h1.226v1.344h-1.226v3.161 c0,0.263,0.067,0.441,0.205,0.527c0.134,0.089,0.318,0.132,0.545,0.132c0.098,0,0.19-0.003,0.278-0.006 c0.087-0.004,0.153-0.007,0.197-0.007v1.568c-0.098,0.027-0.244,0.051-0.442,0.073C130.345,50.005,130.101,50.016,129.811,50.016  M122.814,48.738c0.405,0,0.731-0.11,0.982-0.33c0.25-0.22,0.375-0.514,0.375-0.882v-0.805c-0.141,0.071-0.305,0.134-0.494,0.191 c-0.19,0.06-0.394,0.112-0.613,0.166c-0.413,0.096-0.71,0.208-0.896,0.335c-0.185,0.128-0.276,0.319-0.276,0.574 c0,0.271,0.086,0.465,0.263,0.579C122.331,48.68,122.551,48.738,122.814,48.738 M122.128,50.108c-0.333,0-0.643-0.044-0.928-0.131 c-0.286-0.089-0.529-0.22-0.732-0.395c-0.202-0.175-0.359-0.39-0.474-0.646c-0.115-0.255-0.172-0.549-0.172-0.883 c0-0.369,0.068-0.678,0.204-0.929c0.138-0.249,0.323-0.455,0.562-0.619c0.237-0.162,0.51-0.287,0.823-0.374 c0.31-0.089,0.643-0.154,0.994-0.198c0.633-0.08,1.075-0.165,1.33-0.265c0.255-0.095,0.382-0.258,0.382-0.486 c0-0.22-0.073-0.396-0.218-0.528c-0.145-0.131-0.379-0.197-0.705-0.197c-0.341,0-0.602,0.075-0.777,0.225 c-0.176,0.148-0.282,0.364-0.317,0.644h-1.976c0.009-0.316,0.079-0.613,0.211-0.895c0.131-0.283,0.322-0.527,0.573-0.739 c0.251-0.21,0.564-0.378,0.942-0.499c0.379-0.124,0.822-0.186,1.331-0.186c0.51,0,0.94,0.046,1.293,0.139 c0.351,0.093,0.649,0.231,0.895,0.416c0.29,0.209,0.504,0.478,0.645,0.802c0.141,0.326,0.211,0.699,0.211,1.12v3.4 c0,0.273,0.015,0.485,0.046,0.639c0.03,0.154,0.095,0.261,0.192,0.323v0.092h-2.083c-0.052-0.07-0.096-0.17-0.131-0.295 c-0.036-0.129-0.065-0.279-0.092-0.454h-0.028c-0.202,0.279-0.459,0.503-0.77,0.671C123.05,50.025,122.639,50.108,122.128,50.108  M116.121,50.147c-0.544,0-1.037-0.09-1.476-0.27c-0.439-0.18-0.814-0.429-1.125-0.75c-0.311-0.32-0.555-0.699-0.725-1.134 c-0.172-0.435-0.257-0.907-0.257-1.416c0-0.51,0.084-0.981,0.251-1.415c0.167-0.435,0.403-0.813,0.711-1.135 c0.307-0.32,0.679-0.571,1.114-0.75c0.435-0.18,0.92-0.271,1.456-0.271c0.455,0,0.871,0.064,1.246,0.191 c0.372,0.128,0.694,0.305,0.968,0.533c0.271,0.229,0.492,0.501,0.659,0.817c0.166,0.317,0.276,0.663,0.329,1.042h-2.068 c-0.07-0.308-0.197-0.551-0.375-0.732c-0.18-0.18-0.425-0.27-0.732-0.27c-0.465,0-0.813,0.178-1.041,0.533 c-0.228,0.356-0.343,0.84-0.343,1.456c0,0.606,0.115,1.086,0.343,1.437c0.228,0.351,0.576,0.527,1.041,0.527 c0.685,0,1.075-0.387,1.171-1.16h2.056c-0.018,0.386-0.102,0.75-0.257,1.088c-0.154,0.339-0.368,0.632-0.645,0.883 c-0.277,0.25-0.61,0.445-1.001,0.586C117.029,50.078,116.596,50.147,116.121,50.147 M109.665,43.192h2.148v6.745h-2.148V43.192z  M109.665,40.517h2.148v1.739h-2.148V40.517z M102.155,43.192h2.068v0.922h0.039c0.255-0.369,0.546-0.647,0.877-0.836 c0.328-0.19,0.731-0.283,1.205-0.283c0.368,0,0.699,0.063,0.989,0.191c0.29,0.126,0.536,0.302,0.738,0.526 c0.202,0.224,0.355,0.493,0.461,0.804c0.106,0.31,0.158,0.657,0.158,1.035v4.387h-2.148v-3.952c0-0.361-0.087-0.651-0.262-0.87 c-0.176-0.219-0.44-0.33-0.791-0.33c-0.36,0-0.646,0.131-0.863,0.396c-0.214,0.263-0.322,0.606-0.322,1.027v3.729h-2.148V43.192z  M97.016,50.135c-0.782,0-1.372-0.231-1.772-0.691c-0.4-0.462-0.599-1.071-0.599-1.826v-4.426h2.134v3.977 c0,0.369,0.083,0.653,0.251,0.851c0.166,0.198,0.42,0.297,0.764,0.297c0.368,0,0.659-0.126,0.869-0.375 c0.211-0.25,0.316-0.578,0.316-0.982v-3.767h2.148v6.745h-2.056v-0.831h-0.037c-0.247,0.336-0.525,0.589-0.837,0.766 C97.884,50.047,97.49,50.135,97.016,50.135 M83.315,43.192h2.054v0.96h0.041c0.21-0.351,0.481-0.632,0.811-0.843 c0.329-0.211,0.739-0.315,1.231-0.315c0.449,0,0.833,0.103,1.153,0.315c0.321,0.21,0.568,0.502,0.746,0.87h0.025 c0.264-0.413,0.573-0.714,0.93-0.902c0.356-0.19,0.753-0.283,1.191-0.283c0.379,0,0.712,0.061,1.003,0.183 c0.29,0.123,0.529,0.298,0.718,0.52c0.188,0.223,0.333,0.494,0.428,0.811c0.096,0.316,0.145,0.663,0.145,1.041v4.387h-2.148v-4.005 c0-0.368-0.077-0.652-0.23-0.849c-0.153-0.198-0.394-0.298-0.717-0.298c-0.343,0-0.607,0.127-0.791,0.383 c-0.184,0.254-0.276,0.583-0.276,0.987v3.782h-2.148v-4.005c0-0.368-0.077-0.652-0.23-0.849c-0.154-0.198-0.394-0.298-0.719-0.298 c-0.334,0-0.594,0.127-0.784,0.383c-0.188,0.254-0.282,0.583-0.282,0.987v3.782h-2.148V43.192z M71.864,43.192h2.056v0.96h0.038 c0.211-0.351,0.481-0.632,0.812-0.843c0.329-0.211,0.739-0.315,1.231-0.315c0.449,0,0.833,0.103,1.153,0.315 c0.321,0.21,0.57,0.502,0.745,0.87h0.027c0.263-0.413,0.574-0.714,0.929-0.902c0.355-0.19,0.753-0.283,1.191-0.283 c0.379,0,0.712,0.061,1.003,0.183c0.29,0.123,0.528,0.298,0.717,0.52c0.19,0.223,0.333,0.494,0.43,0.811 c0.096,0.316,0.144,0.663,0.144,1.041v4.387h-2.148v-4.005c0-0.368-0.076-0.652-0.23-0.849c-0.154-0.198-0.393-0.298-0.717-0.298 c-0.343,0-0.607,0.127-0.791,0.383c-0.185,0.254-0.276,0.583-0.276,0.987v3.782h-2.149v-4.005c0-0.368-0.076-0.652-0.229-0.849 c-0.154-0.198-0.394-0.298-0.718-0.298c-0.335,0-0.594,0.127-0.784,0.383c-0.19,0.254-0.283,0.583-0.283,0.987v3.782h-2.149V43.192z  M67.595,48.619c0.474,0,0.832-0.188,1.073-0.559c0.241-0.373,0.363-0.868,0.363-1.483c0-0.615-0.122-1.111-0.363-1.489 c-0.241-0.377-0.599-0.566-1.073-0.566c-0.475,0-0.83,0.19-1.068,0.566c-0.237,0.378-0.355,0.874-0.355,1.489 c0,0.614,0.118,1.109,0.355,1.483C66.766,48.431,67.121,48.619,67.595,48.619 M67.608,50.147c-0.545,0-1.039-0.09-1.483-0.27 c-0.445-0.18-0.823-0.429-1.138-0.75c-0.318-0.32-0.562-0.699-0.734-1.134c-0.171-0.435-0.256-0.907-0.256-1.416 c0-0.51,0.085-0.981,0.256-1.415c0.172-0.435,0.416-0.813,0.734-1.135c0.315-0.32,0.693-0.571,1.138-0.75 c0.444-0.18,0.938-0.271,1.483-0.271c0.545,0,1.039,0.091,1.483,0.271c0.444,0.179,0.821,0.43,1.134,0.75 c0.311,0.322,0.554,0.7,0.724,1.135c0.172,0.434,0.257,0.906,0.257,1.415c0,0.51-0.085,0.981-0.257,1.416 c-0.171,0.435-0.413,0.814-0.724,1.134c-0.313,0.321-0.69,0.57-1.134,0.75C68.647,50.057,68.153,50.147,67.608,50.147  M60.415,50.147c-0.545,0-1.037-0.09-1.476-0.27c-0.438-0.18-0.815-0.429-1.126-0.75c-0.311-0.32-0.554-0.699-0.724-1.134 c-0.172-0.435-0.258-0.907-0.258-1.416c0-0.51,0.084-0.981,0.251-1.415c0.167-0.435,0.403-0.813,0.711-1.135 c0.307-0.32,0.679-0.571,1.112-0.75c0.436-0.18,0.923-0.271,1.457-0.271c0.456,0,0.872,0.064,1.246,0.191 c0.372,0.128,0.697,0.305,0.967,0.533c0.273,0.229,0.493,0.501,0.66,0.817c0.166,0.317,0.275,0.663,0.329,1.042h-2.069 c-0.069-0.308-0.195-0.551-0.375-0.732c-0.179-0.18-0.423-0.27-0.731-0.27c-0.465,0-0.813,0.178-1.041,0.533 c-0.227,0.356-0.343,0.84-0.343,1.456c0,0.606,0.116,1.086,0.343,1.437c0.228,0.351,0.576,0.527,1.041,0.527 c0.685,0,1.075-0.387,1.172-1.16h2.056c-0.018,0.386-0.103,0.75-0.257,1.088c-0.155,0.339-0.37,0.632-0.646,0.883 c-0.277,0.25-0.61,0.445-1.002,0.586C61.321,50.078,60.889,50.147,60.415,50.147 M78.821,28.909h2.173v9.421h-2.173V28.909z  M74.58,37.13c0.404,0,0.731-0.11,0.981-0.329c0.251-0.219,0.374-0.514,0.374-0.883v-0.803c-0.141,0.07-0.304,0.133-0.494,0.19 c-0.188,0.058-0.394,0.111-0.612,0.165c-0.413,0.097-0.71,0.208-0.896,0.337c-0.186,0.127-0.275,0.317-0.275,0.573 c0,0.272,0.086,0.465,0.262,0.579C74.095,37.074,74.315,37.13,74.58,37.13 M73.893,38.502c-0.333,0-0.642-0.046-0.928-0.132 c-0.286-0.089-0.529-0.22-0.732-0.396c-0.203-0.176-0.361-0.391-0.475-0.646c-0.113-0.254-0.171-0.548-0.171-0.883 c0-0.368,0.067-0.678,0.204-0.928c0.135-0.25,0.323-0.457,0.56-0.619c0.238-0.164,0.512-0.288,0.822-0.375 c0.313-0.089,0.645-0.155,0.996-0.198c0.633-0.08,1.076-0.167,1.331-0.263c0.254-0.097,0.382-0.259,0.382-0.487 c0-0.219-0.071-0.396-0.218-0.527c-0.145-0.132-0.38-0.198-0.704-0.198c-0.345,0-0.603,0.075-0.778,0.225 c-0.176,0.148-0.282,0.364-0.318,0.645h-1.975c0.009-0.317,0.079-0.614,0.21-0.896c0.132-0.281,0.324-0.527,0.574-0.738 c0.25-0.21,0.564-0.377,0.942-0.501c0.379-0.122,0.821-0.183,1.331-0.183c0.51,0,0.94,0.047,1.292,0.138 c0.351,0.094,0.648,0.231,0.896,0.416c0.289,0.21,0.504,0.479,0.645,0.804c0.141,0.324,0.211,0.698,0.211,1.118v3.4 c0,0.272,0.015,0.485,0.045,0.64c0.031,0.153,0.095,0.261,0.192,0.322v0.093h-2.083c-0.051-0.071-0.096-0.171-0.13-0.297 c-0.036-0.128-0.066-0.279-0.093-0.454h-0.027c-0.202,0.279-0.459,0.504-0.77,0.671C74.813,38.418,74.403,38.502,73.893,38.502  M67.094,31.583h2.056v1.055h0.038c0.239-0.404,0.501-0.699,0.79-0.882c0.289-0.186,0.641-0.277,1.056-0.277 c0.202,0,0.341,0.018,0.421,0.053v1.844h-0.053c-0.659-0.097-1.184,0.015-1.574,0.335c-0.39,0.321-0.587,0.85-0.587,1.589v3.03 h-2.148V31.583z M64.077,31.583h2.147v6.747h-2.147V31.583z M64.077,28.909h2.147v1.739h-2.147V28.909z M56.581,31.583h2.214 l0.921,3.045c0.044,0.175,0.09,0.343,0.139,0.507c0.048,0.162,0.09,0.305,0.125,0.429c0.035,0.149,0.07,0.29,0.106,0.421h0.025 c0.036-0.131,0.073-0.272,0.107-0.421c0.035-0.124,0.075-0.267,0.118-0.429c0.044-0.163,0.093-0.332,0.145-0.507l0.935-3.045h2.148 l-2.333,6.747h-2.319L56.581,31.583z"></path>
    </svg>