<svg class="twilio-logo" fill="#F22F46" width="100" height="30" viewBox="0 0 100 30" xmlns="http://www.w3.org/2000/svg">
  <path d="M14.4,11.3c0,1.7-1.4,3.1-3.1,3.1S8.2,13,8.2,11.3s1.4-3.1,3.1-3.1S14.4,9.6,14.4,11.3z M11.3,15.6c-1.7,0-3.1,1.4-3.1,3.1
  s1.4,3.1,3.1,3.1s3.1-1.4,3.1-3.1S13,15.6,11.3,15.6z M30,15c0,8.3-6.7,15-15,15S0,23.3,0,15S6.7,0,15,0S30,6.7,30,15z M26,15
  c0-6.1-4.9-11-11-11S4,8.9,4,15s4.9,11,11,11S26,21.1,26,15z M18.7,15.6c-1.7,0-3.1,1.4-3.1,3.1s1.4,3.1,3.1,3.1s3.1-1.4,3.1-3.1
  S20.4,15.6,18.7,15.6z M18.7,8.2c-1.7,0-3.1,1.4-3.1,3.1s1.4,3.1,3.1,3.1s3.1-1.4,3.1-3.1S20.4,8.2,18.7,8.2z"/>
  <path d="M70.3,5.9c0.1,0,0.2,0.1,0.3,0.2v3.2c0,0.2-0.2,0.3-0.3,0.3H65c-0.2,0-0.3-0.2-0.3-0.3V6.2c0-0.2,0.2-0.3,0.3-0.3H70.3z
   M70.2,10.4H60c-0.1,0-0.3,0.1-0.3,0.3l-1.3,5L58.3,16l-1.6-5.3c0-0.1-0.2-0.3-0.3-0.3h-4c-0.1,0-0.3,0.1-0.3,0.3l-1.5,5L50.5,16
  l-0.1-0.3l-0.6-2.5l-0.6-2.5c0-0.1-0.2-0.3-0.3-0.3h-8V6.1c0-0.1-0.2-0.3-0.4-0.2l-5,1.6c-0.2,0-0.3,0.1-0.3,0.3v2.7h-1.3
  c-0.1,0-0.3,0.1-0.3,0.3v3.8c0,0.1,0.1,0.3,0.3,0.3h1.3v4.7c0,3.3,1.8,4.8,5.1,4.8c1.4,0,2.7-0.3,3.6-0.8v-4c0-0.2-0.2-0.3-0.3-0.2
  c-0.5,0.2-1,0.3-1.4,0.3c-0.9,0-1.4-0.4-1.4-1.4v-3.4h2.9c0.1,0,0.3-0.1,0.3-0.3v-3.2L47.8,24c0,0.1,0.2,0.3,0.3,0.3h4.2
  c0.1,0,0.3-0.1,0.3-0.3l1.8-5.6l0.9,2.9l0.8,2.7c0,0.1,0.2,0.3,0.3,0.3h4.2c0.1,0,0.3-0.1,0.3-0.3l3.8-12.6V24
  c0,0.1,0.1,0.3,0.3,0.3h5.1c0.1,0,0.3-0.1,0.3-0.3V10.7C70.4,10.6,70.3,10.4,70.2,10.4z M76.9,5.9h-5.1c-0.1,0-0.3,0.1-0.3,0.3v17.7
  c0,0.1,0.1,0.3,0.3,0.3h5.1c0.1,0,0.3-0.1,0.3-0.3V6.1C77.2,6,77.1,5.9,76.9,5.9z M83.7,5.9h-5.3c-0.1,0-0.3,0.1-0.3,0.3v3.1
  c0,0.1,0.1,0.3,0.3,0.3h5.3c0.1,0,0.3-0.1,0.3-0.3V6.1C84,6,83.9,5.9,83.7,5.9z M83.6,10.4h-5.1c-0.1,0-0.3,0.1-0.3,0.3v13.1
  c0,0.1,0.1,0.3,0.3,0.3h5.1c0.1,0,0.3-0.1,0.3-0.3V10.7C83.9,10.6,83.8,10.4,83.6,10.4z M99.7,17.2c0,3.8-3.2,7.1-7.7,7.1
  c-4.4,0-7.6-3.3-7.6-7.1s3.2-7.1,7.7-7.1C96.5,10.1,99.7,13.4,99.7,17.2z M94.3,17.3c0-1.4-1-2.5-2.2-2.4c-1.3,0-2.2,1.1-2.2,2.4
  s1,2.4,2.2,2.4C93.4,19.7,94.3,18.6,94.3,17.3z"/>
</svg>
