<?xml version="1.0" encoding="utf-8"?><!DOCTYPE svg  PUBLIC '-//W3C//DTD SVG 1.1//EN'  'http://www.w3.org/Graphics/SVG/1.1/DTD/svg11.dtd'><svg enable_background="new 0 0 500 676" height="676px" pretty_print="False" style="stroke-linejoin: round; stroke:#000; fill: none;" version="1.1" viewBox="0 0 500 676" width="500px" xmlns="http://www.w3.org/2000/svg" xmlns:xlink="http://www.w3.org/1999/xlink"><defs><style type="text/css"><![CDATA[path { fill-rule: evenodd; }]]></style></defs><metadata><views><view h="676.656654788" padding="0.01" w="500"><proj id="laea" lat0="51.0851258345" lon0="10.4812261246"/><bbox h="97.79" w="72.37" x="963.4" y="949.97"/></view></views></metadata><g class="" fill="none" id="country" stroke="gray" stroke-width="4px"><path d="M179.2,636.4L178.7,635.6L179.2,636.4L179.2,636.4Z M63.9,128.0L66.2,124.6L64.3,124.6L63.9,128.0Z M95.0,117.2L86.5,116.7L92.4,118.1L95.0,117.2Z M98.8,116.4L98.7,117.5L99.5,116.9L98.8,116.4Z M136.5,118.5L133.9,118.8L133.9,119.4L136.5,118.5Z M117.9,113.5L114.4,112.5L113.9,114.8L117.9,113.5Z M303.7,94.7L300.8,98.8L301.8,99.9L303.7,94.7Z M305.8,91.8L308.8,87.7L305.4,89.4L305.8,91.8Z M427.9,86.7L418.0,78.1L417.5,91.3L430.7,90.8L423.3,106.3L439.5,102.6L439.7,97.4L427.9,86.7Z M124.4,79.4L124.0,78.1L123.3,78.2L124.4,79.4Z M174.0,56.3L171.9,51.8L170.3,53.3L174.0,56.3Z M291.2,56.0L282.1,51.7L279.0,58.2L291.2,56.0Z M384.9,43.6L382.5,43.3L380.5,54.9L384.9,43.6Z M396.2,38.8L399.0,46.6L389.2,47.1L383.6,65.8L391.5,72.5L415.9,64.0L406.2,55.0L406.5,43.4L396.2,38.8Z M148.5,35.0L145.0,38.6L149.4,41.1L148.5,35.0Z M159.0,36.7L158.1,31.5L152.4,31.9L159.0,36.7Z M175.6,19.7L166.4,34.2L180.2,53.2L159.4,67.0L171.8,73.9L170.7,83.0L179.8,87.9L174.4,101.5L192.3,108.0L162.7,105.4L152.6,119.9L155.4,136.7L143.4,137.1L140.1,145.3L131.1,136.8L135.6,134.7L125.4,118.4L92.7,120.3L81.3,128.2L79.7,149.3L87.4,153.2L74.0,209.7L57.6,209.5L56.6,221.7L73.8,229.8L73.9,235.1L53.6,257.8L57.9,268.7L40.6,274.3L24.2,269.3L23.8,299.8L16.8,329.2L21.6,332.6L5.3,341.0L14.6,358.5L12.1,359.5L22.1,381.6L22.0,389.5L28.5,390.3L29.0,405.1L14.8,418.1L27.7,447.0L34.0,448.7L24.1,474.3L33.4,481.3L50.1,503.8L50.0,499.8L119.3,522.3L122.3,528.8L93.8,584.5L90.0,589.4L89.8,607.1L82.7,629.3L86.9,637.9L112.7,642.9L143.3,641.1L137.8,636.8L141.9,623.8L154.8,632.6L179.7,635.0L179.7,627.4L206.6,645.5L222.1,646.7L234.0,669.6L240.1,668.7L260.1,645.0L273.8,647.6L280.8,659.1L288.7,659.2L303.8,652.6L319.4,642.2L383.1,635.6L398.0,650.8L399.9,648.4L391.9,630.0L392.7,611.9L381.1,597.3L388.9,588.4L411.0,578.7L420.3,555.6L424.0,554.5L433.7,529.6L415.9,521.3L392.7,495.2L379.4,491.5L363.9,464.1L357.5,458.1L361.4,441.9L349.4,432.5L339.9,415.9L340.8,411.0L352.8,422.0L353.8,414.2L363.0,402.9L399.9,390.1L406.3,383.3L454.3,357.5L455.3,345.4L472.2,348.4L471.2,353.8L479.7,361.6L490.1,345.9L486.4,304.9L477.9,302.0L472.0,271.4L473.3,245.6L468.2,212.0L453.9,199.0L440.1,190.2L454.5,155.2L452.2,152.2L443.3,113.2L422.7,106.6L424.5,97.8L416.7,90.7L413.9,78.6L408.5,81.8L364.6,63.1L373.7,58.1L357.3,57.0L332.9,79.6L319.2,83.6L298.9,102.0L287.6,95.3L272.1,97.1L283.4,77.7L285.3,64.0L267.6,70.1L258.8,65.9L239.8,62.5L239.1,57.7L223.3,57.5L229.0,52.3L228.4,34.9L205.2,26.2L202.3,27.7L175.6,19.7Z "/></g><g class="" fill="#F27E30" id="location" stroke="#F27E30" stroke-width="10px"><circle cx="403.167496395" cy="220.336797872" r="2"/></g></svg>