<?xml version="1.0" encoding="utf-8"?><!DOCTYPE svg  PUBLIC '-//W3C//DTD SVG 1.1//EN'  'http://www.w3.org/Graphics/SVG/1.1/DTD/svg11.dtd'><svg enable_background="new 0 0 500 179" height="179px" pretty_print="False" style="stroke-linejoin: round; stroke:#000; fill: none;" version="1.1" viewBox="0 0 500 179" width="500px" xmlns="http://www.w3.org/2000/svg" xmlns:xlink="http://www.w3.org/1999/xlink"><defs><style type="text/css"><![CDATA[path { fill-rule: evenodd; }]]></style></defs><metadata><views><view h="179.388273541" padding="0.01" w="500"><proj id="laea" lat0="21.5197614605" lon0="-77.9521634549"/><bbox h="45.23" w="126.78" x="918.69" y="976.89"/></view></views></metadata><g class="" fill="none" id="country" stroke="gray" stroke-width="4px"><path d="M291.9,132.3L291.9,132.5L290.8,132.3L291.9,132.3Z M296.5,128.9L294.9,130.7L295.7,130.2L296.5,128.9Z M431.9,127.0L427.7,126.1L428.2,126.7L431.9,127.0Z M276.2,124.3L275.5,125.7L278.7,126.1L276.2,124.3Z M264.7,115.2L265.3,117.3L269.0,120.6L264.7,115.2Z M164.4,81.7L159.6,83.8L158.4,83.6L164.4,81.7Z M100.1,67.1L90.2,75.2L95.9,83.5L88.1,87.3L100.4,90.8L113.4,84.7L100.1,67.1Z M111.5,68.1L109.7,66.4L108.7,66.6L111.5,68.1Z M68.3,64.5L67.0,64.2L68.2,64.8L68.3,64.5Z M159.0,62.7L157.2,62.0L157.5,63.0L159.0,62.7Z M285.6,41.1L283.8,41.1L284.3,42.2L285.6,41.1Z M275.2,35.8L274.5,34.9L270.3,34.6L275.2,35.8Z M248.1,28.1L248.6,30.2L253.2,33.6L248.1,28.1Z M233.0,20.1L231.2,21.9L232.6,20.9L233.0,20.1Z M236.3,22.8L236.8,20.2L234.8,21.0L236.3,22.8Z M217.8,18.9L217.9,17.7L218.7,20.2L217.8,18.9Z M226.2,15.5L225.1,15.7L225.3,16.5L226.2,15.5Z M222.8,14.6L220.6,12.9L219.2,13.4L222.8,14.6Z M218.2,14.1L217.0,11.4L216.0,11.4L218.2,14.1Z M191.6,9.2L186.4,11.8L190.6,10.8L191.6,9.2Z M199.7,8.2L199.1,7.7L199.5,8.5L199.7,8.2Z M176.3,15.0L172.5,10.5L130.5,7.0L98.5,14.9L86.2,14.9L36.2,38.6L33.2,59.8L10.2,63.8L29.7,71.4L52.7,53.9L75.6,54.1L104.8,30.3L149.0,33.8L154.9,41.8L133.9,44.0L149.7,56.0L174.8,61.5L174.3,52.9L187.8,63.9L214.8,70.9L249.3,85.3L267.3,88.4L286.3,86.1L302.6,118.2L315.1,129.7L349.1,129.8L356.1,147.7L331.0,168.7L332.1,172.5L348.9,169.0L365.5,169.3L399.9,164.1L421.7,165.5L427.1,168.6L450.4,161.3L456.6,164.5L489.2,157.6L493.0,149.6L450.4,129.6L419.2,124.2L422.7,110.1L407.7,111.7L395.9,104.5L383.7,101.6L364.8,92.8L355.9,92.5L348.2,78.6L324.9,71.7L310.8,60.6L281.1,48.5L258.1,47.1L244.0,30.0L221.7,20.1L204.3,17.7L198.5,13.6L176.3,15.0Z M197.5,8.2L191.1,7.2L191.5,7.7L197.5,8.2Z M188.6,4.9L187.3,5.3L190.1,6.5L188.6,4.9Z "/></g><g class="" fill="#F27E30" id="location" stroke="#F27E30" stroke-width="10px"><circle cx="124.560397283" cy="9.4342457582" r="2"/></g></svg>