<?xml version="1.0" encoding="utf-8"?><!DOCTYPE svg  PUBLIC '-//W3C//DTD SVG 1.1//EN'  'http://www.w3.org/Graphics/SVG/1.1/DTD/svg11.dtd'><svg enable_background="new 0 0 500 748" height="748px" pretty_print="False" style="stroke-linejoin: round; stroke:#000; fill: none;" version="1.1" viewBox="0 0 500 748" width="500px" xmlns="http://www.w3.org/2000/svg" xmlns:xlink="http://www.w3.org/1999/xlink"><defs><style type="text/css"><![CDATA[path { fill-rule: evenodd; }]]></style></defs><metadata><views><view h="748.156964268" padding="0.01" w="500"><proj id="laea" lat0="4.8624950155" lon0="-58.9562561356"/><bbox h="92.19" w="61.69" x="969.44" y="953.78"/></view></views></metadata><g class="" fill="none" id="country" stroke="gray" stroke-width="4px"><path d="M298.8,170.1L305.0,163.3L298.2,166.2L298.8,170.1Z M183.0,36.5L160.5,23.8L147.7,7.9L148.5,13.9L158.8,25.5L155.4,38.7L150.4,39.8L112.7,72.1L94.5,78.4L72.6,110.8L80.5,138.3L89.9,147.8L115.2,149.9L114.1,155.0L79.1,177.9L76.3,181.9L37.9,189.0L32.0,188.6L32.7,241.4L15.8,253.9L6.9,269.5L70.3,339.9L99.2,342.8L116.6,335.5L145.7,354.5L139.1,391.0L130.3,400.8L130.5,409.7L149.4,409.8L169.8,418.7L174.2,426.2L170.9,442.6L178.9,446.8L177.2,452.2L184.0,460.6L183.7,479.9L168.0,496.3L159.8,499.2L152.1,548.1L150.3,549.0L143.5,590.6L152.3,621.2L169.3,633.6L167.5,673.7L177.5,686.5L188.2,687.9L200.8,703.3L225.5,724.2L242.2,727.1L258.1,741.0L289.0,732.2L293.4,714.1L313.3,702.4L340.5,708.2L349.3,695.5L370.8,688.7L379.3,690.2L397.7,676.4L400.2,669.8L435.6,660.0L439.3,666.5L464.9,671.7L469.2,668.3L485.5,669.1L494.8,665.4L472.5,656.7L462.8,643.1L447.8,608.2L442.9,608.4L432.6,585.8L424.3,577.5L412.0,520.5L408.9,523.0L376.7,519.3L378.4,510.1L361.6,494.9L350.4,471.5L339.8,461.4L337.8,440.9L346.4,432.0L359.2,393.2L350.3,380.6L359.7,366.9L362.9,367.9L390.8,358.9L414.4,357.5L410.3,353.1L419.1,345.9L413.5,329.3L422.6,303.7L425.1,282.3L423.4,248.1L404.4,230.9L395.6,226.5L389.4,233.7L382.5,217.6L342.0,181.3L315.4,172.5L299.4,174.7L286.3,196.8L283.3,218.1L281.1,212.8L281.9,191.7L287.9,165.8L294.4,159.5L295.7,126.1L276.7,102.1L267.7,99.4L227.0,54.8L177.8,24.4L166.3,20.0L168.1,25.2L198.2,44.0L183.0,36.5Z "/></g><g class="" fill="#F27E30" id="location" stroke="#F27E30" stroke-width="10px"><circle cx="171.495818413" cy="552.572189746" r="2"/></g></svg>