<?xml version="1.0" encoding="utf-8"?><!DOCTYPE svg  PUBLIC '-//W3C//DTD SVG 1.1//EN'  'http://www.w3.org/Graphics/SVG/1.1/DTD/svg11.dtd'><svg enable_background="new 0 0 500 393" height="393px" pretty_print="False" style="stroke-linejoin: round; stroke:#000; fill: none;" version="1.1" viewBox="0 0 500 393" width="500px" xmlns="http://www.w3.org/2000/svg" xmlns:xlink="http://www.w3.org/1999/xlink"><defs><style type="text/css"><![CDATA[path { fill-rule: evenodd; }]]></style></defs><metadata><views><view h="393.311476215" padding="0.01" w="500"><proj id="laea" lat0="56.957525946" lon0="-112.383079347"/><bbox h="487.43" w="621.23" x="824.69" y="649.17"/></view></views></metadata><g class="" fill="none" id="country" stroke="gray" stroke-width="4px"><path d="M356.2,386.4L356.3,386.0L356.0,385.5L356.2,386.4Z M453.9,306.5L453.9,306.0L453.5,305.8L453.9,306.5Z M481.6,274.8L480.7,275.7L480.3,276.1L481.6,274.8Z M385.0,345.3L385.1,344.4L384.3,345.4L385.0,345.3Z M387.8,342.5L387.3,342.7L386.7,343.0L387.8,342.5Z M439.8,300.4L440.4,301.8L440.9,301.5L439.8,300.4Z M396.3,324.8L395.2,325.5L395.4,326.1L396.3,324.8Z M359.0,345.4L358.8,346.7L359.2,345.8L359.0,345.4Z M395.5,323.2L395.5,322.8L395.5,323.3L395.5,323.2Z M348.0,349.5L348.1,348.6L347.7,348.9L348.0,349.5Z M396.6,320.1L395.5,322.3L396.1,322.2L396.6,320.1Z M397.6,321.5L396.6,321.5L395.4,323.8L397.6,321.5Z M341.0,347.4L340.0,348.0L340.3,348.1L341.0,347.4Z M339.5,348.1L346.3,348.6L347.8,346.0L339.5,348.1Z M468.9,258.3L468.5,258.7L468.7,258.7L468.9,258.3Z M345.4,344.2L344.5,344.7L345.6,344.9L345.4,344.2Z M330.5,348.3L332.5,349.1L332.4,348.1L330.5,348.3Z M325.6,343.8L325.4,344.2L325.6,344.0L325.6,343.8Z M405.1,300.5L405.5,299.4L405.5,298.4L405.1,300.5Z M483.0,224.9L482.8,224.6L482.7,224.8L483.0,224.9Z M478.2,230.0L477.8,230.2L477.8,230.4L478.2,230.0Z M484.8,220.8L484.5,220.4L484.4,220.4L484.8,220.8Z M405.9,293.8L405.9,293.0L405.6,293.9L405.9,293.8Z M450.5,253.8L450.5,258.9L449.5,257.5L450.5,253.8Z M475.4,227.6L474.8,227.5L474.5,228.2L475.4,227.6Z M483.9,218.9L483.2,218.1L482.9,218.0L483.9,218.9Z M315.7,338.9L313.9,339.1L313.9,340.0L315.7,338.9Z M433.2,265.6L433.3,264.8L432.9,264.4L433.2,265.6Z M480.3,213.4L480.8,214.0L482.2,212.6L480.3,213.4Z M292.8,342.3L292.2,342.2L292.0,342.5L292.8,342.3Z M408.5,279.3L408.5,279.2L408.3,279.4L408.5,279.3Z M69.9,358.4L70.1,358.8L70.1,358.7L69.9,358.4Z M300.8,333.9L300.3,333.7L300.5,333.9L300.8,333.9Z M70.5,357.2L70.2,357.2L70.6,357.5L70.5,357.2Z M298.8,334.3L296.8,334.7L297.0,335.4L298.8,334.3Z M69.1,355.7L68.6,357.1L69.0,357.5L69.1,355.7Z M70.3,356.1L68.5,354.3L69.0,355.2L70.3,356.1Z M53.8,350.4L53.7,349.8L53.5,350.2L53.8,350.4Z M54.8,350.7L54.6,349.7L54.3,349.7L54.8,350.7Z M393.2,330.4L414.9,311.4L414.9,289.5L433.2,299.4L440.2,295.9L453.3,281.4L446.1,295.5L446.9,303.8L454.8,304.3L454.6,291.3L464.2,276.4L459.0,269.8L445.8,277.8L439.8,276.1L430.3,264.1L410.9,273.6L406.7,297.7L393.2,330.4Z M53.4,349.0L53.3,347.9L52.5,347.8L53.4,349.0Z M70.6,351.5L71.0,350.7L70.3,351.2L70.6,351.5Z M467.8,208.1L467.5,208.7L467.9,209.0L467.8,208.1Z M64.8,348.8L64.6,348.7L64.6,349.1L64.8,348.8Z M71.1,350.1L71.0,349.5L70.4,349.6L71.1,350.1Z M63.1,348.3L62.7,348.6L62.9,348.3L63.1,348.3Z M62.4,348.7L62.0,347.6L61.7,348.0L62.4,348.7Z M467.2,206.5L466.9,207.7L466.7,209.2L467.2,206.5Z M468.2,203.5L468.6,205.3L469.0,204.1L468.2,203.5Z M67.2,346.5L65.9,347.0L66.4,347.4L67.2,346.5Z M65.1,347.1L65.6,348.8L65.8,348.5L65.1,347.1Z M47.3,340.5L47.3,340.1L47.2,340.0L47.3,340.5Z M422.5,244.4L422.0,244.2L422.0,244.4L422.5,244.4Z M62.9,341.4L62.4,340.4L62.2,341.4L62.9,341.4Z M63.6,340.6L62.9,341.1L63.1,341.4L63.6,340.6Z M60.8,339.2L60.3,338.7L60.0,339.5L60.8,339.2Z M57.2,338.3L57.3,337.7L56.3,337.8L57.2,338.3Z M52.6,335.6L52.1,335.5L52.3,335.9L52.6,335.6Z M54.7,336.4L53.9,335.9L52.5,336.0L54.7,336.4Z M53.9,335.7L52.9,335.4L52.8,335.5L53.9,335.7Z M440.0,221.5L440.7,222.2L440.7,221.9L440.0,221.5Z M50.0,334.3L51.1,334.8L50.8,334.5L50.0,334.3Z M455.1,202.9L454.7,204.0L455.2,203.9L455.1,202.9Z M40.6,331.0L40.9,330.8L40.5,330.9L40.6,331.0Z M441.1,218.2L440.8,218.0L440.9,218.4L441.1,218.2Z M447.6,210.5L447.8,210.8L447.8,210.5L447.6,210.5Z M52.9,333.2L51.1,332.9L52.0,333.6L52.9,333.2Z M45.2,331.2L50.4,347.0L65.8,360.5L69.8,360.5L57.4,338.9L45.2,331.2Z M46.5,331.8L45.5,331.0L45.5,331.1L46.5,331.8Z M453.9,202.3L453.5,201.7L453.3,201.8L453.9,202.3Z M47.7,329.9L47.4,329.5L47.3,329.5L47.7,329.9Z M440.2,214.7L440.1,213.7L439.9,214.2L440.2,214.7Z M440.3,213.0L440.2,212.4L440.0,212.9L440.3,213.0Z M447.5,198.8L447.8,212.2L464.4,239.3L482.3,216.7L489.1,224.4L492.7,216.3L485.8,215.9L480.2,207.6L462.2,215.2L460.5,208.4L447.5,198.8Z M44.2,320.2L44.3,319.6L43.9,319.8L44.2,320.2Z M447.6,194.5L447.0,194.1L447.1,194.5L447.6,194.5Z M334.9,282.4L333.1,284.3L333.5,284.7L334.9,282.4Z M29.4,314.5L28.7,315.7L29.1,315.7L29.4,314.5Z M45.7,319.6L46.1,319.1L46.4,318.0L45.7,319.6Z M333.0,281.6L333.3,281.2L333.0,281.3L333.0,281.6Z M51.2,318.4L48.9,318.0L47.4,320.5L51.2,318.4Z M44.0,314.5L43.4,316.1L44.3,314.8L44.0,314.5Z M45.1,313.5L43.9,313.8L44.8,315.1L45.1,313.5Z M40.0,311.8L40.2,311.4L40.0,311.4L40.0,311.8Z M27.3,307.6L28.1,308.7L28.1,307.7L27.3,307.6Z M439.8,190.6L439.1,190.6L439.2,190.7L439.8,190.6Z M46.8,313.7L47.6,311.7L46.7,312.1L46.8,313.7Z M27.1,306.3L26.6,306.1L26.6,306.3L27.1,306.3Z M46.0,311.8L46.0,311.0L45.4,311.9L46.0,311.8Z M24.8,304.2L24.7,304.0L24.1,304.1L24.8,304.2Z M437.9,188.5L437.6,188.8L438.3,188.9L437.9,188.5Z M40.1,308.3L39.6,308.1L39.6,308.5L40.1,308.3Z M39.6,307.4L39.9,307.8L40.1,307.6L39.6,307.4Z M437.3,187.9L437.6,188.5L437.6,188.0L437.3,187.9Z M327.4,274.8L326.9,274.3L326.6,274.9L327.4,274.8Z M27.9,302.3L23.4,302.0L26.5,305.6L27.9,302.3Z M45.8,308.0L42.2,308.7L43.8,313.2L45.8,308.0Z M325.5,272.8L325.0,273.0L325.5,273.8L325.5,272.8Z M433.9,185.5L434.0,186.3L434.7,185.6L433.9,185.5Z M35.4,302.0L35.1,301.7L35.2,301.9L35.4,302.0Z M428.0,188.9L427.7,189.4L427.9,189.9L428.0,188.9Z M45.3,303.4L45.8,302.3L44.0,302.5L45.3,303.4Z M36.9,299.2L36.1,298.7L36.0,298.9L36.9,299.2Z M40.5,301.4L39.1,298.9L37.9,299.0L40.5,301.4Z M323.5,267.7L323.1,267.6L323.0,267.6L323.5,267.7Z M39.1,296.4L38.8,296.0L38.9,296.3L39.1,296.4Z M23.9,291.3L23.6,290.5L23.5,290.8L23.9,291.3Z M423.2,186.2L422.8,186.4L422.9,186.5L423.2,186.2Z M38.5,294.9L38.4,294.0L38.1,294.3L38.5,294.9Z M39.2,294.8L38.7,294.5L38.9,295.0L39.2,294.8Z M315.4,267.1L315.2,266.8L315.1,266.8L315.4,267.1Z M37.1,292.9L36.6,293.1L36.6,293.3L37.1,292.9Z M421.9,184.3L421.7,184.3L421.6,184.5L421.9,184.3Z M421.4,184.4L421.4,184.1L420.8,184.3L421.4,184.4Z M35.5,290.6L35.7,290.3L35.5,290.2L35.5,290.6Z M37.4,290.8L36.0,291.3L35.8,292.1L37.4,290.8Z M39.3,290.2L38.5,289.6L38.5,289.7L39.3,290.2Z M416.2,184.5L415.3,185.6L416.3,186.1L416.2,184.5Z M322.1,257.3L321.1,257.9L320.1,259.2L322.1,257.3Z M39.7,289.9L41.6,288.3L41.5,287.7L39.7,289.9Z M327.8,248.0L328.4,246.0L328.4,245.2L327.8,248.0Z M318.2,246.5L318.4,247.3L318.5,246.4L318.2,246.5Z M395.9,187.6L395.3,187.8L396.8,188.3L395.9,187.6Z M328.5,239.6L328.1,239.3L328.3,239.7L328.5,239.6Z M322.3,241.0L321.8,241.2L321.8,241.5L322.3,241.0Z M390.9,188.3L392.3,188.2L392.2,187.2L390.9,188.3Z M323.6,239.4L323.5,238.9L323.4,239.3L323.6,239.4Z M318.2,242.8L317.4,242.3L317.9,245.1L318.2,242.8Z M313.5,245.2L312.4,245.6L311.9,247.5L313.5,245.2Z M391.9,185.9L391.9,186.5L393.3,185.7L391.9,185.9Z M316.4,240.3L315.9,240.4L315.9,240.4L316.4,240.3Z M314.4,241.4L314.9,248.9L316.7,247.9L314.4,241.4Z M310.6,242.3L310.5,241.5L310.4,241.4L310.6,242.3Z M310.2,240.4L310.8,241.6L310.9,241.1L310.2,240.4Z M388.8,183.0L388.5,184.3L389.6,183.3L388.8,183.0Z M324.1,231.2L323.9,230.6L323.3,230.2L324.1,231.2Z M315.1,233.8L314.9,233.4L314.7,234.0L315.1,233.8Z M382.7,179.9L382.4,180.6L383.4,181.0L382.7,179.9Z M307.8,234.8L307.2,234.9L307.9,236.1L307.8,234.8Z M380.4,177.7L380.0,178.1L381.0,178.6L380.4,177.7Z M313.7,223.6L312.8,223.4L312.1,223.6L313.7,223.6Z M356.3,193.7L355.3,192.9L355.3,193.2L356.3,193.7Z M307.7,222.5L307.4,222.8L308.8,223.0L307.7,222.5Z M305.6,221.6L305.1,221.3L305.4,221.6L305.6,221.6Z M346.1,193.2L346.1,192.6L345.9,192.8L346.1,193.2Z M295.5,219.7L295.2,219.9L295.4,219.9L295.5,219.7Z M294.3,218.1L294.3,217.8L294.3,217.7L294.3,218.1Z M294.8,217.5L294.7,217.3L294.7,217.4L294.8,217.5Z M353.2,167.3L353.5,168.5L354.3,168.2L353.2,167.3Z M352.3,166.5L352.0,166.0L352.1,166.5L352.3,166.5Z M330.7,179.8L330.4,179.0L330.3,179.1L330.7,179.8Z M345.1,159.1L346.1,161.2L346.3,161.8L345.1,159.1Z M340.3,160.6L339.9,161.3L341.2,160.9L340.3,160.6Z M317.7,178.1L317.8,177.9L317.6,178.2L317.7,178.1Z M230.2,219.6L229.5,220.0L230.6,220.3L230.2,219.6Z M231.6,214.3L230.8,214.5L231.1,214.5L231.6,214.3Z M339.3,151.9L339.4,153.5L340.7,152.9L339.3,151.9Z M291.7,185.9L291.7,186.4L292.0,186.4L291.7,185.9Z M338.6,152.3L337.8,152.4L337.9,152.9L338.6,152.3Z M236.7,209.7L235.8,210.0L236.3,210.0L236.7,209.7Z M303.7,177.0L303.7,177.7L305.6,177.2L303.7,177.0Z M331.8,154.3L330.5,154.3L330.6,154.5L331.8,154.3Z M272.7,191.8L267.8,196.6L270.6,200.9L272.7,191.8Z M329.7,154.8L328.4,154.3L329.1,154.9L329.7,154.8Z M323.6,154.9L322.7,154.5L323.8,155.2L323.6,154.9Z M236.0,201.8L235.3,201.5L235.7,202.0L236.0,201.8Z M234.2,201.3L235.1,201.6L235.5,201.2L234.2,201.3Z M335.1,144.0L335.4,144.6L336.3,144.5L335.1,144.0Z M288.5,175.3L290.4,177.1L291.5,176.9L288.5,175.3Z M332.5,141.3L332.0,140.6L331.7,140.9L332.5,141.3Z M330.4,141.4L330.9,142.4L332.5,142.3L330.4,141.4Z M299.5,161.5L299.6,162.2L299.9,162.2L299.5,161.5Z M287.4,168.9L287.1,169.1L287.6,169.4L287.4,168.9Z M297.2,160.0L296.7,159.4L297.6,161.7L297.2,160.0Z M322.8,137.1L322.6,138.5L322.7,139.5L322.8,137.1Z M313.7,136.9L313.4,136.8L313.5,137.1L313.7,136.9Z M235.5,181.3L235.8,181.4L235.7,181.2L235.5,181.3Z M309.6,135.1L308.8,135.7L308.8,135.8L309.6,135.1Z M255.5,168.2L254.3,168.6L254.5,168.8L255.5,168.2Z M247.6,172.3L251.7,188.7L260.3,195.1L262.1,184.1L269.4,180.6L247.6,172.3Z M309.2,131.8L308.6,132.1L309.0,132.5L309.2,131.8Z M248.3,169.3L248.2,169.0L247.9,169.1L248.3,169.3Z M253.6,166.8L253.4,166.8L253.5,167.0L253.6,166.8Z M254.0,163.8L253.3,163.7L253.6,164.4L254.0,163.8Z M243.4,167.1L243.4,166.9L243.2,167.1L243.4,167.1Z M158.9,183.0L159.1,181.5L159.0,181.7L158.9,183.0Z M160.7,180.7L159.8,179.5L159.8,180.0L160.7,180.7Z M309.7,113.0L309.6,114.0L310.4,112.7L309.7,113.0Z M158.5,177.7L157.6,177.8L158.1,178.1L158.5,177.7Z M156.5,176.4L156.2,176.8L156.9,176.9L156.5,176.4Z M307.9,112.3L306.7,112.1L306.9,112.5L307.9,112.3Z M153.8,174.0L153.6,174.4L153.9,174.2L153.8,174.0Z M134.8,173.4L134.4,173.5L135.3,173.6L134.8,173.4Z M138.0,173.0L137.5,173.3L136.8,173.3L138.0,173.0Z M157.5,172.9L157.1,172.3L156.9,172.6L157.5,172.9Z M190.9,166.7L190.5,167.0L190.9,167.5L190.9,166.7Z M150.0,171.7L150.5,170.9L149.4,171.6L150.0,171.7Z M140.0,171.0L139.6,170.7L139.4,171.0L140.0,171.0Z M274.3,132.0L275.6,134.7L277.1,133.7L274.3,132.0Z M235.8,154.2L233.7,151.2L233.2,151.3L235.8,154.2Z M144.0,170.2L144.6,169.4L144.5,169.3L144.0,170.2Z M259.0,140.2L258.3,138.5L257.7,139.0L259.0,140.2Z M186.4,165.4L186.0,164.9L185.8,165.1L186.4,165.4Z M273.6,130.3L272.7,129.1L271.9,128.8L273.6,130.3Z M147.5,167.5L147.0,166.9L146.3,167.3L147.5,167.5Z M147.8,166.7L147.6,167.1L148.2,166.9L147.8,166.7Z M136.4,166.5L136.1,166.3L135.7,166.2L136.4,166.5Z M258.0,135.5L258.5,137.3L258.7,135.9L258.0,135.5Z M270.8,128.4L269.3,128.6L269.8,129.0L270.8,128.4Z M135.3,166.2L134.9,165.6L134.8,165.6L135.3,166.2Z M269.7,129.3L270.2,130.8L270.7,131.2L269.7,129.3Z M286.7,113.6L287.5,113.4L288.6,113.2L286.7,113.6Z M179.4,161.6L178.0,162.5L178.2,163.3L179.4,161.6Z M134.3,163.7L134.3,163.5L134.0,163.4L134.3,163.7Z M185.4,158.9L185.0,157.5L184.4,158.4L185.4,158.9Z M218.3,148.3L218.2,148.3L218.9,148.8L218.3,148.3Z M254.5,128.7L254.8,135.0L255.8,132.9L254.5,128.7Z M62.1,144.5L62.5,145.6L62.7,145.3L62.1,144.5Z M244.4,133.8L244.2,134.6L244.7,134.2L244.4,133.8Z M217.6,145.7L216.8,146.6L217.6,147.3L217.6,145.7Z M258.5,126.0L257.7,126.5L258.6,128.2L258.5,126.0Z M61.9,143.3L61.8,143.6L61.9,143.9L61.9,143.3Z M195.6,150.5L197.6,151.0L197.1,150.2L195.6,150.5Z M284.7,105.4L283.8,105.5L284.2,106.5L284.7,105.4Z M198.7,149.2L198.2,151.5L199.9,151.8L198.7,149.2Z M52.1,138.5L51.4,137.6L51.0,138.6L52.1,138.5Z M62.8,142.9L63.4,142.3L63.2,142.2L62.8,142.9Z M282.2,105.5L282.0,106.0L283.1,107.1L282.2,105.5Z M176.8,153.2L176.5,152.6L176.3,152.7L176.8,153.2Z M248.7,127.1L245.9,129.4L246.0,130.2L248.7,127.1Z M240.5,132.1L240.3,131.8L240.4,132.3L240.5,132.1Z M237.2,133.4L236.1,134.0L237.1,134.1L237.2,133.4Z M210.8,143.5L210.7,143.0L210.6,143.2L210.8,143.5Z M211.9,143.0L211.5,143.3L211.1,143.7L211.9,143.0Z M193.0,150.7L187.4,158.9L193.8,160.1L193.0,150.7Z M192.3,147.8L191.9,147.3L191.9,147.8L192.3,147.8Z M225.1,135.1L227.1,135.7L226.4,134.7L225.1,135.1Z M99.0,147.1L98.5,147.1L98.9,147.3L99.0,147.1Z M139.4,149.9L139.1,149.6L138.7,149.6L139.4,149.9Z M180.3,146.7L180.2,146.1L179.9,146.4L180.3,146.7Z M143.8,149.6L141.6,149.3L142.3,149.7L143.8,149.6Z M127.4,147.5L126.6,147.2L126.8,147.5L127.4,147.5Z M128.5,147.1L127.8,147.0L127.8,147.2L128.5,147.1Z M127.6,146.7L127.1,146.6L126.9,146.9L127.6,146.7Z M126.5,146.8L125.9,146.5L125.1,146.5L126.5,146.8Z M263.4,102.9L264.5,105.3L264.9,103.8L263.4,102.9Z M257.8,102.5L257.6,102.7L257.9,103.2L257.8,102.5Z M258.2,100.7L257.4,99.8L257.0,100.2L258.2,100.7Z M194.0,127.8L193.6,128.8L194.1,128.7L194.0,127.8Z M393.2,330.4L403.9,302.8L405.7,286.1L399.7,286.0L406.2,272.6L409.6,254.7L432.8,235.5L440.0,226.3L444.9,199.2L419.6,184.1L404.4,192.2L401.1,187.6L358.1,169.5L358.3,189.1L352.1,203.8L348.4,192.4L345.0,195.7L331.8,177.6L306.5,180.0L292.8,185.3L291.8,189.6L307.9,222.5L314.9,223.8L327.9,236.3L321.5,259.3L332.2,272.8L333.7,291.8L322.1,287.1L307.8,266.6L276.5,266.0L257.3,260.6L246.4,265.4L239.1,251.0L230.7,250.5L227.4,239.5L229.1,221.3L237.0,206.7L230.3,200.9L244.1,185.5L244.8,169.6L254.7,160.5L255.0,150.1L246.1,144.1L249.5,139.8L240.6,133.6L236.1,142.3L236.3,156.3L220.9,146.0L220.7,155.6L210.6,140.2L193.9,126.8L192.3,136.2L204.8,156.3L201.4,163.8L179.5,172.0L165.2,162.7L160.4,183.3L153.2,174.7L135.1,170.0L131.9,163.6L99.8,151.6L96.0,153.6L89.8,141.0L81.4,145.9L60.1,148.9L45.7,134.9L14.1,200.5L8.0,220.4L29.5,235.6L44.9,279.3L39.4,298.7L45.5,300.4L45.7,316.9L54.5,325.0L46.5,328.4L65.2,339.5L63.2,343.6L73.5,355.2L126.0,360.2L138.9,360.5L194.6,357.4L246.7,348.1L251.5,343.1L262.4,349.0L288.1,346.6L305.2,331.7L316.9,336.2L330.4,348.0L351.8,342.5L362.5,353.1L356.6,354.9L356.3,383.0L360.9,374.8L376.1,364.0L369.3,363.0L393.2,330.4Z M147.1,127.3L146.9,127.1L146.7,127.1L147.1,127.3Z M147.6,126.7L147.5,126.5L147.3,126.6L147.6,126.7Z M190.0,118.9L189.6,118.2L189.5,118.5L190.0,118.9Z M136.2,120.1L126.7,123.5L120.3,134.2L130.8,146.7L124.1,152.1L138.9,167.6L148.7,166.6L161.9,156.8L173.8,162.0L178.9,159.5L178.4,148.4L167.6,141.5L153.7,122.3L155.5,131.2L136.2,120.1Z M154.9,117.1L154.2,116.6L153.8,117.4L154.9,117.1Z M163.7,118.8L159.7,120.1L161.6,122.6L163.7,118.8Z M211.2,100.8L211.9,127.3L220.4,127.2L229.5,134.6L247.0,121.2L264.6,130.8L279.5,130.6L289.2,162.4L281.1,159.3L281.4,170.5L297.8,158.5L327.3,165.4L339.1,160.9L337.5,153.1L325.4,138.7L317.5,139.8L304.8,133.9L304.3,128.6L321.8,116.0L300.6,111.9L275.6,99.9L263.9,107.9L261.2,98.9L247.0,97.8L233.2,108.5L224.7,96.2L217.1,103.9L225.7,120.7L211.2,100.8Z M176.0,111.1L176.1,122.4L169.9,123.8L183.1,135.3L190.1,128.7L184.0,112.4L176.0,111.1Z M181.5,108.1L177.7,111.2L178.6,111.5L181.5,108.1Z M194.4,104.5L189.6,116.4L199.8,117.0L201.6,105.2L194.4,104.5Z M116.9,106.2L106.1,120.5L106.9,139.2L115.7,135.9L126.8,122.1L127.7,110.6L116.9,106.2Z M181.2,102.8L180.6,104.4L180.9,103.9L181.2,102.8Z M186.1,101.7L185.2,101.5L185.4,102.5L186.1,101.7Z M163.3,99.3L160.5,101.1L163.3,101.6L163.3,99.3Z M181.0,92.3L180.0,95.2L180.8,93.1L181.0,92.3Z M119.9,95.0L120.7,93.3L120.2,93.4L119.9,95.0Z M166.4,92.1L164.1,93.1L163.7,94.7L166.4,92.1Z M185.3,90.0L185.4,89.9L183.4,88.7L185.3,90.0Z M128.7,92.1L123.9,96.8L125.3,97.6L128.7,92.1Z M164.5,89.5L161.4,92.0L164.7,91.0L164.5,89.5Z M193.8,79.8L193.8,80.2L194.2,80.1L193.8,79.8Z M205.9,75.2L205.9,74.8L205.5,75.1L205.9,75.2Z M173.5,83.8L172.1,99.8L179.1,97.8L173.5,83.8Z M169.0,84.3L167.5,84.5L167.2,85.2L169.0,84.3Z M193.3,79.6L191.1,77.1L190.7,78.4L193.3,79.6Z M149.9,85.5L137.1,89.2L129.3,97.5L143.5,108.2L155.9,103.1L157.5,93.1L149.9,85.5Z M138.3,85.2L135.6,86.2L138.7,86.6L138.3,85.2Z M179.6,78.8L203.6,96.9L223.1,87.1L214.1,78.0L205.4,85.7L179.6,78.8Z M199.1,67.2L198.6,66.0L198.0,66.2L199.1,67.2Z M177.1,71.7L176.7,74.9L181.9,73.3L177.1,71.7Z M165.7,74.7L162.5,75.3L163.2,75.6L165.7,74.7Z M147.2,73.5L139.8,75.1L142.0,80.9L147.2,73.5Z M160.7,71.7L161.0,70.4L160.5,70.3L160.7,71.7Z M189.1,60.8L189.1,62.2L189.3,62.8L189.1,60.8Z M145.3,66.9L139.9,70.2L147.4,71.2L145.3,66.9Z M211.8,45.9L210.8,45.5L210.8,46.1L211.8,45.9Z M157.6,60.2L156.1,68.7L164.6,70.3L157.6,60.2Z M163.7,51.5L165.4,55.0L165.8,54.3L163.7,51.5Z M168.6,44.4L168.2,45.1L169.4,45.1L168.6,44.4Z M170.8,37.5L168.2,46.6L180.1,54.5L178.7,62.8L189.4,54.3L170.8,37.5Z M189.0,7.9L178.8,18.2L177.4,39.8L188.0,41.7L194.2,62.8L193.1,79.0L213.5,74.7L205.6,64.2L206.3,17.3L202.2,5.8L189.0,7.9Z "/></g><g class="" fill="#F27E30" id="location" stroke="#F27E30" stroke-width="10px"><circle cx="61.7657756073" cy="342.170239575" r="2"/></g></svg>