<?xml version="1.0" encoding="utf-8"?><!DOCTYPE svg  PUBLIC '-//W3C//DTD SVG 1.1//EN'  'http://www.w3.org/Graphics/SVG/1.1/DTD/svg11.dtd'><svg enable_background="new 0 0 500 391" height="391px" pretty_print="False" style="stroke-linejoin: round; stroke:#000; fill: none;" version="1.1" viewBox="0 0 500 391" width="500px" xmlns="http://www.w3.org/2000/svg" xmlns:xlink="http://www.w3.org/1999/xlink"><defs><style type="text/css"><![CDATA[path { fill-rule: evenodd; }]]></style></defs><metadata><views><view h="391.157705739" padding="0" w="500"><proj id="laea" lat0="56.957525946" lon0="-112.383079347"/><bbox h="475.25" w="609.04" x="830.78" y="655.26"/></view></views></metadata><g class="" fill="none" id="country" stroke="gray" stroke-width="4px"><path d="M358.3,389.2L358.0,388.4L358.0,388.6L358.3,389.2Z M458.0,307.7L457.9,307.1L457.5,306.9L458.0,307.7Z M486.3,275.3L485.3,276.3L484.9,276.6L486.3,275.3Z M387.7,347.2L387.8,346.3L387.0,347.3L387.7,347.2Z M390.5,344.3L390.0,344.5L389.5,344.9L390.5,344.3Z M443.6,301.4L444.2,302.8L444.7,302.6L443.6,301.4Z M399.2,326.3L398.1,327.0L398.3,327.6L399.2,326.3Z M361.2,347.3L360.9,348.6L361.4,347.8L361.2,347.3Z M398.4,324.7L398.4,324.3L398.4,324.7L398.4,324.7Z M349.9,351.5L350.0,350.6L349.6,350.9L349.9,351.5Z M399.6,321.5L398.4,323.8L399.0,323.6L399.6,321.5Z M400.5,322.9L399.5,323.0L398.3,325.3L400.5,322.9Z M342.8,349.4L341.8,350.0L342.1,350.1L342.8,349.4Z M341.3,350.1L348.2,350.6L349.8,347.9L341.3,350.1Z M473.3,258.5L472.9,258.9L473.1,258.9L473.3,258.5Z M347.3,346.1L346.4,346.6L347.6,346.8L347.3,346.1Z M332.1,350.3L334.2,351.1L334.0,350.1L332.1,350.3Z M327.1,345.7L326.9,346.1L327.1,345.8L327.1,345.7Z M408.2,301.6L408.6,300.4L408.6,299.4L408.2,301.6Z M487.7,224.4L487.4,224.1L487.3,224.3L487.7,224.4Z M482.7,229.6L482.4,229.8L482.3,230.0L482.7,229.6Z M489.5,220.3L489.2,219.8L489.1,219.9L489.5,220.3Z M409.0,294.6L409.1,293.9L408.7,294.8L409.0,294.6Z M454.5,253.9L454.5,259.1L453.5,257.6L454.5,253.9Z M479.9,227.2L479.3,227.1L479.0,227.8L479.9,227.2Z M488.6,218.3L487.9,217.5L487.5,217.4L488.6,218.3Z M317.0,340.7L315.2,340.8L315.2,341.8L317.0,340.7Z M436.8,266.0L437.0,265.1L436.6,264.7L436.8,266.0Z M484.9,212.7L485.4,213.3L486.9,211.9L484.9,212.7Z M293.6,344.2L293.0,344.1L292.9,344.4L293.6,344.2Z M411.6,279.9L411.7,279.8L411.5,280.0L411.6,279.9Z M66.3,360.6L66.5,361.0L66.5,360.9L66.3,360.6Z M301.8,335.6L301.3,335.4L301.5,335.6L301.8,335.6Z M67.0,359.4L66.6,359.3L67.0,359.7L67.0,359.4Z M299.8,336.0L297.7,336.5L298.0,337.2L299.8,336.0Z M65.5,357.9L65.0,359.3L65.3,359.7L65.5,357.9Z M66.7,358.3L64.8,356.4L65.4,357.3L66.7,358.3Z M49.9,352.4L49.8,351.8L49.6,352.3L49.9,352.4Z M50.9,352.7L50.7,351.7L50.4,351.7L50.9,352.7Z M396.1,332.0L418.2,312.6L418.2,290.3L436.9,300.4L444.0,296.8L457.3,282.0L450.1,296.4L450.8,304.9L458.8,305.4L458.7,292.1L468.5,277.0L463.2,270.2L449.7,278.3L443.5,276.6L433.9,264.4L414.1,274.1L409.9,298.7L401.1,323.5L396.1,332.0Z M49.4,351.0L49.4,349.9L48.6,349.8L49.4,351.0Z M67.0,353.5L67.4,352.8L66.7,353.2L67.0,353.5Z M472.1,207.3L471.9,207.9L472.3,208.2L472.1,207.3Z M61.1,350.8L60.9,350.6L60.9,351.1L61.1,350.8Z M67.6,352.1L67.4,351.5L66.9,351.6L67.6,352.1Z M59.3,350.3L59.0,350.6L59.2,350.3L59.3,350.3Z M58.7,350.7L58.2,349.6L57.9,349.9L58.7,350.7Z M471.5,205.7L471.3,206.9L471.0,208.3L471.5,205.7Z M472.6,202.6L473.0,204.4L473.4,203.2L472.6,202.6Z M63.5,348.5L62.2,349.0L62.8,349.4L63.5,348.5Z M61.4,349.1L61.9,350.8L62.2,350.5L61.4,349.1Z M43.2,342.3L43.2,341.9L43.1,341.9L43.2,342.3Z M426.0,244.2L425.4,244.0L425.4,244.3L426.0,244.2Z M59.1,343.3L58.6,342.2L58.4,343.2L59.1,343.3Z M59.9,342.4L59.2,343.0L59.4,343.2L59.9,342.4Z M57.0,341.0L56.5,340.5L56.2,341.3L57.0,341.0Z M53.3,340.1L53.4,339.5L52.4,339.6L53.3,340.1Z M48.7,337.3L48.2,337.2L48.4,337.7L48.7,337.3Z M50.8,338.1L50.0,337.7L48.6,337.7L50.8,338.1Z M50.0,337.4L48.9,337.1L48.8,337.2L50.0,337.4Z M443.8,221.0L444.5,221.7L444.5,221.3L443.8,221.0Z M46.0,336.0L47.1,336.6L46.9,336.2L46.0,336.0Z M459.2,202.0L458.8,203.1L459.3,203.0L459.2,202.0Z M36.4,332.6L36.7,332.5L36.3,332.5L36.4,332.6Z M444.9,217.6L444.6,217.4L444.7,217.8L444.9,217.6Z M451.6,209.7L451.7,210.0L451.8,209.7L451.6,209.7Z M48.9,334.8L47.1,334.6L48.0,335.3L48.9,334.8Z M41.1,332.8L46.4,349.0L62.1,362.7L66.2,362.7L53.5,340.7L41.1,332.8Z M42.5,333.4L41.5,332.7L41.4,332.8L42.5,333.4Z M457.9,201.4L457.6,200.8L457.3,200.9L457.9,201.4Z M43.6,331.5L43.3,331.1L43.2,331.1L43.6,331.5Z M444.0,214.0L443.9,213.0L443.7,213.5L444.0,214.0Z M444.1,212.3L444.0,211.7L443.8,212.1L444.1,212.3Z M451.4,197.8L451.7,211.5L468.7,239.1L486.9,216.0L493.9,223.9L497.6,215.6L490.6,215.2L484.8,206.8L466.4,214.5L459.4,213.5L451.4,197.8Z M40.1,321.6L40.2,321.0L39.8,321.2L40.1,321.6Z M451.6,193.4L450.9,193.0L451.1,193.4L451.6,193.4Z M336.6,283.1L334.8,285.0L335.2,285.4L336.6,283.1Z M25.0,315.8L24.3,317.1L24.7,317.1L25.0,315.8Z M41.6,321.0L42.0,320.5L42.3,319.4L41.6,321.0Z M334.7,282.2L334.9,281.8L334.7,281.9L334.7,282.2Z M47.2,319.8L44.9,319.3L43.4,321.9L47.2,319.8Z M39.9,315.8L39.2,317.4L40.2,316.1L39.9,315.8Z M41.0,314.8L39.7,315.1L40.7,316.4L41.0,314.8Z M35.8,313.0L36.0,312.6L35.8,312.6L35.8,313.0Z M22.8,308.7L23.7,309.9L23.7,308.9L22.8,308.7Z M443.6,189.4L442.9,189.4L443.0,189.5L443.6,189.4Z M42.7,315.0L43.6,313.0L42.7,313.3L42.7,315.0Z M22.6,307.4L22.1,307.2L22.1,307.4L22.6,307.4Z M41.9,313.0L41.9,312.2L41.4,313.1L41.9,313.0Z M20.3,305.3L20.2,305.1L19.6,305.2L20.3,305.3Z M441.7,187.3L441.4,187.6L442.0,187.7L441.7,187.3Z M35.9,309.5L35.4,309.3L35.4,309.7L35.9,309.5Z M35.4,308.5L35.7,309.0L35.9,308.7L35.4,308.5Z M441.1,186.6L441.4,187.3L441.4,186.7L441.1,186.6Z M329.0,275.3L328.4,274.8L328.2,275.4L329.0,275.3Z M23.5,303.3L18.9,303.0L22.0,306.8L23.5,303.3Z M41.7,309.2L38.0,309.8L39.7,314.4L41.7,309.2Z M327.0,273.3L326.5,273.5L327.0,274.3L327.0,273.3Z M437.6,184.2L437.6,185.0L438.4,184.3L437.6,184.2Z M31.1,303.1L30.8,302.8L30.9,303.0L31.1,303.1Z M431.6,187.7L431.3,188.2L431.4,188.7L431.6,187.7Z M41.3,304.5L41.8,303.3L39.9,303.6L41.3,304.5Z M32.7,300.2L31.8,299.6L31.8,299.9L32.7,300.2Z M36.3,302.5L34.9,299.9L33.7,300.0L36.3,302.5Z M325.0,268.1L324.6,267.9L324.5,268.0L325.0,268.1Z M34.9,297.3L34.6,296.9L34.7,297.3L34.9,297.3Z M19.4,292.1L19.1,291.4L18.9,291.6L19.4,292.1Z M426.7,185.0L426.2,185.1L426.3,185.2L426.7,185.0Z M34.3,295.9L34.1,294.9L33.9,295.2L34.3,295.9Z M35.0,295.7L34.5,295.4L34.7,295.9L35.0,295.7Z M316.7,267.5L316.5,267.1L316.4,267.1L316.7,267.5Z M32.9,293.8L32.4,293.9L32.4,294.1L32.9,293.8Z M425.4,183.0L425.1,183.0L425.0,183.2L425.4,183.0Z M424.8,183.1L424.8,182.8L424.2,183.0L424.8,183.1Z M31.2,291.4L31.4,291.1L31.2,291.0L31.2,291.4Z M33.1,291.6L31.7,292.1L31.5,292.9L33.1,291.6Z M35.1,291.1L34.3,290.4L34.3,290.5L35.1,291.1Z M419.5,183.2L418.6,184.4L419.6,184.9L419.5,183.2Z M323.5,257.5L322.5,258.1L321.5,259.4L323.5,257.5Z M35.5,290.7L37.4,289.1L37.4,288.5L35.5,290.7Z M329.3,247.9L329.9,245.9L330.0,245.1L329.3,247.9Z M319.6,246.4L319.8,247.2L319.9,246.3L319.6,246.4Z M398.8,186.4L398.2,186.6L399.7,187.1L398.8,186.4Z M330.1,239.4L329.7,239.1L329.9,239.5L330.1,239.4Z M323.7,240.8L323.3,241.1L323.3,241.4L323.7,240.8Z M393.7,187.0L395.1,186.9L395.0,185.9L393.7,187.0Z M325.1,239.2L324.9,238.7L324.8,239.1L325.1,239.2Z M319.6,242.6L318.8,242.2L319.2,245.0L319.6,242.6Z M314.8,245.1L313.6,245.5L313.1,247.5L314.8,245.1Z M394.8,184.6L394.7,185.3L396.1,184.4L394.8,184.6Z M317.7,240.1L317.2,240.2L317.2,240.3L317.7,240.1Z M315.7,241.2L316.2,248.8L318.0,247.9L315.7,241.2Z M311.8,242.2L311.8,241.3L311.6,241.2L311.8,242.2Z M311.4,240.2L312.0,241.5L312.1,240.9L311.4,240.2Z M391.6,181.7L391.3,183.0L392.4,182.0L391.6,181.7Z M325.6,230.8L325.3,230.2L324.8,229.8L325.6,230.8Z M316.4,233.5L316.2,233.1L316.0,233.7L316.4,233.5Z M385.3,178.5L385.1,179.3L386.1,179.6L385.3,178.5Z M309.0,234.5L308.4,234.6L309.1,235.8L309.0,234.5Z M383.0,176.2L382.6,176.7L383.6,177.2L383.0,176.2Z M315.0,223.0L314.0,222.9L313.3,223.0L315.0,223.0Z M358.4,192.6L357.4,191.8L357.4,192.1L358.4,192.6Z M308.8,222.0L308.5,222.3L310.0,222.4L308.8,222.0Z M306.7,221.1L306.2,220.7L306.5,221.0L306.7,221.1Z M348.1,192.1L348.0,191.4L347.8,191.7L348.1,192.1Z M296.4,219.1L296.1,219.3L296.3,219.3L296.4,219.1Z M295.2,217.5L295.2,217.1L295.2,217.0L295.2,217.5Z M295.7,216.8L295.6,216.6L295.6,216.8L295.7,216.8Z M355.3,165.7L355.6,166.9L356.3,166.6L355.3,165.7Z M354.4,164.8L354.1,164.3L354.2,164.8L354.4,164.8Z M332.3,178.4L332.0,177.6L331.9,177.7L332.3,178.4Z M347.0,157.3L348.0,159.4L348.2,160.0L347.0,157.3Z M342.1,158.8L341.7,159.5L343.0,159.1L342.1,158.8Z M319.1,176.6L319.2,176.5L318.9,176.8L319.1,176.6Z M229.9,219.0L229.1,219.4L230.2,219.7L229.9,219.0Z M231.3,213.6L230.4,213.8L230.8,213.8L231.3,213.6Z M341.1,149.9L341.1,151.5L342.6,150.9L341.1,149.9Z M292.5,184.6L292.5,185.1L292.8,185.1L292.5,184.6Z M340.3,150.4L339.6,150.5L339.6,150.9L340.3,150.4Z M236.4,208.9L235.5,209.2L236.0,209.2L236.4,208.9Z M304.7,175.5L304.7,176.2L306.7,175.8L304.7,175.5Z M333.4,152.4L332.1,152.4L332.2,152.6L333.4,152.4Z M273.2,190.7L268.2,195.5L271.0,200.0L273.2,190.7Z M331.3,152.9L330.0,152.4L330.6,153.0L331.3,152.9Z M325.1,153.0L324.2,152.6L325.3,153.3L325.1,153.0Z M235.8,200.9L235.0,200.6L235.4,201.0L235.8,200.9Z M233.9,200.4L234.8,200.7L235.2,200.2L233.9,200.4Z M336.8,141.9L337.1,142.5L338.0,142.4L336.8,141.9Z M289.3,173.8L291.2,175.6L292.3,175.4L289.3,173.8Z M334.1,139.2L333.7,138.4L333.3,138.8L334.1,139.2Z M332.0,139.3L332.5,140.3L334.2,140.2L332.0,139.3Z M300.5,159.7L300.6,160.5L300.9,160.5L300.5,159.7Z M288.1,167.3L287.9,167.5L288.3,167.8L288.1,167.3Z M298.1,158.2L297.6,157.6L298.6,160.0L298.1,158.2Z M324.3,134.9L324.1,136.3L324.1,137.3L324.3,134.9Z M315.0,134.7L314.7,134.6L314.7,134.9L315.0,134.7Z M235.2,180.0L235.5,180.1L235.4,179.8L235.2,180.0Z M310.8,132.8L309.9,133.4L309.9,133.6L310.8,132.8Z M255.6,166.6L254.4,167.0L254.6,167.1L255.6,166.6Z M247.6,170.8L251.7,187.5L260.5,194.0L262.4,182.8L269.8,179.2L247.6,170.8Z M310.4,129.4L309.8,129.8L310.2,130.1L310.4,129.4Z M248.2,167.7L248.1,167.4L247.9,167.5L248.2,167.7Z M253.7,165.2L253.4,165.1L253.6,165.4L253.7,165.2Z M254.1,162.1L253.4,162.0L253.7,162.7L254.1,162.1Z M243.3,165.5L243.2,165.3L243.0,165.5L243.3,165.5Z M157.1,181.7L157.3,180.2L157.2,180.3L157.1,181.7Z M158.9,179.3L158.0,178.1L158.0,178.6L158.9,179.3Z M310.9,110.3L310.8,111.3L311.6,110.0L310.9,110.3Z M156.7,176.3L155.8,176.4L156.3,176.6L156.7,176.3Z M154.7,174.9L154.3,175.3L155.1,175.5L154.7,174.9Z M309.1,109.6L307.9,109.4L308.0,109.8L309.1,109.6Z M151.9,172.5L151.7,172.9L152.0,172.7L151.9,172.5Z M132.5,171.9L132.1,172.0L133.0,172.1L132.5,171.9Z M135.8,171.5L135.2,171.8L134.5,171.8L135.8,171.5Z M155.7,171.3L155.2,170.8L155.0,171.1L155.7,171.3Z M189.7,165.0L189.3,165.3L189.7,165.8L189.7,165.0Z M148.0,170.1L148.5,169.3L147.4,170.1L148.0,170.1Z M137.8,169.4L137.4,169.1L137.2,169.4L137.8,169.4Z M274.7,129.6L276.1,132.4L277.6,131.4L274.7,129.6Z M235.5,152.3L233.4,149.3L232.9,149.4L235.5,152.3Z M141.9,168.6L142.5,167.8L142.4,167.7L141.9,168.6Z M259.2,138.0L258.5,136.3L257.9,136.8L259.2,138.0Z M185.1,163.7L184.8,163.3L184.5,163.4L185.1,163.7Z M274.1,128.0L273.2,126.7L272.3,126.4L274.1,128.0Z M145.5,165.9L145.0,165.3L144.2,165.7L145.5,165.9Z M145.7,165.0L145.5,165.5L146.1,165.2L145.7,165.0Z M134.1,164.8L133.8,164.6L133.4,164.6L134.1,164.8Z M258.2,133.2L258.6,135.1L258.9,133.7L258.2,133.2Z M271.2,126.0L269.7,126.2L270.2,126.6L271.2,126.0Z M133.0,164.5L132.6,163.9L132.5,163.9L133.0,164.5Z M270.1,126.9L270.6,128.4L271.1,128.9L270.1,126.9Z M287.4,110.8L288.3,110.7L289.4,110.5L287.4,110.8Z M178.0,159.8L176.6,160.8L176.8,161.5L178.0,159.8Z M132.0,162.0L132.0,161.8L131.7,161.7L132.0,162.0Z M184.1,157.1L183.7,155.7L183.1,156.5L184.1,157.1Z M217.7,146.3L217.6,146.2L218.3,146.8L217.7,146.3Z M254.6,126.3L254.9,132.7L256.0,130.6L254.6,126.3Z M58.4,142.4L58.7,143.6L59.0,143.2L58.4,142.4Z M244.3,131.5L244.1,132.3L244.6,131.8L244.3,131.5Z M216.9,143.6L216.1,144.6L217.0,145.3L216.9,143.6Z M258.7,123.6L257.9,124.1L258.8,125.8L258.7,123.6Z M58.2,141.2L58.0,141.5L58.2,141.8L58.2,141.2Z M194.5,148.6L196.6,149.0L196.0,148.3L194.5,148.6Z M285.3,102.5L284.5,102.6L284.9,103.7L285.3,102.5Z M197.7,147.2L197.2,149.5L198.9,149.8L197.7,147.2Z M48.1,136.3L47.4,135.3L47.0,136.4L48.1,136.3Z M59.0,140.8L59.7,140.2L59.5,140.1L59.0,140.8Z M282.8,102.6L282.7,103.2L283.8,104.2L282.8,102.6Z M175.3,151.3L175.1,150.6L174.8,150.8L175.3,151.3Z M248.7,124.7L245.8,127.0L246.0,127.8L248.7,124.7Z M240.3,129.7L240.1,129.5L240.2,130.0L240.3,129.7Z M236.9,131.1L235.8,131.7L236.8,131.8L236.9,131.1Z M210.0,141.4L209.9,140.8L209.8,141.1L210.0,141.4Z M211.2,140.9L210.7,141.2L210.4,141.5L211.2,140.9Z M191.8,148.8L186.1,157.1L192.7,158.3L191.8,148.8Z M191.2,145.7L190.7,145.3L190.7,145.8L191.2,145.7Z M224.6,132.8L226.7,133.4L225.9,132.4L224.6,132.8Z M96.0,145.1L95.5,145.1L95.9,145.2L96.0,145.1Z M137.2,147.9L136.9,147.6L136.5,147.6L137.2,147.9Z M178.9,144.7L178.8,144.0L178.5,144.3L178.9,144.7Z M141.6,147.6L139.5,147.3L140.1,147.7L141.6,147.6Z M124.9,145.4L124.1,145.1L124.4,145.5L124.9,145.4Z M126.1,145.0L125.4,144.9L125.4,145.2L126.1,145.0Z M125.1,144.6L124.7,144.6L124.4,144.8L125.1,144.6Z M124.0,144.7L123.4,144.5L122.6,144.4L124.0,144.7Z M263.7,100.0L264.8,102.4L265.2,100.9L263.7,100.0Z M258.0,99.5L257.7,99.7L258.1,100.2L258.0,99.5Z M258.3,97.7L257.6,96.8L257.2,97.2L258.3,97.7Z M192.9,125.3L192.5,126.4L193.0,126.2L192.9,125.3Z M396.1,332.0L407.0,303.9L408.8,286.8L402.7,286.7L409.3,273.1L412.8,254.8L436.4,235.3L443.8,225.8L448.8,198.2L423.0,182.8L407.5,191.1L404.1,186.4L360.3,167.9L360.5,187.9L354.1,202.9L350.3,191.3L346.9,194.6L333.5,176.2L307.6,178.6L293.7,184.0L292.6,188.4L309.1,222.0L316.2,223.3L329.5,236.0L323.0,259.5L333.9,273.3L337.7,288.2L335.4,292.7L323.5,287.9L308.9,266.9L277.0,266.3L257.4,260.8L246.3,265.7L238.9,251.1L230.4,250.5L227.0,239.3L228.7,220.8L236.7,205.9L230.0,200.0L244.0,184.2L244.7,168.0L254.8,158.8L255.1,148.1L246.0,142.0L249.5,137.7L240.4,131.3L235.8,140.2L236.1,154.5L220.3,144.0L220.1,153.7L209.8,138.0L192.8,124.3L191.2,134.0L203.9,154.4L200.4,162.1L178.1,170.5L163.5,160.9L158.6,182.0L151.2,173.3L132.8,168.4L129.5,161.9L96.8,149.7L92.9,151.6L86.6,138.9L78.0,143.8L56.3,146.9L41.6,132.6L9.4,199.5L3.2,219.8L25.1,235.4L40.8,279.9L35.2,299.7L41.5,301.4L41.6,318.3L50.6,326.5L42.4,330.0L61.5,341.3L59.5,345.5L69.9,357.3L123.5,362.5L136.7,362.7L193.5,359.5L246.7,350.1L251.5,345.0L262.6,351.0L288.9,348.6L306.3,333.4L318.2,337.9L332.1,350.0L353.8,344.3L364.8,355.2L358.8,357.0L358.4,385.7L363.1,377.3L378.7,366.3L371.7,365.3L396.1,332.0Z M145.0,124.9L144.9,124.6L144.7,124.6L145.0,124.9Z M145.5,124.3L145.5,124.0L145.2,124.2L145.5,124.3Z M188.8,116.3L188.4,115.6L188.3,115.8L188.8,116.3Z M133.9,117.5L124.3,121.0L117.7,131.9L128.4,144.7L121.6,150.2L136.7,165.9L146.7,165.0L160.1,155.0L172.3,160.2L177.5,157.7L176.9,146.3L165.9,139.4L151.8,119.8L153.6,128.8L133.9,117.5Z M153.0,114.4L152.2,113.9L151.9,114.8L153.0,114.4Z M162.0,116.2L157.8,117.6L159.8,120.1L162.0,116.2Z M210.4,97.8L211.2,124.9L219.8,124.7L229.1,132.3L246.9,118.6L263.5,122.2L264.9,128.4L280.1,128.2L290.0,160.6L281.7,157.5L282.0,168.9L298.8,156.7L328.8,163.7L340.9,159.1L339.3,151.1L326.9,136.5L318.8,137.6L305.9,131.5L305.4,126.2L323.2,113.4L284.1,104.8L276.1,96.9L264.2,105.0L261.5,95.9L246.9,94.8L232.8,105.6L224.2,93.2L216.5,101.0L225.2,118.1L210.4,97.8Z M174.5,108.3L174.6,119.9L168.3,121.2L181.8,133.0L188.9,126.3L182.6,109.7L174.5,108.3Z M180.1,105.3L176.2,108.4L177.2,108.7L180.1,105.3Z M193.3,101.6L188.4,113.8L198.8,114.4L200.6,102.3L193.3,101.6Z M114.3,103.4L103.2,118.0L104.0,137.0L113.1,133.7L124.3,119.6L125.2,107.8L114.3,103.4Z M179.8,99.9L179.2,101.5L179.5,101.0L179.8,99.9Z M184.9,98.8L183.9,98.5L184.1,99.6L184.9,98.8Z M161.6,96.3L158.7,98.2L161.6,98.6L161.6,96.3Z M179.6,89.2L178.6,92.2L179.4,89.9L179.6,89.2Z M117.3,91.9L118.1,90.2L117.7,90.3L117.3,91.9Z M164.7,89.0L162.4,90.0L162.0,91.6L164.7,89.0Z M184.0,86.8L184.1,86.7L182.1,85.5L184.0,86.8Z M126.3,89.0L121.4,93.7L122.8,94.6L126.3,89.0Z M162.8,86.3L159.7,88.9L163.0,87.8L162.8,86.3Z M192.7,76.4L192.7,76.8L193.1,76.7L192.7,76.4Z M205.1,71.7L205.0,71.3L204.6,71.7L205.1,71.7Z M172.0,80.5L170.6,96.8L177.7,94.8L172.0,80.5Z M167.4,81.0L165.8,81.2L165.5,81.9L167.4,81.0Z M192.1,76.2L189.9,73.6L189.5,75.0L192.1,76.2Z M147.9,82.3L134.8,86.0L126.8,94.4L141.4,105.4L154.0,100.2L155.6,90.0L147.9,82.3Z M136.1,81.9L133.3,83.0L136.4,83.3L136.1,81.9Z M178.2,75.4L202.7,93.8L222.5,83.8L213.4,74.6L204.5,82.4L178.2,75.4Z M130.9,75.8L115.2,88.7L130.9,83.4L130.9,75.8Z M198.1,63.5L197.6,62.4L196.9,62.6L198.1,63.5Z M175.6,68.2L175.3,71.4L180.6,69.8L175.6,68.2Z M164.0,71.2L160.8,71.8L161.4,72.1L164.0,71.2Z M145.1,70.0L137.6,71.6L139.8,77.5L145.1,70.0Z M158.9,68.1L159.2,66.8L158.7,66.7L158.9,68.1Z M187.9,57.0L187.9,58.5L188.0,59.0L187.9,57.0Z M143.2,63.3L137.7,66.6L145.4,67.6L143.2,63.3Z M211.0,41.9L210.0,41.5L210.0,42.0L211.0,41.9Z M155.8,56.4L154.2,65.1L162.9,66.8L155.8,56.4Z M161.9,47.6L163.7,51.1L164.1,50.4L161.9,47.6Z M167.0,40.3L166.6,41.0L167.8,41.1L167.0,40.3Z M169.3,33.3L166.6,42.6L178.7,50.6L177.2,59.1L188.2,50.4L185.3,45.2L169.3,33.3Z M195.5,0.0L175.5,20.5L175.9,35.6L180.2,36.6L193.9,27.2L185.3,44.0L191.7,47.9L196.7,64.5L190.4,63.3L192.0,75.6L212.7,71.2L204.7,60.5L205.4,12.6L201.2,0.9L195.5,0.0Z "/></g><g class="" fill="#F27E30" id="location" stroke="#F27E30" stroke-width="10px"><circle cx="58.0037996604" cy="344.021536139" r="2"/></g></svg>