<?xml version="1.0" encoding="utf-8"?><!DOCTYPE svg  PUBLIC '-//W3C//DTD SVG 1.1//EN'  'http://www.w3.org/Graphics/SVG/1.1/DTD/svg11.dtd'><svg enable_background="new 0 0 500 1361" height="1361px" pretty_print="False" style="stroke-linejoin: round; stroke:#000; fill: none;" version="1.1" viewBox="0 0 500 1361" width="500px" xmlns="http://www.w3.org/2000/svg" xmlns:xlink="http://www.w3.org/1999/xlink"><defs><style type="text/css"><![CDATA[path { fill-rule: evenodd; }]]></style></defs><metadata><views><view h="1361.34447394" padding="0.01" w="500"><proj id="laea" lat0="31.4473260329" lon0="34.6638323952"/><bbox h="48.75" w="17.92" x="994.94" y="975.58"/></view></views></metadata><g class="" fill="none" id="country" stroke="gray" stroke-width="4px"><path d="M87.8,634.1L102.2,648.5L101.6,655.8L87.5,667.7L54.3,699.5L47.9,711.6L49.3,735.2L39.0,746.3L19.1,761.8L22.1,771.2L42.7,836.6L87.1,954.8L93.5,982.2L95.9,1002.3L103.5,1013.0L100.6,1028.0L102.8,1041.2L119.0,1055.5L161.2,1172.7L164.5,1199.5L189.3,1267.8L197.1,1303.2L196.6,1327.0L208.1,1354.3L220.4,1344.7L230.0,1321.2L242.6,1270.6L267.2,1167.0L279.9,1147.8L284.7,1136.2L284.6,1125.3L278.4,1104.3L283.3,1070.6L288.7,1059.0L282.7,1030.6L287.7,1016.6L301.7,966.2L321.1,922.5L335.8,872.1L354.2,846.8L356.0,825.9L367.5,802.6L356.2,795.4L354.7,785.3L347.4,773.7L345.8,761.8L364.4,729.8L359.5,715.4L355.6,684.1L357.6,671.6L356.7,666.3L337.6,676.4L305.7,703.3L288.6,709.8L251.9,709.7L211.0,714.8L204.5,709.9L201.1,698.4L205.3,686.8L218.5,664.6L221.5,634.5L232.1,617.8L276.6,582.3L294.6,578.3L297.7,560.8L292.7,557.8L250.8,546.5L245.6,552.1L226.4,552.6L226.0,540.7L241.9,533.3L232.5,508.4L228.0,421.2L239.3,410.7L241.9,398.5L239.3,375.0L245.4,372.0L252.0,341.1L257.7,331.1L282.9,315.6L303.8,305.9L312.1,312.7L344.3,314.5L353.0,319.9L357.2,347.2L402.1,357.3L400.9,355.1L397.4,348.7L405.2,329.9L399.1,308.8L405.4,292.5L404.5,283.7L410.8,258.9L423.0,255.8L452.9,234.4L479.8,204.0L480.8,190.9L494.9,163.6L482.2,115.4L483.0,110.8L472.2,106.4L478.3,89.4L477.3,79.4L470.7,75.5L469.4,59.4L459.2,51.2L468.7,37.4L457.7,30.0L470.8,21.0L472.3,14.5L447.8,32.3L444.0,32.7L406.5,58.7L399.5,48.5L387.9,69.2L387.3,86.2L376.7,115.7L337.9,126.9L320.1,111.3L291.7,117.4L268.6,115.7L261.0,146.8L256.7,195.1L246.6,206.1L223.4,210.5L221.9,241.3L215.3,269.4L211.1,297.7L191.9,394.1L155.4,507.4L125.5,571.4L87.8,634.1L87.8,634.1Z "/><path d="M87.1,635.8L76.7,650.8L54.6,673.6L48.8,684.1L35.0,694.4L29.0,705.0L11.7,722.2L13.9,745.4L19.1,761.8L39.0,746.3L49.3,735.2L47.9,711.6L54.3,699.5L87.5,667.7L101.6,655.8L102.2,648.5L87.8,634.1L87.1,635.8Z M355.2,657.2L359.4,626.9L379.2,582.6L388.1,573.8L401.0,570.3L400.2,545.0L392.6,485.7L393.4,463.9L398.3,459.8L405.9,407.9L403.6,381.8L400.9,376.7L403.0,359.9L402.1,357.3L357.2,347.2L353.0,319.9L344.3,314.5L312.1,312.7L303.8,305.9L282.9,315.6L257.7,331.1L252.0,341.1L245.4,372.0L239.3,375.0L241.9,398.5L239.3,410.7L228.0,421.2L232.5,508.4L241.9,533.3L226.0,540.7L226.4,552.6L245.6,552.1L250.8,546.5L292.7,557.8L297.7,560.8L294.6,578.3L276.6,582.3L232.1,617.8L221.5,634.5L218.5,664.6L205.3,686.8L201.1,698.4L204.5,709.9L211.0,714.8L251.9,709.7L288.6,709.8L305.7,703.3L337.6,676.4L356.7,666.3L355.2,657.2Z "/></g><g class="" fill="#F27E30" id="location" stroke="#F27E30" stroke-width="10px"><circle cx="298.002686374" cy="524.746136642" r="2"/></g></svg>