<?xml version="1.0" encoding="utf-8"?><!DOCTYPE svg  PUBLIC '-//W3C//DTD SVG 1.1//EN'  'http://www.w3.org/Graphics/SVG/1.1/DTD/svg11.dtd'><svg enable_background="new 0 0 500 477" height="477px" pretty_print="False" style="stroke-linejoin: round; stroke:#000; fill: none;" version="1.1" viewBox="0 0 500 477" width="500px" xmlns="http://www.w3.org/2000/svg" xmlns:xlink="http://www.w3.org/1999/xlink"><defs><style type="text/css"><![CDATA[path { fill-rule: evenodd; }]]></style></defs><metadata><views><view h="477.345727777" padding="0.01" w="500"><proj id="laea" lat0="26.342579244" lon0="17.2316144203"/><bbox h="171.79" w="180.32" x="911.35" y="912.49"/></view></views></metadata><g class="" fill="none" id="country" stroke="gray" stroke-width="4px"><path d="M476.0,53.3L470.3,43.0L424.3,38.0L414.6,32.9L416.4,28.6L393.6,16.2L379.2,15.7L341.8,28.7L328.0,42.1L325.1,63.2L331.0,74.7L319.9,99.1L297.1,107.4L268.9,88.6L248.7,80.2L220.3,75.3L191.6,49.8L187.0,35.2L166.2,30.4L159.3,24.4L131.7,15.8L105.6,17.8L82.6,5.1L81.8,26.7L38.2,63.1L41.5,74.7L39.3,86.5L11.3,105.8L25.1,140.5L22.1,171.8L25.8,183.8L20.6,215.9L20.1,230.1L9.0,234.7L6.0,242.7L23.1,270.5L23.0,286.8L67.8,307.5L81.1,335.3L128.1,348.5L151.2,368.2L206.8,340.9L315.0,398.3L350.7,416.3L451.1,464.8L463.1,466.2L462.6,453.4L491.5,392.0L487.8,323.7L476.7,138.1L465.8,104.5L473.3,84.5L468.7,71.3L476.0,53.3Z "/></g><g class="" fill="#F27E30" id="location" stroke="#F27E30" stroke-width="10px"><circle cx="129.89726284" cy="16.2548895957" r="2"/></g></svg>