<?xml version="1.0" encoding="utf-8"?><!DOCTYPE svg  PUBLIC '-//W3C//DTD SVG 1.1//EN'  'http://www.w3.org/Graphics/SVG/1.1/DTD/svg11.dtd'><svg enable_background="new 0 0 500 476" height="476px" pretty_print="False" style="stroke-linejoin: round; stroke:#000; fill: none;" version="1.1" viewBox="0 0 500 476" width="500px" xmlns="http://www.w3.org/2000/svg" xmlns:xlink="http://www.w3.org/1999/xlink"><defs><style type="text/css"><![CDATA[path { fill-rule: evenodd; }]]></style></defs><metadata><views><view h="476.872642333" padding="0" w="500"><proj id="laea" lat0="26.342579244" lon0="17.2316144203"/><bbox h="168.25" w="176.78" x="913.12" y="914.26"/></view></views></metadata><g class="" fill="none" id="country" stroke="gray" stroke-width="4px"><path d="M467.6,474.9L466.8,457.5L499.5,455.5L492.6,325.2L481.2,135.9L470.1,101.6L477.8,81.2L472.6,59.6L480.6,49.2L474.7,38.9L427.8,33.8L417.9,28.6L419.7,24.2L396.5,11.6L381.8,11.0L343.7,24.3L329.6,37.9L326.6,59.5L332.6,71.2L321.3,96.1L298.0,104.6L269.2,85.4L248.7,76.8L219.7,71.8L190.4,45.8L185.8,31.0L164.5,26.0L157.5,19.9L129.4,11.2L102.7,13.2L79.2,0.2L78.4,22.2L34.0,59.4L37.4,71.2L35.0,83.2L6.6,102.9L20.6,138.3L17.6,170.3L21.3,182.5L16.0,215.2L15.5,229.7L4.2,234.4L1.1,242.6L18.5,270.9L18.4,287.5L64.2,308.7L77.7,337.1L125.7,350.5L149.3,370.6L205.9,342.7L316.3,401.2L352.7,419.6L467.6,474.9Z "/></g><g class="" fill="#F27E30" id="location" stroke="#F27E30" stroke-width="10px"><circle cx="127.495464305" cy="11.5904597249" r="2"/></g></svg>