<?xml version="1.0" encoding="utf-8"?><!DOCTYPE svg  PUBLIC '-//W3C//DTD SVG 1.1//EN'  'http://www.w3.org/Graphics/SVG/1.1/DTD/svg11.dtd'><svg enable_background="new 0 0 500 327" height="327px" pretty_print="False" style="stroke-linejoin: round; stroke:#000; fill: none;" version="1.1" viewBox="0 0 500 327" width="500px" xmlns="http://www.w3.org/2000/svg" xmlns:xlink="http://www.w3.org/1999/xlink"><defs><style type="text/css"><![CDATA[path { fill-rule: evenodd; }]]></style></defs><metadata><views><view h="327.910879938" padding="0.01" w="500"><proj id="laea" lat0="37.2463646505" lon0="-99.6984278026"/><bbox h="667.29" w="1020.61" x="267.82" y="482.9"/></view></views></metadata><g class="" fill="none" id="country" stroke="gray" stroke-width="4px"><path d="M60.7,269.6L56.7,275.3L57.3,276.5L60.7,269.6Z M57.6,264.4L57.4,263.8L56.8,264.1L57.6,264.4Z M58.6,261.4L58.7,264.8L60.5,265.0L58.6,261.4Z M56.3,258.2L56.7,259.4L58.3,260.4L56.3,258.2Z M54.5,253.9L53.5,254.8L54.6,256.1L54.5,253.9Z M45.2,245.3L45.5,245.0L46.0,245.1L45.2,245.3Z M32.5,219.6L32.5,219.6L32.5,219.7L32.5,219.6Z M454.7,320.6L454.6,320.6L454.6,320.6L454.7,320.6Z M458.4,319.3L458.3,319.2L458.4,319.3L458.4,319.3Z M459.2,319.1L459.1,319.0L459.1,319.1L459.2,319.1Z M458.9,319.0L458.7,318.9L458.7,318.9L458.9,319.0Z M458.8,319.2L458.4,318.8L458.6,319.2L458.8,319.2Z M461.5,317.6L461.5,317.7L461.5,317.7L461.5,317.6Z M461.9,317.3L462.0,317.2L461.9,317.3L461.9,317.3Z M25.1,199.7L25.1,199.6L25.1,199.6L25.1,199.7Z M459.7,315.2L459.8,315.0L459.6,315.0L459.7,315.2Z M459.4,314.9L459.5,315.0L459.5,315.0L459.4,314.9Z M463.5,315.2L463.0,315.4L463.2,315.4L463.5,315.2Z M464.1,313.5L464.1,313.4L464.1,313.0L464.1,313.5Z M464.1,311.9L464.0,311.6L463.9,311.7L464.1,311.9Z M15.0,181.2L14.9,181.3L14.9,181.3L15.0,181.2Z M457.0,312.1L456.7,312.2L456.9,312.2L457.0,312.1Z M455.8,312.1L455.6,312.2L455.9,312.3L455.8,312.1Z M456.6,312.1L456.6,312.0L456.4,312.0L456.6,312.1Z M452.9,309.2L452.7,309.2L453.1,309.4L452.9,309.2Z M452.2,308.2L452.0,307.9L452.1,308.1L452.2,308.2Z M453.1,308.8L452.7,307.9L452.4,307.8L453.1,308.8Z M452.0,307.6L451.9,307.4L451.8,307.3L452.0,307.6Z M372.1,319.4L370.8,314.1L370.8,315.1L372.1,319.4Z M449.7,304.4L449.1,303.9L449.3,304.2L449.7,304.4Z M371.9,310.1L370.9,312.0L370.8,312.6L371.9,310.1Z M462.5,302.8L460.5,299.2L460.4,299.2L462.5,302.8Z M372.6,308.8L373.6,307.6L372.9,308.0L372.6,308.8Z M375.9,305.9L373.7,307.0L373.7,307.6L375.9,305.9Z M5.7,140.8L5.7,140.8L5.8,140.8L5.7,140.8Z M376.2,305.5L376.8,305.0L376.5,305.0L376.2,305.5Z M447.9,296.1L448.0,296.2L448.0,296.1L447.9,296.1Z M447.9,295.9L447.8,295.9L447.8,295.9L447.9,295.9Z M406.1,299.6L405.7,299.7L405.6,299.8L406.1,299.6Z M407.3,299.6L407.1,299.5L407.0,299.6L407.3,299.6Z M408.0,299.4L407.8,299.4L407.7,299.5L408.0,299.4Z M445.7,294.0L445.6,293.9L445.7,294.1L445.7,294.0Z M384.1,299.5L384.0,299.6L383.6,300.1L384.1,299.5Z M414.0,296.1L414.1,295.8L413.9,296.1L414.0,296.1Z M414.5,295.3L414.5,295.4L414.5,295.4L414.5,295.3Z M435.3,292.8L436.2,292.1L435.2,292.7L435.3,292.8Z M412.0,294.8L411.7,294.7L411.8,295.0L412.0,294.8Z M437.0,291.4L437.1,291.4L436.8,291.5L437.0,291.4Z M412.7,293.8L413.0,293.7L413.0,293.6L412.7,293.8Z M411.9,292.6L411.8,292.6L411.9,292.6L411.9,292.6Z M414.3,291.9L414.2,291.9L414.2,291.9L414.3,291.9Z M417.0,291.5L416.6,291.5L417.0,291.6L417.0,291.5Z M413.7,291.8L413.6,291.9L413.6,291.9L413.7,291.8Z M416.4,291.6L415.3,291.6L416.3,291.6L416.4,291.6Z M426.2,289.2L423.0,290.1L424.8,289.7L426.2,289.2Z M452.6,278.9L452.5,278.1L452.3,278.8L452.6,278.9Z M452.9,277.6L452.8,276.9L452.7,277.4L452.9,277.6Z M263.7,268.6L263.8,269.3L263.8,269.4L263.7,268.6Z M259.5,266.3L259.7,266.7L259.8,266.7L259.5,266.3Z M264.5,266.0L264.6,266.8L265.1,267.1L264.5,266.0Z M465.9,260.4L465.6,260.7L465.6,260.7L465.9,260.4Z M257.8,261.2L257.0,261.7L257.2,261.9L257.8,261.2Z M256.3,260.7L256.2,261.0L256.5,261.0L256.3,260.7Z M258.8,261.2L260.1,261.9L260.3,261.7L258.8,261.2Z M466.2,258.7L466.0,258.9L466.1,259.2L466.2,258.7Z M467.9,256.1L467.5,256.3L467.3,256.7L467.9,256.1Z M471.7,254.4L471.5,254.3L471.1,254.2L471.7,254.4Z M470.9,254.2L470.6,254.2L470.2,254.4L470.9,254.2Z M471.8,254.5L472.6,252.5L472.1,253.4L471.8,254.5Z M473.0,251.9L473.4,251.3L473.2,251.3L473.0,251.9Z M475.5,249.7L475.4,248.2L475.4,249.5L475.5,249.7Z M471.1,238.5L471.0,238.8L470.9,239.0L471.1,238.5Z M471.6,237.0L471.6,236.8L471.5,237.3L471.6,237.0Z M471.6,236.5L471.7,235.9L471.6,236.0L471.6,236.5Z M472.4,233.8L472.4,233.2L472.4,233.4L472.4,233.8Z M474.3,223.6L474.2,223.2L474.2,223.6L474.3,223.6Z M474.6,222.5L474.7,221.7L474.6,222.4L474.6,222.5Z M473.5,216.0L473.0,216.6L472.9,216.7L473.5,216.0Z M477.5,214.7L478.9,213.5L478.9,213.5L477.5,214.7Z M473.7,215.5L473.7,214.5L473.6,215.0L473.7,215.5Z M480.4,211.2L480.1,211.1L480.0,211.3L480.4,211.2Z M481.2,210.7L481.2,210.9L481.2,210.8L481.2,210.7Z M480.4,210.7L473.9,216.3L475.2,215.8L480.4,210.7Z M486.3,208.0L486.2,207.9L486.2,208.0L486.3,208.0Z M481.3,209.5L481.4,209.3L481.1,209.7L481.3,209.5Z M489.4,206.2L489.3,206.7L488.6,206.9L489.4,206.2Z M485.5,207.2L485.7,207.1L485.7,207.0L485.5,207.2Z M483.4,207.6L483.4,207.0L483.3,207.2L483.4,207.6Z M489.1,205.1L489.1,204.7L489.0,204.5L489.1,205.1Z M484.0,207.2L483.6,206.4L483.6,207.2L484.0,207.2Z M448.9,207.3L448.5,207.2L448.8,207.7L448.9,207.3Z M485.9,191.6L485.7,191.3L485.7,191.5L485.9,191.6Z M485.5,191.3L485.5,191.0L485.5,190.8L485.5,191.3Z M458.6,198.8L458.7,198.5L458.4,198.8L458.6,198.8Z M489.5,188.8L489.4,188.4L489.3,188.6L489.5,188.8Z M488.7,189.0L488.8,188.7L488.4,188.7L488.7,189.0Z M488.4,188.5L488.1,188.4L488.1,188.6L488.4,188.5Z M489.9,187.6L490.1,187.8L490.0,187.6L489.9,187.6Z M489.1,187.6L488.8,188.1L489.2,187.9L489.1,187.6Z M487.9,187.6L487.7,187.7L487.8,188.0L487.9,187.6Z M458.8,196.8L458.7,196.8L458.5,197.1L458.8,196.8Z M489.4,186.8L489.2,186.6L489.2,186.8L489.4,186.8Z M487.8,187.4L487.7,187.1L487.6,187.4L487.8,187.4Z M490.5,186.5L490.1,187.1L490.1,186.7L490.5,186.5Z M492.7,184.7L492.5,184.4L492.4,184.5L492.7,184.7Z M493.5,183.4L493.3,183.4L493.3,183.5L493.5,183.4Z M493.9,181.2L493.7,181.2L493.9,181.3L493.9,181.2Z M494.3,181.5L494.1,180.9L494.1,181.5L494.3,181.5Z M493.9,181.1L493.8,180.5L493.6,180.9L493.9,181.1Z M416.1,201.4L416.0,201.2L415.9,201.5L416.1,201.4Z M416.6,200.9L416.2,200.5L416.2,200.6L416.6,200.9Z M411.9,200.3L410.7,202.5L410.9,203.2L411.9,200.3Z M416.9,198.8L416.6,198.6L416.6,198.6L416.9,198.8Z M422.4,195.6L421.6,195.6L422.1,196.0L422.4,195.6Z M418.0,196.2L417.7,196.2L418.0,196.4L418.0,196.2Z M260.7,185.5L260.7,185.2L260.6,185.4L260.7,185.5Z M423.1,192.7L422.8,192.2L422.7,192.3L423.1,192.7Z M259.1,183.7L259.1,183.2L259.0,183.3L259.1,183.7Z M395.4,193.3L395.8,192.7L395.5,193.0L395.4,193.3Z M396.0,192.4L395.9,192.2L395.6,192.4L396.0,192.4Z M395.4,192.4L395.4,192.2L395.1,192.3L395.4,192.4Z M394.4,192.2L394.5,192.1L394.4,192.0L394.4,192.2Z M396.5,191.8L396.4,191.4L396.3,191.9L396.5,191.8Z M265.2,181.0L265.4,180.7L265.2,180.7L265.2,181.0Z M264.7,180.5L264.8,179.9L264.6,179.8L264.7,180.5Z M407.2,188.0L403.8,189.6L404.9,190.7L407.2,188.0Z M266.8,179.6L266.7,179.0L266.2,179.8L266.8,179.6Z M266.8,178.4L266.9,177.8L266.8,177.7L266.8,178.4Z M266.9,175.6L266.8,175.3L266.7,175.2L266.9,175.6Z M403.4,184.0L401.1,185.5L401.0,186.3L403.4,184.0Z M266.9,173.0L266.8,172.4L266.6,172.9L266.9,173.0Z M267.6,172.7L267.6,172.3L267.5,172.4L267.6,172.7Z M267.3,171.5L266.5,171.8L266.7,171.8L267.3,171.5Z M376.3,179.2L317.1,179.4L268.2,170.1L259.7,171.8L259.1,185.5L246.9,218.2L253.1,243.0L273.8,273.3L282.5,274.0L295.8,282.6L323.4,284.3L368.7,319.8L369.6,312.3L390.5,296.6L408.9,298.2L407.8,291.5L427.4,288.6L440.2,289.3L448.1,295.2L459.7,316.2L464.2,311.3L453.6,287.0L456.4,271.0L473.8,246.4L472.1,228.1L474.3,214.2L483.3,208.0L483.8,193.2L490.8,185.9L490.6,178.0L479.4,170.1L475.9,187.0L466.4,190.2L458.1,202.4L448.5,210.3L426.8,197.6L419.0,199.1L417.6,213.7L410.4,210.5L412.6,193.2L394.6,188.3L376.3,179.2Z M118.3,37.2L117.9,37.3L118.1,37.4L118.3,37.2Z M117.3,29.2L117.1,29.8L116.6,31.6L117.3,29.2Z M117.8,26.8L117.6,27.6L117.8,27.3L117.8,26.8Z M121.4,36.5L121.8,36.0L121.4,36.1L121.4,36.5Z M126.3,44.3L126.3,44.1L126.1,44.6L126.3,44.3Z M123.2,38.9L123.1,37.8L121.8,39.7L123.2,38.9Z M123.7,41.6L124.0,41.0L122.9,40.3L123.7,41.6Z M127.2,44.9L127.0,44.9L127.2,45.1L127.2,44.9Z M119.9,31.2L120.3,31.3L120.5,31.2L119.9,31.2Z M127.1,43.8L126.6,43.5L126.7,43.8L127.1,43.8Z M117.9,24.2L116.8,23.7L116.6,24.0L117.9,24.2Z M132.1,47.9L129.3,46.8L128.5,46.8L132.1,47.9Z M116.8,10.4L115.8,10.5L116.0,10.7L116.8,10.4Z M137.5,56.0L137.8,55.6L137.7,55.6L137.5,56.0Z M140.9,58.0L141.3,57.9L141.2,57.7L140.9,58.0Z M141.8,57.7L142.0,57.3L141.9,57.3L141.8,57.7Z M119.0,6.0L117.7,6.2L118.8,7.7L119.0,6.0Z M142.9,58.2L143.3,57.8L143.2,57.8L142.9,58.2Z M155.0,63.5L155.1,63.4L155.1,63.3L155.0,63.5Z M157.3,65.2L157.0,64.8L157.1,65.2L157.3,65.2Z M158.2,65.8L157.6,65.2L157.4,65.2L158.2,65.8Z M156.5,63.2L155.8,62.8L156.7,63.9L156.5,63.2Z M157.7,63.7L157.5,63.4L156.9,64.3L157.7,63.7Z M164.8,70.9L164.9,70.8L164.8,70.6L164.8,70.9Z M164.6,70.1L164.2,69.5L164.5,70.6L164.6,70.1Z M172.9,76.1L173.1,75.7L172.9,75.6L172.9,76.1Z M243.9,124.1L243.9,123.8L243.9,123.9L243.9,124.1Z M246.7,124.3L246.7,124.8L246.8,124.9L246.7,124.3Z M174.3,75.8L174.1,75.9L173.9,76.1L174.3,75.8Z M167.3,69.2L168.0,68.6L167.9,68.5L167.3,69.2Z M251.6,126.0L250.7,125.8L251.0,126.5L251.6,126.0Z M174.5,75.2L173.9,75.3L174.3,75.5L174.5,75.2Z M251.9,125.6L252.0,125.3L251.8,125.3L251.9,125.6Z M169.9,69.1L169.5,68.7L169.6,69.5L169.9,69.1Z M247.2,122.9L247.0,122.8L246.6,123.5L247.2,122.9Z M171.0,69.7L170.7,69.6L170.8,70.0L171.0,69.7Z M174.5,74.4L174.3,74.3L174.3,74.1L174.5,74.4Z M170.5,69.3L170.4,68.9L170.3,69.2L170.5,69.3Z M174.1,73.0L173.4,72.9L172.1,73.8L174.1,73.0Z M246.1,121.4L245.6,121.9L246.2,121.8L246.1,121.4Z M168.1,64.7L168.1,64.5L168.1,64.5L168.1,64.7Z M246.5,120.9L246.5,120.7L246.2,120.9L246.5,120.9Z M174.5,71.3L174.4,71.1L174.1,71.2L174.5,71.3Z M245.8,120.5L246.1,120.2L246.0,120.0L245.8,120.5Z M245.6,119.7L245.2,119.8L245.4,120.2L245.6,119.7Z M178.1,72.0L178.0,71.7L178.0,71.8L178.1,72.0Z M246.5,118.3L246.8,118.9L247.3,118.8L246.5,118.3Z M247.7,118.4L247.3,118.5L247.4,118.9L247.7,118.4Z M245.9,117.6L246.1,117.2L245.8,117.3L245.9,117.6Z M248.1,116.6L247.0,116.7L246.4,117.6L248.1,116.6Z M185.4,75.8L185.7,75.4L185.5,75.5L185.4,75.8Z M248.0,115.3L248.4,126.6L249.6,123.3L248.0,115.3Z M183.8,72.8L184.0,72.5L183.8,72.5L183.8,72.8Z M251.1,116.0L249.9,116.8L250.7,116.9L251.1,116.0Z M252.3,117.2L251.7,117.9L252.0,118.6L252.3,117.2Z M186.7,73.2L186.4,72.9L185.9,72.8L186.7,73.2Z M192.8,78.5L192.1,78.8L192.6,78.5L192.8,78.5Z M193.7,79.3L193.0,79.0L193.0,79.6L193.7,79.3Z M162.0,43.3L162.3,44.1L162.4,43.9L162.0,43.3Z M251.4,113.8L250.5,115.3L251.5,115.4L251.4,113.8Z M248.3,112.0L245.7,115.5L247.0,115.3L248.3,112.0Z M249.5,111.1L248.9,114.7L250.1,113.0L249.5,111.1Z M244.8,107.8L243.2,108.8L244.5,108.4L244.8,107.8Z M197.9,75.8L198.0,75.5L197.8,75.9L197.9,75.8Z M245.8,106.9L244.1,113.7L246.5,110.2L245.8,106.9Z M203.4,76.1L203.0,76.2L203.2,76.6L203.4,76.1Z M202.4,75.6L202.7,75.5L202.5,75.3L202.4,75.6Z M201.8,75.2L194.5,78.9L202.5,78.3L201.8,75.2Z M244.9,102.5L244.7,101.9L244.4,102.4L244.9,102.5Z M202.1,74.0L201.9,74.4L202.2,75.0L202.1,74.0Z M246.5,101.6L246.4,101.3L246.3,101.4L246.5,101.6Z M251.2,103.8L250.9,103.1L250.4,103.4L251.2,103.8Z M248.1,101.9L247.7,101.5L247.6,101.6L248.1,101.9Z M250.0,102.5L248.1,108.7L250.2,108.6L250.0,102.5Z M189.6,57.1L189.8,56.7L189.7,56.8L189.6,57.1Z M208.5,72.3L208.3,72.2L208.2,72.3L208.5,72.3Z M208.0,71.7L207.9,71.6L207.6,71.7L208.0,71.7Z M210.0,72.2L209.9,72.0L209.8,72.0L210.0,72.2Z M210.5,72.5L210.5,72.3L210.4,72.3L210.5,72.5Z M209.9,71.7L209.7,71.5L209.6,71.5L209.9,71.7Z M223.6,80.0L223.9,79.9L223.6,79.9L223.6,80.0Z M229.5,80.9L231.1,80.5L230.7,80.4L229.5,80.9Z M221.9,74.6L222.4,74.5L222.7,74.3L221.9,74.6Z M222.7,73.8L222.2,73.8L222.7,74.0L222.7,73.8Z M212.3,65.7L212.5,65.4L212.4,65.3L212.3,65.7Z M222.4,73.5L222.0,73.6L221.5,73.8L222.4,73.5Z M224.2,74.1L224.7,73.9L224.1,74.1L224.2,74.1Z M225.5,74.1L221.6,75.6L225.8,74.6L225.5,74.1Z M223.2,72.8L223.4,72.4L223.1,72.5L223.2,72.8Z M230.1,77.5L230.5,77.0L230.2,77.1L230.1,77.5Z M187.9,37.1L184.4,37.8L184.9,38.9L187.9,37.1Z M227.3,74.4L227.0,75.1L227.7,74.7L227.3,74.4Z M224.8,72.4L223.3,73.7L224.5,73.0L224.8,72.4Z M179.1,20.4L179.4,20.2L179.4,20.1L179.1,20.4Z M225.1,70.9L225.0,71.1L225.1,71.2L225.1,70.9Z M224.5,70.9L224.8,70.3L224.5,70.4L224.5,70.9Z M228.2,72.4L228.4,72.1L228.1,72.2L228.2,72.4Z M225.7,69.7L225.2,70.4L225.7,70.1L225.7,69.7Z M221.7,65.1L221.9,64.9L221.9,64.9L221.7,65.1Z M196.8,31.1L196.8,30.9L196.7,30.9L196.8,31.1Z M204.3,29.9L204.4,29.9L204.3,29.8L204.3,29.9Z M196.9,19.2L197.2,18.8L197.3,18.5L196.9,19.2Z M199.1,18.6L199.1,18.6L199.1,18.8L199.1,18.6Z M197.6,17.0L197.7,16.0L197.6,16.8L197.6,17.0Z M197.5,15.1L197.5,15.1L197.6,15.3L197.5,15.1Z M198.4,14.5L198.4,14.4L198.4,14.5L198.4,14.5Z M198.4,14.3L198.4,14.3L198.4,14.4L198.4,14.3Z M210.7,31.9L209.9,31.5L210.1,32.0L210.7,31.9Z M213.2,11.5L213.1,11.3L213.1,11.5L213.2,11.5Z M214.4,13.5L214.7,13.6L214.7,13.5L214.4,13.5Z M216.1,14.1L216.4,14.2L217.2,14.3L216.1,14.1Z M219.2,15.0L219.4,14.9L219.2,14.9L219.2,15.0Z M219.6,15.1L220.2,15.2L219.8,15.0L219.6,15.1Z M220.9,15.4L220.6,15.2L220.5,15.3L220.9,15.4Z M221.4,15.7L221.4,15.6L221.4,15.6L221.4,15.7Z M273.8,36.2L273.7,35.8L273.5,35.2L273.8,36.2Z M242.0,7.4L243.4,7.0L242.8,7.1L242.0,7.4Z M243.8,7.0L244.4,6.9L244.2,6.9L243.8,7.0Z M244.8,6.8L245.6,6.7L245.1,6.7L244.8,6.8Z M264.6,23.2L264.7,23.8L264.8,23.9L264.6,23.2Z M258.9,10.5L232.1,6.4L229.4,19.8L223.9,23.2L213.2,13.7L218.4,30.8L195.8,31.7L189.9,37.9L197.2,62.6L174.2,70.5L180.8,72.7L229.8,71.1L238.5,86.9L252.0,96.1L251.8,121.0L258.0,121.2L253.0,95.1L241.5,84.7L247.3,73.3L273.5,36.4L260.2,20.2L258.9,10.5Z "/></g><g class="" fill="#F27E30" id="location" stroke="#F27E30" stroke-width="10px"><circle cx="252.338164182" cy="236.342308542" r="2"/></g></svg>