<?xml version="1.0" encoding="utf-8"?><!DOCTYPE svg  PUBLIC '-//W3C//DTD SVG 1.1//EN'  'http://www.w3.org/Graphics/SVG/1.1/DTD/svg11.dtd'><svg enable_background="new 0 0 500 324" height="324px" pretty_print="False" style="stroke-linejoin: round; stroke:#000; fill: none;" version="1.1" viewBox="0 0 500 324" width="500px" xmlns="http://www.w3.org/2000/svg" xmlns:xlink="http://www.w3.org/1999/xlink"><defs><style type="text/css"><![CDATA[path { fill-rule: evenodd; }]]></style></defs><metadata><views><view h="324.449097537" padding="0" w="500"><proj id="laea" lat0="37.2463646505" lon0="-99.6984278026"/><bbox h="647.28" w="1000.59" x="277.83" y="492.91"/></view></views></metadata><g class="" fill="none" id="country" stroke="gray" stroke-width="4px"><path d="M56.9,270.0L52.8,275.8L53.4,277.1L56.9,270.0Z M53.7,264.7L53.5,264.1L53.0,264.4L53.7,264.7Z M54.8,261.6L54.9,265.1L56.7,265.3L54.8,261.6Z M52.4,258.3L52.8,259.6L54.5,260.6L52.4,258.3Z M50.6,254.0L49.6,254.9L50.7,256.2L50.6,254.0Z M41.1,245.2L41.4,244.9L41.9,245.0L41.1,245.2Z M28.2,219.0L28.2,219.0L28.2,219.1L28.2,219.0Z M458.7,322.0L458.7,322.0L458.7,322.0L458.7,322.0Z M462.5,320.7L462.5,320.6L462.5,320.7L462.5,320.7Z M463.3,320.5L463.3,320.4L463.3,320.5L463.3,320.5Z M463.0,320.4L462.9,320.3L462.9,320.3L463.0,320.4Z M462.9,320.6L462.6,320.2L462.8,320.6L462.9,320.6Z M465.7,319.0L465.7,319.1L465.8,319.0L465.7,319.0Z M466.1,318.7L466.2,318.5L466.1,318.7L466.1,318.7Z M20.6,198.7L20.6,198.6L20.6,198.6L20.6,198.7Z M463.9,316.5L463.9,316.3L463.8,316.3L463.9,316.5Z M463.5,316.2L463.7,316.3L463.7,316.3L463.5,316.2Z M467.8,316.5L467.3,316.7L467.4,316.8L467.8,316.5Z M468.3,314.8L468.4,314.6L468.4,314.3L468.3,314.8Z M468.4,313.1L468.3,312.8L468.2,312.9L468.4,313.1Z M10.3,179.9L10.2,179.9L10.2,180.0L10.3,179.9Z M461.1,313.3L460.8,313.4L461.0,313.5L461.1,313.3Z M459.9,313.3L459.8,313.4L460.0,313.6L459.9,313.3Z M460.7,313.4L460.7,313.3L460.6,313.3L460.7,313.4Z M457.0,310.4L456.8,310.4L457.1,310.6L457.0,310.4Z M456.3,309.4L456.0,309.0L456.1,309.3L456.3,309.4Z M457.2,310.0L456.8,309.0L456.5,308.9L457.2,310.0Z M456.0,308.8L455.9,308.5L455.9,308.4L456.0,308.8Z M374.6,320.8L373.2,315.4L373.2,316.4L374.6,320.8Z M453.6,305.5L453.1,305.0L453.3,305.2L453.6,305.5Z M374.3,311.4L373.3,313.2L373.2,313.9L374.3,311.4Z M466.8,303.9L464.7,300.2L464.6,300.2L466.8,303.9Z M375.1,310.0L376.0,308.7L375.4,309.2L375.1,310.0Z M378.4,307.0L376.2,308.1L376.1,308.7L378.4,307.0Z M0.8,138.6L0.8,138.7L0.9,138.6L0.8,138.6Z M378.7,306.6L379.3,306.1L379.1,306.1L378.7,306.6Z M451.9,297.0L452.0,297.1L452.0,297.0L451.9,297.0Z M451.8,296.9L451.8,296.8L451.8,296.8L451.8,296.9Z M409.2,300.6L408.8,300.7L408.7,300.8L409.2,300.6Z M410.5,300.6L410.2,300.5L410.2,300.6L410.5,300.6Z M411.1,300.4L410.9,300.4L410.8,300.5L411.1,300.4Z M449.6,294.9L449.5,294.8L449.6,294.9L449.6,294.9Z M386.7,300.5L386.7,300.6L386.2,301.1L386.7,300.5Z M417.2,297.0L417.4,296.8L417.2,297.0L417.2,297.0Z M417.8,296.2L417.8,296.3L417.8,296.3L417.8,296.2Z M439.0,293.6L439.9,293.0L438.9,293.6L439.0,293.6Z M415.3,295.7L415.0,295.6L415.1,295.9L415.3,295.7Z M440.8,292.3L440.9,292.2L440.5,292.3L440.8,292.3Z M416.0,294.7L416.2,294.6L416.2,294.5L416.0,294.7Z M415.1,293.4L415.0,293.5L415.1,293.5L415.1,293.4Z M417.6,292.7L417.5,292.7L417.5,292.7L417.6,292.7Z M420.3,292.4L419.9,292.4L420.3,292.4L420.3,292.4Z M417.0,292.6L416.8,292.7L416.9,292.8L417.0,292.6Z M419.7,292.4L418.6,292.4L419.7,292.5L419.7,292.4Z M429.7,290.0L426.5,290.9L428.3,290.5L429.7,290.0Z M456.6,279.5L456.6,278.6L456.4,279.4L456.6,279.5Z M457.0,278.2L456.8,277.5L456.7,277.9L457.0,278.2Z M263.9,269.0L264.1,269.6L264.1,269.8L263.9,269.0Z M259.6,266.6L259.9,267.0L260.0,267.0L259.6,266.6Z M264.8,266.4L264.8,267.1L265.4,267.5L264.8,266.4Z M470.2,260.6L469.9,260.9L469.9,261.0L470.2,260.6Z M257.9,261.5L257.1,262.0L257.4,262.2L257.9,261.5Z M256.4,261.0L256.3,261.2L256.6,261.2L256.4,261.0Z M259.0,261.5L260.3,262.2L260.5,262.0L259.0,261.5Z M470.5,258.9L470.3,259.1L470.4,259.4L470.5,258.9Z M472.3,256.2L471.8,256.5L471.6,256.8L472.3,256.2Z M476.1,254.5L475.9,254.4L475.5,254.3L476.1,254.5Z M475.3,254.3L475.0,254.3L474.6,254.5L475.3,254.3Z M476.2,254.6L477.1,252.6L476.5,253.4L476.2,254.6Z M477.5,251.9L477.9,251.4L477.7,251.3L477.5,251.9Z M480.0,249.7L479.9,248.1L479.9,249.5L480.0,249.7Z M475.5,238.2L475.4,238.6L475.4,238.8L475.5,238.2Z M476.0,236.7L476.0,236.5L475.9,237.0L476.0,236.7Z M476.0,236.3L476.1,235.6L476.0,235.8L476.0,236.3Z M476.8,233.5L476.9,232.9L476.8,233.1L476.8,233.5Z M478.8,223.1L478.7,222.7L478.7,223.1L478.8,223.1Z M479.1,222.0L479.2,221.1L479.0,221.9L479.1,222.0Z M477.9,215.3L477.5,215.9L477.4,216.1L477.9,215.3Z M482.0,214.0L483.5,212.8L483.5,212.8L482.0,214.0Z M478.1,214.8L478.2,213.8L478.1,214.3L478.1,214.8Z M485.0,210.4L484.7,210.3L484.6,210.5L485.0,210.4Z M485.8,209.9L485.8,210.2L485.9,210.0L485.8,209.9Z M485.0,209.9L478.4,215.6L479.7,215.1L485.0,209.9Z M491.0,207.2L491.0,207.1L490.9,207.2L491.0,207.2Z M486.0,208.7L486.1,208.5L485.7,208.9L486.0,208.7Z M494.2,205.3L494.0,205.9L493.3,206.1L494.2,205.3Z M490.2,206.4L490.4,206.3L490.4,206.2L490.2,206.4Z M488.1,206.8L488.0,206.1L487.9,206.4L488.1,206.8Z M493.8,204.2L493.8,203.8L493.8,203.6L493.8,204.2Z M488.7,206.3L488.3,205.6L488.3,206.3L488.7,206.3Z M452.9,206.4L452.4,206.4L452.8,206.8L452.9,206.4Z M490.6,190.5L490.4,190.1L490.4,190.3L490.6,190.5Z M490.2,190.2L490.2,189.9L490.2,189.7L490.2,190.2Z M462.8,197.8L462.8,197.5L462.6,197.8L462.8,197.8Z M494.2,187.6L494.2,187.2L494.1,187.4L494.2,187.6Z M493.5,187.8L493.5,187.5L493.2,187.5L493.5,187.8Z M493.1,187.2L492.9,187.1L492.9,187.4L493.1,187.2Z M494.7,186.4L494.9,186.6L494.8,186.4L494.7,186.4Z M493.9,186.4L493.6,186.9L494.0,186.7L493.9,186.4Z M492.6,186.3L492.5,186.5L492.6,186.8L492.6,186.3Z M463.0,195.7L462.8,195.7L462.7,196.1L463.0,195.7Z M494.2,185.6L493.9,185.3L493.9,185.5L494.2,185.6Z M492.5,186.2L492.5,185.8L492.4,186.1L492.5,186.2Z M495.4,185.3L494.9,185.9L494.9,185.4L495.4,185.3Z M497.5,183.4L497.4,183.1L497.2,183.2L497.5,183.4Z M498.4,182.1L498.2,182.0L498.2,182.1L498.4,182.1Z M498.8,179.9L498.5,179.9L498.8,180.0L498.8,179.9Z M499.2,180.1L499.0,179.5L498.9,180.1L499.2,180.1Z M498.8,179.7L498.7,179.1L498.5,179.5L498.8,179.7Z M419.4,200.5L419.3,200.2L419.3,200.5L419.4,200.5Z M419.9,199.9L419.6,199.5L419.5,199.6L419.9,199.9Z M415.1,199.4L413.9,201.6L414.1,202.3L415.1,199.4Z M420.2,197.8L419.9,197.6L419.9,197.6L420.2,197.8Z M425.8,194.5L425.0,194.6L425.5,194.9L425.8,194.5Z M421.3,195.2L421.1,195.2L421.4,195.3L421.3,195.2Z M260.9,184.2L260.9,183.9L260.8,184.1L260.9,184.2Z M426.5,191.6L426.2,191.1L426.1,191.1L426.5,191.6Z M259.2,182.4L259.2,181.9L259.2,181.9L259.2,182.4Z M398.3,192.2L398.7,191.6L398.4,191.8L398.3,192.2Z M399.0,191.2L398.8,191.0L398.5,191.2L399.0,191.2Z M398.3,191.3L398.3,191.1L398.0,191.2L398.3,191.3Z M397.3,191.1L397.3,190.9L397.3,190.8L397.3,191.1Z M399.4,190.6L399.3,190.2L399.2,190.7L399.4,190.6Z M265.5,179.6L265.7,179.3L265.5,179.3L265.5,179.6Z M264.9,179.1L265.1,178.5L264.9,178.4L264.9,179.1Z M410.3,186.7L406.8,188.4L408.0,189.5L410.3,186.7Z M267.1,178.2L267.0,177.6L266.6,178.4L267.1,178.2Z M267.1,177.0L267.2,176.4L267.2,176.2L267.1,177.0Z M267.2,174.1L267.2,173.8L267.1,173.8L267.2,174.1Z M406.5,182.6L404.1,184.2L404.0,185.0L406.5,182.6Z M267.2,171.5L267.2,170.9L266.9,171.4L267.2,171.5Z M268.0,171.1L268.0,170.8L267.9,170.9L268.0,171.1Z M267.7,170.0L266.9,170.2L267.1,170.3L267.7,170.0Z M373.5,322.4L372.0,313.6L393.3,297.6L412.0,299.2L410.9,292.3L431.0,289.4L444.0,290.1L452.0,296.1L463.9,317.5L468.0,306.7L457.7,287.7L460.5,271.4L478.2,246.3L476.5,227.6L478.8,213.5L487.9,207.2L488.5,192.1L495.6,184.7L495.4,176.6L484.0,168.5L480.4,185.7L470.7,189.0L462.2,201.5L452.5,209.5L430.3,196.6L422.4,198.1L420.9,213.0L413.6,209.7L413.0,200.3L396.7,191.7L394.4,184.7L378.9,180.0L318.4,178.0L268.6,168.5L259.9,170.2L259.3,184.2L246.8,217.6L253.1,242.8L274.3,273.8L283.2,274.5L300.9,285.5L324.9,285.0L341.9,303.0L350.2,298.4L361.9,315.2L373.5,322.4Z M115.7,33.0L115.2,33.0L115.5,33.2L115.7,33.0Z M114.7,24.8L114.4,25.4L113.9,27.2L114.7,24.8Z M115.1,22.4L115.0,23.1L115.1,22.8L115.1,22.4Z M118.8,32.2L119.2,31.8L118.9,31.8L118.8,32.2Z M123.8,40.2L123.9,40.0L123.7,40.5L123.8,40.2Z M120.7,34.7L120.6,33.6L119.2,35.5L120.7,34.7Z M121.1,37.4L121.5,36.8L120.4,36.1L121.1,37.4Z M124.8,40.8L124.6,40.8L124.8,41.0L124.8,40.8Z M117.3,26.8L117.7,26.9L118.0,26.8L117.3,26.8Z M124.6,39.7L124.2,39.4L124.2,39.7L124.6,39.7Z M115.2,19.7L114.1,19.2L114.0,19.4L115.2,19.7Z M129.8,43.9L126.9,42.7L126.1,42.8L129.8,43.9Z M114.2,5.6L113.1,5.7L113.3,5.9L114.2,5.6Z M135.3,52.1L135.6,51.8L135.4,51.7L135.3,52.1Z M138.8,54.1L139.1,54.0L139.1,53.8L138.8,54.1Z M139.7,53.8L139.9,53.5L139.8,53.4L139.7,53.8Z M115.6,0.0L116.2,2.9L116.6,2.0L115.6,0.0Z M140.7,54.4L141.1,54.0L141.1,53.9L140.7,54.4Z M153.1,59.8L153.2,59.7L153.2,59.5L153.1,59.8Z M155.5,61.5L155.1,61.1L155.2,61.6L155.5,61.5Z M156.4,62.1L155.8,61.5L155.6,61.5L156.4,62.1Z M154.7,59.5L153.9,59.1L154.9,60.2L154.7,59.5Z M155.9,60.0L155.7,59.7L155.1,60.6L155.9,60.0Z M163.1,67.3L163.2,67.3L163.1,67.1L163.1,67.3Z M162.9,66.5L162.5,65.9L162.8,67.0L162.9,66.5Z M171.3,72.6L171.5,72.2L171.4,72.2L171.3,72.6Z M243.8,121.5L243.8,121.3L243.7,121.4L243.8,121.5Z M246.7,121.8L246.7,122.3L246.8,122.4L246.7,121.8Z M172.7,72.3L172.6,72.4L172.4,72.6L172.7,72.3Z M165.6,65.6L166.3,65.0L166.2,64.9L165.6,65.6Z M251.6,123.5L250.7,123.4L251.0,124.0L251.6,123.5Z M173.0,71.7L172.4,71.9L172.8,72.0L173.0,71.7Z M251.9,123.2L252.1,122.8L251.9,122.8L251.9,123.2Z M168.3,65.5L167.9,65.1L168.0,65.9L168.3,65.5Z M247.2,120.3L246.9,120.3L246.5,121.0L247.2,120.3Z M169.4,66.1L169.1,66.0L169.2,66.4L169.4,66.1Z M173.0,70.9L172.8,70.8L172.8,70.6L173.0,70.9Z M168.9,65.7L168.8,65.3L168.7,65.6L168.9,65.7Z M172.6,69.5L171.9,69.4L170.5,70.3L172.6,69.5Z M246.0,118.8L245.5,119.3L246.1,119.2L246.0,118.8Z M166.5,61.0L166.5,60.8L166.4,60.8L166.5,61.0Z M246.4,118.4L246.4,118.2L246.2,118.3L246.4,118.4Z M173.0,67.7L172.9,67.5L172.6,67.6L173.0,67.7Z M245.7,117.9L246.0,117.6L246.0,117.5L245.7,117.9Z M245.5,117.1L245.1,117.2L245.3,117.6L245.5,117.1Z M176.6,68.5L176.6,68.2L176.5,68.2L176.6,68.5Z M246.4,115.7L246.8,116.3L247.2,116.2L246.4,115.7Z M247.6,115.8L247.3,115.8L247.4,116.3L247.6,115.8Z M245.8,115.0L246.0,114.6L245.7,114.6L245.8,115.0Z M248.0,114.0L246.9,114.1L246.4,115.0L248.0,114.0Z M184.2,72.3L184.4,72.0L184.2,72.1L184.2,72.3Z M248.0,112.6L248.4,124.1L249.6,120.7L248.0,112.6Z M182.5,69.2L182.6,68.9L182.5,68.9L182.5,69.2Z M251.1,113.4L249.9,114.2L250.7,114.3L251.1,113.4Z M252.4,114.5L251.7,115.2L252.0,115.9L252.4,114.5Z M185.5,69.7L185.1,69.4L184.6,69.3L185.5,69.7Z M191.6,75.1L190.9,75.4L191.4,75.1L191.6,75.1Z M192.5,75.9L191.9,75.5L191.8,76.2L192.5,75.9Z M160.3,39.2L160.6,40.0L160.6,39.8L160.3,39.2Z M251.4,111.0L250.5,112.6L251.5,112.8L251.4,111.0Z M248.2,109.2L245.6,112.8L246.9,112.6L248.2,109.2Z M249.5,108.3L248.9,112.0L250.1,110.2L249.5,108.3Z M244.7,104.9L243.1,106.0L244.4,105.5L244.7,104.9Z M196.9,72.4L196.9,72.0L196.8,72.4L196.9,72.4Z M245.7,104.0L244.0,111.0L246.5,107.4L245.7,104.0Z M202.4,72.7L202.1,72.7L202.3,73.2L202.4,72.7Z M201.5,72.2L201.8,72.0L201.5,71.8L201.5,72.2Z M200.9,71.7L193.4,75.4L201.6,74.8L200.9,71.7Z M244.8,99.6L244.6,99.0L244.3,99.4L244.8,99.6Z M201.2,70.5L201.0,70.9L201.2,71.5L201.2,70.5Z M246.4,98.6L246.4,98.3L246.2,98.4L246.4,98.6Z M251.2,100.9L250.9,100.2L250.4,100.5L251.2,100.9Z M248.1,99.0L247.7,98.5L247.6,98.7L248.1,99.0Z M250.0,99.6L248.1,105.9L250.2,105.8L250.0,99.6Z M188.4,53.2L188.6,52.8L188.5,52.9L188.4,53.2Z M207.6,68.7L207.4,68.7L207.4,68.8L207.6,68.7Z M207.1,68.1L207.1,68.0L206.7,68.2L207.1,68.1Z M209.2,68.6L209.1,68.4L209.0,68.5L209.2,68.6Z M209.7,69.0L209.7,68.7L209.6,68.8L209.7,69.0Z M209.1,68.1L208.9,67.9L208.8,68.0L209.1,68.1Z M223.1,76.6L223.3,76.5L223.1,76.6L223.1,76.6Z M229.1,77.5L230.7,77.1L230.3,77.0L229.1,77.5Z M221.4,71.1L221.8,71.0L222.2,70.8L221.4,71.1Z M222.1,70.3L221.6,70.3L222.2,70.5L222.1,70.3Z M211.5,62.1L211.8,61.7L211.6,61.6L211.5,62.1Z M221.8,70.0L221.4,70.1L221.0,70.3L221.8,70.0Z M223.7,70.6L224.2,70.4L223.6,70.6L223.7,70.6Z M225.0,70.6L221.0,72.2L225.3,71.1L225.0,70.6Z M222.7,69.3L222.8,68.9L222.6,68.9L222.7,69.3Z M229.7,74.0L230.1,73.6L229.8,73.6L229.7,74.0Z M186.7,32.9L183.0,33.6L183.6,34.7L186.7,32.9Z M226.8,71.0L226.5,71.6L227.3,71.3L226.8,71.0Z M224.3,68.8L222.7,70.2L224.0,69.5L224.3,68.8Z M177.7,15.8L178.0,15.6L178.0,15.5L177.7,15.8Z M224.6,67.3L224.5,67.5L224.6,67.6L224.6,67.3Z M224.0,67.3L224.3,66.7L224.0,66.8L224.0,67.3Z M227.8,68.9L228.0,68.6L227.7,68.6L227.8,68.9Z M225.2,66.1L224.7,66.8L225.3,66.5L225.2,66.1Z M221.1,61.4L221.4,61.2L221.3,61.2L221.1,61.4Z M195.8,26.7L195.7,26.5L195.6,26.6L195.8,26.7Z M203.4,25.5L203.5,25.5L203.3,25.4L203.4,25.5Z M195.9,14.6L196.1,14.2L196.2,13.9L195.9,14.6Z M198.1,14.0L198.1,14.0L198.1,14.1L198.1,14.0Z M196.5,12.4L196.7,11.3L196.6,12.1L196.5,12.4Z M196.5,10.5L196.4,10.4L196.5,10.6L196.5,10.5Z M197.4,9.8L197.4,9.8L197.4,9.8L197.4,9.8Z M197.4,9.6L197.3,9.6L197.4,9.8L197.4,9.6Z M209.9,27.6L209.1,27.1L209.3,27.7L209.9,27.6Z M212.4,6.7L212.4,6.6L212.4,6.7L212.4,6.7Z M213.7,8.8L214.0,8.9L214.0,8.8L213.7,8.8Z M215.5,9.4L215.7,9.5L216.6,9.6L215.5,9.4Z M218.6,10.3L218.8,10.2L218.6,10.2L218.6,10.3Z M219.0,10.4L219.6,10.5L219.2,10.4L219.0,10.4Z M220.3,10.7L220.0,10.6L219.9,10.6L220.3,10.7Z M220.9,11.0L220.8,11.0L220.8,11.0L220.9,11.0Z M274.2,32.0L274.2,31.6L274.0,30.9L274.2,32.0Z M241.9,2.5L243.3,2.2L242.7,2.2L241.9,2.5Z M243.7,2.2L244.3,2.0L244.1,2.0L243.7,2.2Z M244.6,2.0L245.5,1.9L245.0,1.8L244.6,2.0Z M264.9,18.7L265.0,19.3L265.1,19.4L264.9,18.7Z M259.0,5.7L231.7,1.6L229.0,15.2L223.4,18.7L219.6,10.6L212.5,9.0L217.8,26.4L194.7,27.4L188.7,33.7L196.1,58.9L172.7,67.0L179.4,69.2L229.4,67.5L238.2,83.7L252.0,93.0L251.9,118.4L258.2,118.7L253.1,92.0L241.3,81.5L247.3,69.8L274.0,32.1L260.4,15.7L259.0,5.7Z "/></g><g class="" fill="#F27E30" id="location" stroke="#F27E30" stroke-width="10px"><circle cx="252.384849146" cy="236.076696534" r="2"/></g></svg>