<?xml version="1.0" encoding="utf-8"?><!DOCTYPE svg  PUBLIC '-//W3C//DTD SVG 1.1//EN'  'http://www.w3.org/Graphics/SVG/1.1/DTD/svg11.dtd'><svg enable_background="new 0 0 500 566" height="566px" pretty_print="False" style="stroke-linejoin: round; stroke:#000; fill: none;" version="1.1" viewBox="0 0 500 566" width="500px" xmlns="http://www.w3.org/2000/svg" xmlns:xlink="http://www.w3.org/1999/xlink"><defs><style type="text/css"><![CDATA[path { fill-rule: evenodd; }]]></style></defs><metadata><views><view h="566.971206681" padding="0.01" w="500"><proj id="laea" lat0="31.9405838015" lon0="35.262730438"/><bbox h="16.67" w="14.72" x="988.65" y="992.43"/></view></views></metadata><g class="" fill="none" id="country" stroke="gray" stroke-width="4px"><path d="M27.9,554.8L46.4,541.3L59.1,527.9L57.5,499.2L65.3,484.6L106.0,446.1L123.1,431.7L124.0,422.9L117.2,414.4L92.9,425.5L65.9,453.1L58.7,465.8L41.9,478.2L34.6,491.1L13.4,511.8L13.9,533.1L22.1,560.1L27.9,554.8Z M381.3,16.1L371.3,7.7L359.7,5.3L345.9,19.4L315.0,38.1L308.1,50.2L299.8,87.7L292.4,91.3L295.4,119.8L292.2,134.7L278.4,147.4L284.3,234.1L283.3,253.4L294.5,283.8L275.1,292.6L275.6,307.1L287.3,309.2L298.9,306.6L305.2,299.8L356.1,313.8L362.2,317.6L358.3,338.8L336.3,343.5L310.7,364.8L282.1,386.4L269.1,406.6L265.2,443.2L249.0,470.2L243.8,484.1L247.9,498.2L255.8,504.2L305.5,498.2L350.1,498.7L371.0,490.8L409.9,458.3L433.2,446.2L431.4,435.1L436.7,398.3L461.1,344.6L471.9,333.9L487.7,329.8L486.8,299.0L478.1,265.6L483.4,250.3L478.0,226.9L479.2,200.4L485.1,195.4L494.7,132.3L491.8,121.5L492.1,100.7L488.9,94.5L487.2,75.0L490.4,70.8L435.9,58.3L431.0,25.0L420.5,18.5L387.8,18.4L381.3,16.1Z "/></g><g class="" fill="#F27E30" id="location" stroke="#F27E30" stroke-width="10px"><circle cx="362.764673223" cy="273.724574032" r="2"/></g></svg>