<?xml version="1.0" encoding="utf-8"?><!DOCTYPE svg  PUBLIC '-//W3C//DTD SVG 1.1//EN'  'http://www.w3.org/Graphics/SVG/1.1/DTD/svg11.dtd'><svg enable_background="new 0 0 500 568" height="568px" pretty_print="False" style="stroke-linejoin: round; stroke:#000; fill: none;" version="1.1" viewBox="0 0 500 568" width="500px" xmlns="http://www.w3.org/2000/svg" xmlns:xlink="http://www.w3.org/1999/xlink"><defs><style type="text/css"><![CDATA[path { fill-rule: evenodd; }]]></style></defs><metadata><views><view h="568.290630815" padding="0" w="500"><proj id="laea" lat0="31.9405838015" lon0="35.262730438"/><bbox h="16.38" w="14.44" x="988.8" y="992.57"/></view></views></metadata><g class="" fill="none" id="country" stroke="white" stroke-width="4px"><path d="M17.6,566.3L42.4,547.1L55.3,533.4L53.7,504.2L61.6,489.3L103.1,450.0L120.6,435.4L121.4,426.3L114.6,417.7L89.8,429.0L62.2,457.1L54.9,470.1L37.7,482.7L30.3,495.9L8.7,517.0L9.2,538.8L17.6,566.3Z M368.3,0.0L316.3,33.9L309.2,46.2L300.8,84.4L293.3,88.2L296.3,117.2L293.0,132.4L278.9,145.4L284.9,233.8L284.0,253.5L295.3,284.5L275.6,293.5L276.1,308.3L288.0,310.4L299.9,307.8L306.3,300.8L358.3,315.1L364.4,318.9L360.4,340.6L338.0,345.4L312.0,367.1L282.7,389.1L269.5,409.7L265.5,447.1L249.0,474.6L243.7,488.8L247.9,503.2L255.9,509.3L306.7,503.2L352.1,503.6L373.4,495.7L413.1,462.5L436.9,450.1L435.0,438.8L440.4,401.3L465.4,346.5L476.3,335.6L492.5,331.5L491.5,300.0L482.6,265.9L488.1,250.4L482.5,226.4L483.8,199.4L489.8,194.4L499.6,130.0L496.7,118.9L497.0,97.7L493.7,91.4L492.0,71.5L495.2,67.2L439.7,54.5L434.6,20.5L423.9,13.9L390.5,13.7L368.3,0.0Z "/></g></svg>