<?xml version="1.0" encoding="utf-8"?><!DOCTYPE svg  PUBLIC '-//W3C//DTD SVG 1.1//EN'  'http://www.w3.org/Graphics/SVG/1.1/DTD/svg11.dtd'><svg enable_background="new 0 0 500 736" height="736px" pretty_print="False" style="stroke-linejoin: round; stroke:#000; fill: none;" version="1.1" viewBox="0 0 500 736" width="500px" xmlns="http://www.w3.org/2000/svg" xmlns:xlink="http://www.w3.org/1999/xlink"><defs><style type="text/css"><![CDATA[path { fill-rule: evenodd; }]]></style></defs><metadata><views><view h="736.418070197" padding="0" w="500"><proj id="laea" lat0="-9.183417536" lon0="-75.767650055"/><bbox h="226.3" w="153.86" x="931.46" y="887.15"/></view></views></metadata><g class="" fill="none" id="country" stroke="gray" stroke-width="4px"><path d="M196.5,553.3L196.4,552.1L195.9,552.0L196.5,553.3Z M167.2,483.5L164.8,482.3L166.5,483.8L167.2,483.5Z M20.9,259.1L19.5,257.4L20.0,259.1L20.9,259.1Z M427.6,734.4L451.1,718.4L450.3,707.7L462.0,696.4L458.3,688.9L478.5,670.4L480.9,650.5L468.3,650.1L466.5,641.8L444.7,635.4L447.6,617.0L459.0,613.3L467.2,621.5L469.9,600.9L476.1,584.7L485.8,577.1L484.9,547.7L487.5,542.0L489.9,513.9L499.7,502.1L465.3,439.3L436.0,443.4L424.3,440.9L425.8,383.0L395.3,400.3L363.6,399.9L360.9,385.6L339.5,375.8L323.6,375.6L333.8,362.8L318.3,338.4L311.6,334.0L304.3,313.7L292.6,301.4L303.9,292.0L302.4,275.2L327.6,253.9L325.2,239.3L336.3,205.0L376.0,180.9L410.0,174.3L421.9,166.2L432.0,165.9L445.8,173.3L453.6,172.9L444.7,157.2L424.1,151.2L451.8,108.8L449.6,105.2L418.9,89.0L413.0,87.6L397.0,94.6L392.3,88.4L335.6,95.2L319.7,70.6L312.5,65.9L312.3,56.3L282.1,32.3L277.2,21.8L247.9,0.6L235.3,5.3L227.8,4.0L242.5,19.8L244.5,37.6L238.4,36.4L229.6,61.4L211.8,81.6L186.0,101.7L139.4,118.1L118.9,138.6L116.9,149.9L107.1,175.9L92.3,198.8L82.5,198.0L72.6,183.3L47.9,171.0L34.0,176.3L39.8,167.7L37.3,159.0L46.9,155.2L40.7,135.9L31.7,140.8L3.6,169.7L7.1,203.7L6.1,208.5L19.9,226.1L16.7,234.1L8.3,239.3L22.8,252.0L42.5,261.6L66.2,283.9L72.4,299.4L82.7,317.1L97.3,336.3L125.6,391.0L125.7,396.7L140.9,426.2L149.0,450.4L193.5,513.9L205.1,533.4L206.6,540.7L198.4,555.4L208.6,573.5L220.0,588.2L231.2,594.5L245.1,613.9L273.3,628.8L301.1,647.0L313.2,651.2L350.7,668.4L362.1,678.5L388.4,694.5L390.4,708.2L427.6,734.4Z "/></g><g class="" fill="#F27E30" id="location" stroke="#F27E30" stroke-width="10px"><circle cx="198.917939705" cy="258.130201375" r="2"/></g></svg>