<?xml version="1.0" encoding="utf-8"?><!DOCTYPE svg  PUBLIC '-//W3C//DTD SVG 1.1//EN'  'http://www.w3.org/Graphics/SVG/1.1/DTD/svg11.dtd'><svg enable_background="new 0 0 500 731" height="731px" pretty_print="False" style="stroke-linejoin: round; stroke:#000; fill: none;" version="1.1" viewBox="0 0 500 731" width="500px" xmlns="http://www.w3.org/2000/svg" xmlns:xlink="http://www.w3.org/1999/xlink"><defs><style type="text/css"><![CDATA[path { fill-rule: evenodd; }]]></style></defs><metadata><views><view h="731.802029604" padding="0.01" w="500"><proj id="laea" lat0="-9.183417536" lon0="-75.767650055"/><bbox h="229.38" w="156.93" x="929.93" y="885.61"/></view></views></metadata><g class="" fill="none" id="country" stroke="gray" stroke-width="4px"><path d="M197.6,547.3L197.4,546.1L197.0,546.1L197.6,547.3Z M168.9,479.0L166.4,477.7L168.1,479.2L168.9,479.0Z M25.4,258.9L24.0,257.3L24.5,259.0L25.4,258.9Z M253.2,9.5L228.2,8.8L242.6,24.3L230.0,65.1L212.5,84.8L187.3,104.6L141.6,120.7L121.5,140.8L119.5,151.9L109.9,177.4L95.4,199.8L85.8,199.0L76.1,184.6L51.9,172.5L38.2,177.8L43.9,169.3L41.4,160.8L50.9,157.1L44.8,138.1L36.0,143.0L8.4,171.3L11.9,204.6L10.9,209.3L24.4,226.5L13.0,239.5L27.3,252.0L46.6,261.4L69.8,283.2L86.0,315.7L100.3,334.6L128.0,388.3L128.1,393.8L143.0,422.7L151.0,446.5L194.6,508.7L206.0,527.8L207.5,535.0L199.4,549.4L209.4,567.1L220.6,581.5L231.5,587.7L245.2,606.8L272.9,621.4L300.1,639.2L348.7,660.2L359.9,670.1L385.6,685.8L387.7,699.2L424.1,724.9L431.0,724.8L447.1,709.2L446.4,698.7L457.8,687.6L454.2,680.3L474.0,662.1L476.3,642.6L464.1,642.3L462.2,634.2L440.9,627.9L443.7,609.8L454.9,606.2L463.0,614.2L465.6,594.0L471.7,578.1L481.2,570.7L480.3,541.8L482.8,536.2L485.2,508.7L494.8,497.2L461.1,435.5L432.4,439.6L420.8,437.2L422.4,380.4L392.5,397.3L361.4,396.9L358.8,382.9L337.7,373.4L322.2,373.2L332.2,360.5L316.9,336.6L310.4,332.4L303.2,312.5L291.7,300.4L302.9,291.2L301.4,274.7L326.1,253.8L323.7,239.5L334.6,205.9L373.5,182.2L406.9,175.8L418.6,167.8L428.4,167.5L441.9,174.8L449.6,174.4L440.9,159.0L420.7,153.1L447.8,111.6L445.7,108.0L415.6,92.1L409.8,90.8L394.1,97.7L390.2,94.3L333.9,98.2L318.4,74.1L311.3,69.5L311.0,60.1L281.5,36.6L276.6,26.3L253.2,9.5Z "/></g><g class="" fill="#F27E30" id="location" stroke="#F27E30" stroke-width="10px"><circle cx="199.91997945" cy="257.961901483" r="2"/></g></svg>