<?xml version="1.0" encoding="utf-8"?><!DOCTYPE svg  PUBLIC '-//W3C//DTD SVG 1.1//EN'  'http://www.w3.org/Graphics/SVG/1.1/DTD/svg11.dtd'><svg enable_background="new 0 0 500 278" height="278px" pretty_print="False" style="stroke-linejoin: round; stroke:#000; fill: none;" version="1.1" viewBox="0 0 500 278" width="500px" xmlns="http://www.w3.org/2000/svg" xmlns:xlink="http://www.w3.org/1999/xlink"><defs><style type="text/css"><![CDATA[path { fill-rule: evenodd; }]]></style></defs><metadata><views><view h="278.544963317" padding="0.01" w="500"><proj id="laea-usa" lat0="45" lon0="-100"/><bbox h="333.67" w="601.12" x="684.2" y="912.8"/></view></views></metadata><g class="" fill="none" id="country" stroke="gray" stroke-width="4px"><path d="M209.7,253.1L207.4,264.6L209.2,265.7L209.7,253.1Z M200.8,249.2L200.1,248.6L199.4,249.4L200.8,249.2Z M200.2,244.1L203.0,248.6L206.0,247.2L200.2,244.1Z M194.0,242.1L195.6,243.4L199.0,243.1L194.0,242.1Z M187.8,238.2L186.9,240.3L189.7,240.9L187.8,238.2Z M166.0,236.1L166.2,235.4L167.1,235.0L166.0,236.1Z M124.1,216.3L124.1,216.3L124.2,216.4L124.1,216.3Z M430.3,263.3L430.2,263.4L430.2,263.4L430.3,263.3Z M436.6,260.9L436.6,260.9L436.6,261.0L436.6,260.9Z M438.0,260.6L438.0,260.5L437.9,260.7L438.0,260.6Z M437.5,260.5L437.2,260.3L437.2,260.4L437.5,260.5Z M437.3,260.9L436.7,260.2L437.1,260.8L437.3,260.9Z M441.9,258.0L442.0,258.2L442.0,258.1L441.9,258.0Z M442.6,257.5L442.8,257.3L442.6,257.5L442.6,257.5Z M94.5,199.9L94.5,199.8L94.5,199.8L94.5,199.9Z M438.9,254.0L438.9,253.7L438.6,253.7L438.9,254.0Z M438.2,253.5L438.5,253.8L438.5,253.6L438.2,253.5Z M445.4,253.8L444.5,254.2L444.8,254.2L445.4,253.8Z M446.2,250.9L446.3,250.7L446.3,250.1L446.2,250.9Z M446.3,248.2L446.1,247.7L446.0,247.9L446.3,248.2Z M61.1,189.2L60.9,189.3L61.0,189.4L61.1,189.2Z M434.1,249.0L433.6,249.1L434.0,249.2L434.1,249.0Z M432.1,249.0L431.8,249.2L432.2,249.4L432.1,249.0Z M433.4,249.1L433.4,248.9L433.2,248.9L433.4,249.1Z M427.1,244.3L426.8,244.4L427.4,244.6L427.1,244.3Z M425.9,242.7L425.5,242.1L425.7,242.6L425.9,242.7Z M427.4,243.7L426.7,242.1L426.2,242.0L427.4,243.7Z M425.4,241.8L425.3,241.3L425.2,241.1L425.4,241.8Z M289.0,264.2L286.7,255.3L286.7,257.0L289.0,264.2Z M421.4,236.3L420.5,235.7L420.8,236.0L421.4,236.3Z M288.5,248.6L286.8,251.7L286.7,252.8L288.5,248.6Z M443.4,233.1L439.8,227.1L439.6,227.1L443.4,233.1Z M289.8,246.4L291.4,244.3L290.3,245.0L289.8,246.4Z M295.3,241.4L291.7,243.3L291.6,244.3L295.3,241.4Z M5.8,155.4L5.9,155.4L5.9,155.3L5.8,155.4Z M295.8,240.7L296.8,239.8L296.5,240.0L295.8,240.7Z M418.3,222.5L418.4,222.6L418.4,222.5L418.3,222.5Z M418.2,222.3L418.1,222.1L418.1,222.2L418.2,222.3Z M346.9,230.1L346.3,230.3L346.0,230.5L346.9,230.1Z M349.0,230.1L348.6,230.0L348.5,230.1L349.0,230.1Z M350.1,229.7L349.8,229.7L349.6,230.0L350.1,229.7Z M414.5,219.1L414.3,219.0L414.4,219.2L414.5,219.1Z M309.3,230.4L309.2,230.7L308.4,231.5L309.3,230.4Z M360.3,223.9L360.6,223.5L360.2,224.0L360.3,223.9Z M361.3,222.6L361.2,222.7L361.2,222.7L361.3,222.6Z M396.7,217.5L398.2,216.4L396.5,217.5L396.7,217.5Z M357.0,221.8L356.5,221.7L356.6,222.1L357.0,221.8Z M399.6,215.2L399.8,215.0L399.2,215.3L399.6,215.2Z M358.2,220.1L358.6,220.0L358.6,219.8L358.2,220.1Z M356.7,218.1L356.6,218.1L356.6,218.2L356.7,218.1Z M360.9,216.8L360.6,216.8L360.6,216.9L360.9,216.8Z M365.4,216.2L364.7,216.2L365.4,216.3L365.4,216.2Z M359.8,216.7L359.5,216.9L359.6,216.9L359.8,216.7Z M364.3,216.3L362.5,216.3L364.3,216.3L364.3,216.3Z M381.1,211.9L375.7,213.6L378.6,212.8L381.1,211.9Z M425.8,193.3L425.8,191.8L425.4,193.1L425.8,193.3Z M426.4,191.1L426.2,189.9L426.0,190.6L426.4,191.1Z M103.9,177.0L104.1,178.1L104.0,178.3L103.9,177.0Z M96.7,172.8L97.0,173.6L97.2,173.5L96.7,172.8Z M105.2,172.7L105.4,174.0L106.3,174.6L105.2,172.7Z M448.2,161.1L447.6,161.7L447.7,161.8L448.2,161.1Z M93.9,164.3L92.6,165.1L92.9,165.4L93.9,164.3Z M91.3,163.4L91.3,163.8L91.7,163.8L91.3,163.4Z M95.7,164.3L97.8,165.6L98.2,165.2L95.7,164.3Z M448.5,158.3L448.3,158.7L448.4,159.1L448.5,158.3Z M451.5,153.8L450.8,154.3L450.3,154.8L451.5,153.8Z M457.8,150.7L457.5,150.5L456.9,150.5L457.8,150.7Z M456.4,150.4L456.0,150.4L455.3,150.8L456.4,150.4Z M458.0,150.9L459.4,147.5L458.4,148.9L458.0,150.9Z M460.1,146.3L460.7,145.4L460.3,145.4L460.1,146.3Z M464.2,142.5L464.0,139.9L464.1,142.1L464.2,142.5Z M456.4,123.8L456.3,124.4L456.2,124.6L456.4,123.8Z M457.2,121.2L457.3,120.8L457.0,121.7L457.2,121.2Z M457.2,120.4L457.4,119.4L457.2,119.6L457.2,120.4Z M458.5,115.8L458.5,114.7L458.5,115.1L458.5,115.8Z M461.5,98.3L461.3,97.7L461.3,98.3L461.5,98.3Z M462.0,96.5L462.2,95.0L461.9,96.3L462.0,96.5Z M459.9,85.4L459.2,86.5L459.0,86.8L459.9,85.4Z M466.6,83.0L469.1,80.9L469.0,80.8L466.6,83.0Z M460.2,84.6L460.2,82.9L460.1,83.8L460.2,84.6Z M471.5,76.8L471.0,76.6L470.9,77.0L471.5,76.8Z M472.8,75.9L472.8,76.3L472.9,76.1L472.8,75.9Z M471.5,75.9L460.6,85.9L462.7,85.0L471.5,75.9Z M481.4,71.0L481.3,70.9L481.3,71.0L481.4,71.0Z M473.0,73.9L473.2,73.6L472.6,74.3L473.0,73.9Z M486.5,67.7L486.4,68.6L485.2,69.0L486.5,67.7Z M479.9,69.7L480.3,69.5L480.3,69.3L479.9,69.7Z M476.5,70.5L476.4,69.5L476.3,69.9L476.5,70.5Z M486.0,65.8L486.0,65.2L485.8,64.8L486.0,65.8Z M477.5,69.7L476.8,68.5L476.8,69.8L477.5,69.7Z M418.1,72.1L417.3,72.0L417.9,72.8L418.1,72.1Z M480.2,43.1L479.9,42.6L479.8,42.9L480.2,43.1Z M479.6,42.6L479.5,42.1L479.5,41.8L479.6,42.6Z M434.3,57.1L434.4,56.6L434.0,57.1L434.3,57.1Z M486.2,38.1L486.1,37.4L485.9,37.7L486.2,38.1Z M485.0,38.4L485.0,37.9L484.5,38.0L485.0,38.4Z M484.4,37.5L483.9,37.4L483.9,37.9L484.4,37.5Z M486.8,36.0L487.3,36.4L487.1,35.9L486.8,36.0Z M485.5,36.1L485.1,36.9L485.7,36.6L485.5,36.1Z M483.4,36.1L483.2,36.4L483.4,36.9L483.4,36.1Z M434.6,53.6L434.4,53.7L434.1,54.2L434.6,53.6Z M486.1,34.7L485.6,34.3L485.6,34.7L486.1,34.7Z M483.3,35.8L483.2,35.3L483.1,35.7L483.3,35.8Z M488.0,34.1L487.2,35.2L487.2,34.4L488.0,34.1Z M491.5,30.8L491.2,30.4L491.0,30.4L491.5,30.8Z M492.8,28.6L492.6,28.5L492.5,28.7L492.8,28.6Z M493.5,24.8L493.0,24.8L493.5,25.0L493.5,24.8Z M494.2,25.2L493.8,24.2L493.8,25.3L494.2,25.2Z M493.4,24.6L493.3,23.6L493.0,24.3L493.4,24.6Z M362.5,63.5L362.2,63.1L362.2,63.6L362.5,63.5Z M363.3,62.6L362.7,61.9L362.6,62.2L363.3,62.6Z M355.3,61.8L353.4,65.5L353.7,66.7L355.3,61.8Z M363.7,59.1L363.3,58.7L363.3,58.8L363.7,59.1Z M373.0,53.4L371.7,53.5L372.5,54.0L373.0,53.4Z M365.5,54.6L365.2,54.6L365.6,54.8L365.5,54.6Z M99.7,35.8L99.6,35.4L99.5,35.7L99.7,35.8Z M374.1,48.4L373.6,47.6L373.4,47.7L374.1,48.4Z M96.9,32.8L96.9,31.9L96.8,32.0L96.9,32.8Z M327.3,50.3L328.0,49.3L327.5,49.8L327.3,50.3Z M328.4,48.7L328.2,48.4L327.7,48.8L328.4,48.7Z M327.4,48.8L327.3,48.5L326.9,48.7L327.4,48.8Z M325.6,48.5L325.8,48.3L325.6,48.1L325.6,48.5Z M329.2,47.7L329.0,47.0L328.9,47.9L329.2,47.7Z M107.3,28.3L107.6,27.8L107.3,27.8L107.3,28.3Z M106.4,27.4L106.6,26.4L106.4,26.4L106.4,27.4Z M347.1,40.9L341.4,43.8L343.3,45.6L347.1,40.9Z M109.9,26.0L109.9,25.1L109.1,26.3L109.9,26.0Z M110.0,24.0L110.2,23.0L110.1,22.8L110.0,24.0Z M110.1,19.2L110.1,18.7L109.9,18.6L110.1,19.2Z M340.7,34.2L336.9,36.9L336.6,38.2L340.7,34.2Z M110.3,14.8L110.1,13.8L109.7,14.6L110.3,14.8Z M111.5,14.3L111.5,13.6L111.3,13.8L111.5,14.3Z M110.9,12.3L109.6,12.7L109.9,12.8L110.9,12.3Z M294.9,26.6L206.6,28.5L175.9,24.3L137.1,16.4L112.5,9.9L98.2,12.4L97.0,35.8L81.2,72.9L75.9,90.9L79.9,118.3L91.0,151.4L106.1,167.0L114.5,182.8L135.3,187.5L165.6,205.5L190.1,208.3L193.8,204.1L205.7,205.1L221.6,226.2L234.2,235.0L239.8,227.4L254.5,230.2L267.7,255.1L289.3,265.6L284.7,252.3L310.1,227.4L320.3,225.5L351.6,227.8L356.8,219.8L349.7,216.4L383.2,210.8L396.2,216.5L404.9,211.5L418.5,221.0L438.8,255.7L446.4,247.2L445.5,237.6L427.8,206.8L424.5,196.7L427.4,181.7L432.2,179.7L441.1,165.3L457.7,147.6L461.2,137.0L451.4,123.1L453.2,101.5L461.8,94.5L461.3,82.3L476.3,71.2L476.8,45.9L488.3,33.1L487.8,19.5L468.7,6.8L463.3,35.9L447.3,42.0L436.2,51.8L433.5,63.3L416.8,71.5L417.5,77.2L393.8,93.7L388.5,93.2L380.5,56.7L367.4,59.5L363.0,66.2L365.2,84.4L361.2,98.4L351.6,65.4L364.5,51.9L375.6,51.0L373.6,45.6L356.4,49.7L324.7,49.5L326.0,41.9L294.9,26.6Z M51.1,267.2L50.9,267.3L51.1,267.3L51.1,267.2Z M14.4,234.7L14.3,235.0L14.4,236.0L14.4,234.7Z M14.1,233.4L14.2,233.8L14.2,233.7L14.1,233.4Z M52.5,266.2L52.5,265.9L52.3,266.0L52.5,266.2Z M58.1,268.6L58.0,268.5L58.1,268.8L58.1,268.6Z M54.4,266.9L53.9,266.4L53.9,267.6L54.4,266.9Z M55.6,268.0L55.6,267.6L54.8,267.6L55.6,268.0Z M58.8,268.7L58.7,268.7L58.9,268.8L58.8,268.7Z M16.2,235.8L16.5,235.8L16.6,235.8L16.2,235.8Z M58.3,268.2L57.9,268.2L58.1,268.3L58.3,268.2Z M13.6,232.0L12.9,231.7L12.9,231.8L13.6,232.0Z M62.5,268.9L60.6,269.0L60.2,269.2L62.5,268.9Z M10.1,224.3L9.6,224.3L9.7,224.5L10.1,224.3Z M68.4,271.2L68.4,270.9L68.3,270.9L68.4,271.2Z M70.9,271.2L71.1,271.1L71.0,271.0L70.9,271.2Z M71.3,270.9L71.2,270.7L71.1,270.7L71.3,270.9Z M10.4,221.8L9.7,221.9L10.6,222.7L10.4,221.8Z M72.0,270.8L72.0,270.6L72.0,270.6L72.0,270.8Z M80.2,270.1L80.3,270.0L80.2,270.0L80.2,270.1Z M82.1,270.2L81.7,270.1L82.0,270.3L82.1,270.2Z M82.7,270.2L82.2,270.1L82.1,270.2L82.7,270.2Z M80.9,269.6L80.4,269.6L81.3,269.8L80.9,269.6Z M81.7,269.5L81.5,269.4L81.5,269.9L81.7,269.5Z M88.0,270.7L88.0,270.6L88.0,270.5L88.0,270.7Z M87.7,270.4L87.2,270.2L87.7,270.6L87.7,270.4Z M94.1,270.6L94.0,270.4L93.9,270.4L94.1,270.6Z M146.7,267.3L146.6,267.2L146.6,267.3L146.7,267.3Z M148.0,266.5L148.2,266.6L148.3,266.6L148.0,266.5Z M94.7,270.1L94.6,270.2L94.6,270.3L94.7,270.1Z M88.6,269.3L88.7,268.8L88.7,268.8L88.6,269.3Z M150.9,265.4L150.5,265.6L150.8,265.8L150.9,265.4Z M94.6,269.8L94.3,270.0L94.6,270.0L94.6,269.8Z M150.9,265.1L150.8,264.9L150.8,265.0L150.9,265.1Z M89.9,268.5L89.6,268.5L89.9,268.8L89.9,268.5Z M147.7,265.7L147.6,265.8L147.7,266.2L147.7,265.7Z M90.7,268.5L90.5,268.5L90.7,268.7L90.7,268.5Z M94.3,269.5L94.1,269.5L94.0,269.4L94.3,269.5Z M90.3,268.4L90.0,268.3L90.1,268.5L90.3,268.4Z M93.5,269.0L93.1,269.1L92.8,269.9L93.5,269.0Z M146.6,265.6L146.6,265.9L146.8,265.7L146.6,265.6Z M87.3,267.1L87.2,267.1L87.2,267.1L87.3,267.1Z M146.6,265.2L146.5,265.2L146.5,265.3L146.6,265.2Z M93.0,268.2L92.9,268.1L92.8,268.2L93.0,268.2Z M146.1,265.3L146.2,265.1L146.1,265.1L146.1,265.3Z M145.7,265.1L145.6,265.3L145.8,265.3L145.7,265.1Z M95.1,267.5L95.0,267.4L94.9,267.4L95.1,267.5Z M145.6,264.2L146.0,264.3L146.1,264.1L145.6,264.2Z M146.1,263.9L146.0,264.0L146.2,264.1L146.1,263.9Z M145.0,264.2L144.9,264.0L144.8,264.1L145.0,264.2Z M149.9,262.4L149.3,264.2L149.9,263.8L149.9,262.4Z M145.6,263.0L145.2,263.5L145.3,264.0L145.6,263.0Z M100.2,267.0L100.2,266.7L100.1,266.8L100.2,267.0Z M145.1,262.5L149.7,266.7L148.9,265.0L145.1,262.5Z M98.2,266.2L98.2,266.0L98.1,266.1L98.2,266.2Z M146.8,261.7L146.5,262.5L146.9,262.2L146.8,261.7Z M147.8,261.7L147.7,262.2L148.1,262.4L147.8,261.7Z M99.8,265.5L99.5,265.5L99.3,265.6L99.8,265.5Z M104.8,265.9L104.6,266.3L104.7,266.0L104.8,265.9Z M105.5,266.0L105.1,266.0L105.3,266.3L105.5,266.0Z M75.9,259.7L76.4,260.0L76.3,259.9L75.9,259.7Z M146.0,260.8L146.2,261.7L146.7,261.4L146.0,260.8Z M143.9,261.2L144.1,263.4L144.6,262.9L143.9,261.2Z M144.1,260.4L145.2,262.0L145.1,260.9L144.1,260.4Z M140.6,260.8L140.3,261.7L140.8,261.1L140.6,260.8Z M106.2,263.3L106.1,263.2L106.2,263.3L106.2,263.3Z M140.8,260.1L142.7,263.3L142.4,261.1L140.8,260.1Z M108.9,261.8L108.8,261.9L109.1,262.0L108.9,261.8Z M108.3,261.9L108.4,261.7L108.2,261.7L108.3,261.9Z M107.8,261.8L105.8,265.6L109.4,262.9L107.8,261.8Z M138.6,258.7L138.3,258.5L138.3,258.8L138.6,258.7Z M107.5,261.3L107.6,261.5L107.9,261.7L107.5,261.3Z M138.9,257.8L138.8,257.7L138.8,257.8L138.9,257.8Z M141.9,257.0L141.5,256.8L141.4,257.1L141.9,257.0Z M139.8,257.3L139.5,257.3L139.5,257.4L139.8,257.3Z M140.9,256.9L142.5,259.9L143.4,259.2L140.9,256.9Z M94.8,258.0L94.8,257.8L94.8,257.9L94.8,258.0Z M109.8,258.6L109.7,258.7L109.7,258.7L109.8,258.6Z M109.3,258.6L109.3,258.5L109.2,258.7L109.3,258.6Z M110.5,258.1L110.4,258.1L110.4,258.1L110.5,258.1Z M110.9,258.1L110.8,258.0L110.7,258.1L110.9,258.1Z M110.2,258.0L110.1,257.9L110.1,258.0L110.2,258.0Z M120.0,257.0L120.0,256.8L119.9,256.9L120.0,257.0Z M123.0,255.4L123.5,254.7L123.3,254.8L123.0,255.4Z M117.0,255.3L117.2,255.2L117.3,255.0L117.0,255.3Z M117.0,254.8L116.8,254.9L117.1,254.8L117.0,254.8Z M109.0,254.8L109.0,254.6L108.9,254.6L109.0,254.8Z M116.8,254.8L116.6,254.9L116.5,255.1L116.8,254.8Z M117.8,254.4L118.0,254.2L117.8,254.4L117.8,254.4Z M118.4,254.0L117.3,255.9L118.8,254.1L118.4,254.0Z M116.9,254.2L116.8,254.0L116.7,254.1L116.9,254.2Z M121.9,253.8L121.9,253.5L121.8,253.7L121.9,253.8Z M86.0,250.1L84.6,251.4L85.3,251.7L86.0,250.1Z M119.4,253.6L119.5,253.9L119.7,253.5L119.4,253.6Z M117.4,253.5L117.3,254.6L117.5,253.9L117.4,253.5Z M75.0,245.4L75.1,245.2L75.1,245.2L75.0,245.4Z M117.0,252.8L117.0,253.0L117.1,252.9L117.0,252.8Z M116.7,253.0L116.6,252.7L116.5,252.8L116.7,253.0Z M119.0,252.4L119.0,252.3L118.9,252.4L119.0,252.4Z M116.8,252.2L116.8,252.6L116.9,252.3L116.8,252.2Z M113.1,251.6L113.1,251.4L113.1,251.4L113.1,251.6Z M87.8,245.0L87.7,245.0L87.7,245.0L87.8,245.0Z M90.8,242.4L90.8,242.4L90.7,242.4L90.8,242.4Z M82.9,240.0L82.9,239.7L82.8,239.6L82.9,240.0Z M83.7,239.1L83.7,239.1L83.8,239.2L83.7,239.1Z M82.3,238.9L82.0,238.4L82.3,238.8L82.3,238.9Z M81.6,238.1L81.5,238.1L81.6,238.1L81.6,238.1Z M81.7,237.6L81.7,237.5L81.7,237.6L81.7,237.6Z M81.6,237.5L81.6,237.5L81.7,237.5L81.6,237.5Z M94.5,241.3L94.0,241.4L94.3,241.5L94.5,241.3Z M87.1,232.0L87.1,232.0L87.1,232.0L87.1,232.0Z M88.6,232.5L88.7,232.5L88.7,232.4L88.6,232.5Z M89.6,232.2L89.7,232.2L90.2,232.0L89.6,232.2Z M91.3,231.7L91.4,231.6L91.3,231.7L91.3,231.7Z M91.6,231.6L91.8,231.5L91.6,231.6L91.6,231.6Z M92.3,231.4L92.0,231.4L92.0,231.4L92.3,231.4Z M92.6,231.3L92.6,231.3L92.6,231.3L92.6,231.3Z M123.6,222.5L123.5,222.4L123.1,222.2L123.6,222.5Z M98.0,221.4L98.5,220.8L98.2,221.1L98.0,221.4Z M98.6,220.7L98.8,220.5L98.7,220.5L98.6,220.7Z M99.0,220.3L99.3,220.0L99.1,220.2L99.0,220.3Z M114.3,220.5L114.6,220.7L114.7,220.7L114.3,220.5Z M106.4,217.2L93.4,224.2L97.9,230.6L88.1,233.0L97.5,238.5L87.3,249.9L103.1,261.9L109.6,253.9L138.0,258.0L129.0,253.0L121.7,221.6L106.4,217.2Z "/></g><g class="" fill="#F27E30" id="location" stroke="#F27E30" stroke-width="10px"><circle cx="159.694072188" cy="182.915606956" r="2"/></g></svg>