<?xml version="1.0" encoding="utf-8"?><!DOCTYPE svg  PUBLIC '-//W3C//DTD SVG 1.1//EN'  'http://www.w3.org/Graphics/SVG/1.1/DTD/svg11.dtd'><svg enable_background="new 0 0 500 522" height="522px" pretty_print="False" style="stroke-linejoin: round; stroke:#000; fill: none;" version="1.1" viewBox="0 0 500 522" width="500px" xmlns="http://www.w3.org/2000/svg" xmlns:xlink="http://www.w3.org/1999/xlink"><defs><style type="text/css"><![CDATA[path { fill-rule: evenodd; }]]></style></defs><metadata><views><view h="522.331700705" padding="0.01" w="500"><proj id="laea" lat0="1.3801679885" lon0="32.8161188203"/><bbox h="71.62" w="68.69" x="959.0" y="964.28"/></view></views></metadata><g class="" fill="none" id="country" stroke="gray" stroke-width="4px"><path d="M210.7,473.1L210.2,471.9L209.4,471.5L210.7,473.1Z M262.2,415.6L258.3,413.2L257.5,416.9L262.2,415.6Z M232.9,404.0L240.5,422.3L237.6,431.5L254.2,415.0L240.1,412.5L240.6,404.8L232.9,404.0Z M256.7,404.9L251.8,401.5L256.7,407.6L256.7,404.9Z M387.7,372.9L383.5,374.2L392.3,376.6L387.7,372.9Z M331.1,372.7L330.7,368.8L329.7,370.1L331.1,372.7Z M343.5,361.7L339.8,356.0L335.3,369.5L343.5,361.7Z M411.9,35.6L407.9,9.8L402.2,4.9L362.5,44.8L358.7,47.0L327.6,44.9L316.3,35.6L293.0,45.3L258.6,48.7L242.1,58.8L233.6,67.2L219.0,60.6L205.2,41.6L195.6,51.0L181.0,55.1L162.2,44.8L150.8,43.2L130.8,53.3L126.5,67.6L126.6,80.6L118.2,92.1L119.7,116.6L109.5,162.4L124.2,174.1L134.3,168.5L140.6,177.8L154.5,185.5L164.8,180.4L170.5,189.5L171.0,216.2L160.8,231.2L130.8,247.1L100.0,288.3L78.6,275.4L59.8,301.7L49.3,304.3L39.5,312.7L37.2,343.8L32.5,349.3L26.8,368.9L24.5,367.7L17.9,391.6L21.9,389.3L33.9,409.5L29.2,416.7L14.4,425.9L6.0,465.6L8.0,507.6L31.2,502.4L36.7,514.9L58.1,504.7L68.9,492.3L76.1,478.8L103.1,479.4L108.7,474.4L205.7,473.1L203.7,459.1L198.3,458.5L211.4,425.5L218.6,421.1L227.0,408.2L222.9,403.9L224.7,391.0L232.0,386.5L243.1,388.4L243.8,379.9L249.3,385.9L265.3,372.6L265.7,380.6L278.8,370.7L283.0,357.2L286.3,375.3L303.9,366.2L315.6,373.1L348.2,341.9L343.3,351.7L355.6,352.3L352.6,359.0L358.7,366.4L370.2,362.9L373.6,354.6L395.0,367.7L408.1,355.8L417.9,329.1L437.7,311.5L456.5,279.9L460.9,278.9L479.6,254.3L492.2,232.9L494.6,211.3L491.1,194.7L482.0,172.7L486.9,163.1L455.8,119.0L452.2,103.6L443.2,97.9L438.9,80.5L444.3,56.2L417.9,44.7L421.9,38.3L411.9,35.6Z "/></g><g class="" fill="#F27E30" id="location" stroke="#F27E30" stroke-width="10px"><circle cx="277.275218405" cy="355.144271454" r="2"/></g></svg>