<?xml version="1.0" encoding="utf-8"?><!DOCTYPE svg  PUBLIC '-//W3C//DTD SVG 1.1//EN'  'http://www.w3.org/Graphics/SVG/1.1/DTD/svg11.dtd'><svg enable_background="new 0 0 500 522" height="522px" pretty_print="False" style="stroke-linejoin: round; stroke:#000; fill: none;" version="1.1" viewBox="0 0 500 522" width="500px" xmlns="http://www.w3.org/2000/svg" xmlns:xlink="http://www.w3.org/1999/xlink"><defs><style type="text/css"><![CDATA[path { fill-rule: evenodd; }]]></style></defs><metadata><views><view h="522.758334719" padding="0" w="500"><proj id="laea" lat0="1.3801679885" lon0="32.8161188203"/><bbox h="70.27" w="67.34" x="959.68" y="964.95"/></view></views></metadata><g class="" fill="none" id="country" stroke="gray" stroke-width="4px"><path d="M209.9,477.6L209.4,476.3L208.6,475.9L209.9,477.6Z M262.5,418.9L258.4,416.5L257.7,420.3L262.5,418.9Z M232.5,407.1L240.3,425.8L237.3,435.2L249.5,429.1L254.3,418.3L239.9,415.7L240.4,407.9L232.5,407.1Z M256.9,408.0L251.8,404.5L256.9,410.7L256.9,408.0Z M390.4,375.4L386.1,376.7L395.1,379.2L390.4,375.4Z M332.7,375.2L332.3,371.2L331.3,372.5L332.7,375.2Z M345.4,364.0L341.6,358.1L337.0,371.9L345.4,364.0Z M34.2,520.8L54.2,509.8L65.2,497.2L72.6,483.4L100.2,484.0L105.9,478.9L204.8,477.6L202.8,463.3L197.3,462.7L210.7,429.0L217.9,424.5L226.6,411.4L222.3,407.0L224.2,393.8L231.7,389.3L243.0,391.2L243.7,382.5L249.3,388.6L265.6,375.1L266.0,383.2L279.4,373.1L283.7,359.3L287.1,377.8L304.9,368.5L316.9,375.6L350.2,343.7L345.2,353.8L357.7,354.3L362.6,360.0L354.6,361.2L360.9,368.7L372.6,365.2L376.1,356.7L397.9,370.0L411.3,357.9L421.3,330.7L441.5,312.7L452.1,286.9L460.6,280.5L480.5,273.2L484.2,254.4L497.0,232.6L499.5,210.5L495.9,193.6L486.6,171.1L491.6,161.3L475.1,126.5L465.1,123.4L459.9,116.4L456.2,100.7L447.1,94.9L442.7,77.1L448.1,52.4L429.4,40.3L421.3,40.6L425.3,34.0L411.1,5.0L405.2,0.0L364.7,40.8L360.9,43.0L329.2,40.8L317.7,31.4L293.9,41.2L258.8,44.7L242.0,54.9L233.3,63.6L218.4,56.8L204.4,37.4L194.6,47.1L179.7,51.2L160.5,40.7L148.8,39.0L128.5,49.4L124.0,63.9L124.1,77.2L115.6,89.0L117.8,131.0L109.6,147.7L106.7,160.6L121.6,172.6L132.0,166.9L138.4,176.4L152.6,184.2L163.1,179.0L168.9,188.3L169.4,215.5L159.1,230.8L128.4,247.1L97.0,289.1L75.2,275.9L56.0,302.7L45.3,305.4L35.2,314.0L33.0,345.7L28.2,351.3L22.3,371.3L19.9,370.1L13.3,394.4L17.3,392.1L29.6,412.7L24.8,420.1L9.7,429.4L1.2,469.9L3.2,512.8L26.8,507.4L34.2,520.8Z "/></g><g class="" fill="#F27E30" id="location" stroke="#F27E30" stroke-width="10px"><circle cx="277.820766493" cy="357.257309124" r="2"/></g></svg>