<?xml version="1.0" encoding="utf-8"?><!DOCTYPE svg  PUBLIC '-//W3C//DTD SVG 1.1//EN'  'http://www.w3.org/Graphics/SVG/1.1/DTD/svg11.dtd'><svg enable_background="new 0 0 500 332" height="332px" pretty_print="False" style="stroke-linejoin: round; stroke:#000; fill: none;" version="1.1" viewBox="0 0 500 332" width="500px" xmlns="http://www.w3.org/2000/svg" xmlns:xlink="http://www.w3.org/1999/xlink"><defs><style type="text/css"><![CDATA[path { fill-rule: evenodd; }]]></style></defs><metadata><views><view h="332.796553473" padding="0.01" w="500"><proj id="laea" lat0="56.957525946" lon0="-112.383079347"/><bbox h="728.27" w="1097.47" x="353.11" y="644.5"/></view></views></metadata><g class="" fill="none" id="country" stroke="gray" stroke-width="4px"><path d="M416.1,220.7L416.2,220.5L416.0,220.2L416.1,220.7Z M471.4,175.5L471.4,175.2L471.2,175.1L471.4,175.5Z M487.1,157.6L486.6,158.1L486.3,158.3L487.1,157.6Z M432.4,197.5L432.5,197.0L432.0,197.5L432.4,197.5Z M434.0,195.9L433.7,196.0L433.4,196.2L434.0,195.9Z M463.4,172.1L463.8,172.9L464.0,172.7L463.4,172.1Z M438.8,185.9L438.2,186.3L438.3,186.6L438.8,185.9Z M417.7,197.5L417.6,198.3L417.8,197.8L417.7,197.5Z M438.4,185.0L438.4,184.8L438.3,185.0L438.4,185.0Z M411.5,199.9L411.5,199.4L411.3,199.5L411.5,199.9Z M439.0,183.2L438.4,184.5L438.7,184.4L439.0,183.2Z M439.5,184.0L439.0,184.0L438.3,185.3L439.5,184.0Z M407.5,198.7L407.0,199.0L407.1,199.1L407.5,198.7Z M406.7,199.1L410.5,199.4L411.4,197.9L406.7,199.1Z M479.9,148.3L479.7,148.5L479.8,148.5L479.9,148.3Z M410.0,196.9L409.5,197.2L410.2,197.2L410.0,196.9Z M401.6,199.2L402.7,199.6L402.6,199.1L401.6,199.2Z M398.8,196.7L398.7,196.9L398.8,196.7L398.8,196.7Z M443.8,172.2L444.0,171.5L444.0,171.0L443.8,172.2Z M487.9,129.3L487.7,129.2L487.7,129.3L487.9,129.3Z M485.1,132.2L484.9,132.3L484.9,132.5L485.1,132.2Z M488.9,127.1L488.7,126.8L488.7,126.8L488.9,127.1Z M444.2,168.3L444.3,167.9L444.1,168.4L444.2,168.3Z M469.5,145.7L469.5,148.6L468.9,147.8L469.5,145.7Z M483.5,130.9L483.2,130.9L483.0,131.3L483.5,130.9Z M488.4,126.0L488.0,125.5L487.8,125.5L488.4,126.0Z M393.2,193.9L392.2,194.0L392.2,194.5L393.2,193.9Z M459.7,152.4L459.8,151.9L459.5,151.7L459.7,152.4Z M486.3,122.9L486.6,123.2L487.4,122.4L486.3,122.9Z M380.2,195.8L379.9,195.8L379.8,195.9L380.2,195.8Z M445.7,160.1L445.7,160.1L445.6,160.2L445.7,160.1Z M254.1,204.9L254.3,205.1L254.3,205.1L254.1,204.9Z M384.8,191.0L384.5,190.9L384.6,191.1L384.8,191.0Z M254.5,204.2L254.3,204.2L254.5,204.4L254.5,204.2Z M383.6,191.3L382.5,191.5L382.6,191.9L383.6,191.3Z M253.7,203.4L253.4,204.2L253.6,204.4L253.7,203.4Z M254.3,203.6L253.3,202.6L253.6,203.1L254.3,203.6Z M245.0,200.4L245.0,200.0L244.9,200.3L245.0,200.4Z M245.6,200.5L245.5,200.0L245.3,200.0L245.6,200.5Z M457.1,170.1L458.4,169.8L458.8,169.9L458.8,169.9L459.6,171.1L459.7,171.5L460.9,171.3L460.9,171.3L471.9,174.3L477.2,158.5L474.3,154.8L458.1,151.6L447.1,156.9L437.3,188.8L437.1,189.0L449.3,178.3L447.4,170.7L457.1,170.1L457.1,170.1Z M244.8,199.6L244.7,199.0L244.3,198.9L244.8,199.6Z M254.5,201.0L254.8,200.6L254.4,200.8L254.5,201.0Z M479.3,119.9L479.1,120.2L479.3,120.4L479.3,119.9Z M251.2,199.5L251.2,199.4L251.1,199.7L251.2,199.5Z M254.8,200.2L254.7,199.9L254.4,199.9L254.8,200.2Z M250.3,199.2L250.1,199.3L250.2,199.2L250.3,199.2Z M249.9,199.4L249.6,198.8L249.5,199.0L249.9,199.4Z M478.9,119.0L478.8,119.7L478.7,120.5L478.9,119.0Z M479.5,117.3L479.7,118.3L479.9,117.6L479.5,117.3Z M252.6,198.2L251.9,198.5L252.2,198.7L252.6,198.2Z M251.4,198.5L251.7,199.5L251.8,199.3L251.4,198.5Z M241.4,194.7L241.3,194.5L241.3,194.5L241.4,194.7Z M453.7,140.4L453.4,140.3L453.3,140.4L453.7,140.4Z M250.2,195.3L249.9,194.7L249.8,195.3L250.2,195.3Z M250.6,194.8L250.2,195.1L250.3,195.3L250.6,194.8Z M249.0,194.1L248.7,193.7L248.5,194.2L249.0,194.1Z M247.0,193.5L247.0,193.2L246.4,193.3L247.0,193.5Z M244.4,192.0L244.1,191.9L244.2,192.2L244.4,192.0Z M245.5,192.4L245.1,192.2L244.3,192.2L245.5,192.4Z M245.1,192.1L244.5,191.9L244.5,191.9L245.1,192.1Z M463.5,127.5L463.9,127.8L463.9,127.7L463.5,127.5Z M242.9,191.3L243.5,191.6L243.4,191.4L242.9,191.3Z M472.1,116.9L471.9,117.5L472.2,117.5L472.1,116.9Z M237.6,189.4L237.7,189.3L237.5,189.3L237.6,189.4Z M464.2,125.6L464.0,125.5L464.1,125.7L464.2,125.6Z M467.8,121.2L467.9,121.4L468.0,121.2L467.8,121.2Z M244.5,190.6L243.5,190.5L244.0,190.9L244.5,190.6Z M240.2,189.5L254.1,206.1L251.8,201.0L240.2,189.5Z M240.9,189.8L240.4,189.4L240.3,189.5L240.9,189.8Z M471.4,116.6L471.2,116.3L471.0,116.3L471.4,116.6Z M241.6,188.7L241.4,188.6L241.3,188.6L241.6,188.7Z M463.6,123.6L463.6,123.0L463.5,123.3L463.6,123.6Z M463.7,122.7L463.7,122.3L463.5,122.6L463.7,122.7Z M467.8,114.6L477.3,137.5L487.4,124.7L467.8,114.6Z M239.6,183.3L239.6,183.0L239.4,183.1L239.6,183.3Z M467.9,112.1L467.5,111.9L467.6,112.2L467.9,112.1Z M404.1,161.9L403.1,163.0L403.3,163.2L404.1,161.9Z M231.2,180.1L230.8,180.8L231.1,180.8L231.2,180.1Z M240.4,182.9L240.7,182.7L240.9,182.1L240.4,182.9Z M403.0,161.4L403.1,161.2L403.0,161.3L403.0,161.4Z M243.6,182.3L242.3,182.0L241.4,183.4L243.6,182.3Z M239.5,180.1L239.1,180.9L239.6,180.2L239.5,180.1Z M240.1,179.5L239.4,179.7L239.9,180.4L240.1,179.5Z M237.2,178.5L237.3,178.3L237.2,178.3L237.2,178.5Z M230.0,176.1L230.5,176.8L230.5,176.2L230.0,176.1Z M463.4,109.9L463.1,110.0L463.1,110.0L463.4,109.9Z M241.0,179.6L241.5,178.5L241.0,178.7L241.0,179.6Z M229.9,175.4L229.6,175.3L229.6,175.4L229.9,175.4Z M240.6,178.5L240.6,178.1L240.3,178.6L240.6,178.5Z M228.6,174.2L228.6,174.1L228.2,174.2L228.6,174.2Z M462.4,108.8L462.2,108.9L462.6,109.0L462.4,108.8Z M237.3,176.5L237.0,176.5L237.0,176.7L237.3,176.5Z M237.0,176.0L237.2,176.3L237.3,176.1L237.0,176.0Z M462.0,108.4L462.2,108.8L462.2,108.5L462.0,108.4Z M399.8,157.6L399.5,157.3L399.4,157.7L399.8,157.6Z M230.4,173.1L227.8,173.0L229.6,175.0L230.4,173.1Z M240.5,176.4L238.5,176.8L239.4,179.3L240.5,176.4Z M398.8,156.5L398.5,156.6L398.8,157.0L398.8,156.5Z M460.1,107.1L460.1,107.5L460.5,107.1L460.1,107.1Z M234.6,173.0L234.5,172.8L234.5,172.9L234.6,173.0Z M456.8,109.0L456.6,109.3L456.7,109.6L456.8,109.0Z M240.2,173.8L240.5,173.1L239.5,173.3L240.2,173.8Z M235.5,171.4L235.0,171.1L235.0,171.2L235.5,171.4Z M237.5,172.7L236.7,171.2L236.1,171.3L237.5,172.7Z M397.6,153.6L397.4,153.5L397.4,153.5L397.6,153.6Z M236.7,169.8L236.6,169.6L236.6,169.8L236.7,169.8Z M228.1,166.9L228.0,166.5L227.9,166.7L228.1,166.9Z M454.0,107.5L453.8,107.6L453.8,107.6L454.0,107.5Z M236.4,169.0L236.3,168.5L236.2,168.6L236.4,169.0Z M236.8,168.9L236.5,168.7L236.6,169.0L236.8,168.9Z M393.0,153.3L392.9,153.1L392.9,153.1L393.0,153.3Z M235.6,167.8L235.3,167.9L235.3,168.0L235.6,167.8Z M453.3,106.4L453.2,106.4L453.1,106.5L453.3,106.4Z M453.0,106.5L453.0,106.3L452.7,106.4L453.0,106.5Z M234.7,166.6L234.8,166.4L234.7,166.3L234.7,166.6Z M235.7,166.7L235.0,166.9L234.8,167.4L235.7,166.7Z M236.8,166.3L236.4,166.0L236.4,166.0L236.8,166.3Z M450.1,106.5L449.5,107.2L450.1,107.4L450.1,106.5Z M396.8,147.7L396.3,148.0L395.7,148.8L396.8,147.7Z M237.0,166.1L238.1,165.3L238.1,164.9L237.0,166.1Z M400.0,142.4L400.4,141.3L400.4,140.9L400.0,142.4Z M394.6,141.6L394.7,142.0L394.8,141.5L394.6,141.6Z M438.6,108.3L438.3,108.4L439.1,108.7L438.6,108.3Z M400.5,137.7L400.2,137.5L400.3,137.7L400.5,137.7Z M396.9,138.5L396.7,138.6L396.7,138.8L396.9,138.5Z M435.8,108.6L436.5,108.6L436.5,108.0L435.8,108.6Z M397.7,137.6L397.6,137.3L397.6,137.5L397.7,137.6Z M394.7,139.5L394.2,139.2L394.4,140.8L394.7,139.5Z M392.0,140.8L391.3,141.1L391.1,142.2L392.0,140.8Z M436.3,107.3L436.3,107.7L437.1,107.2L436.3,107.3Z M393.6,138.1L393.3,138.1L393.3,138.2L393.6,138.1Z M392.5,138.7L392.8,142.9L393.8,142.4L392.5,138.7Z M390.3,139.2L390.3,138.8L390.2,138.7L390.3,139.2Z M390.1,138.2L390.4,138.8L390.5,138.5L390.1,138.2Z M434.6,105.7L434.4,106.4L435.0,105.8L434.6,105.7Z M398.0,132.9L397.8,132.6L397.5,132.4L398.0,132.9Z M392.9,134.4L392.8,134.2L392.7,134.5L392.9,134.4Z M431.1,103.9L431.0,104.3L431.5,104.5L431.1,103.9Z M388.7,135.0L388.4,135.0L388.8,135.7L388.7,135.0Z M429.8,102.6L429.6,102.9L430.2,103.2L429.8,102.6Z M392.1,128.6L391.6,128.5L391.2,128.6L392.1,128.6Z M416.2,111.7L415.6,111.3L415.6,111.4L416.2,111.7Z M388.7,128.0L388.5,128.2L389.3,128.3L388.7,128.0Z M387.5,127.5L387.2,127.3L387.4,127.5L387.5,127.5Z M410.4,111.5L410.4,111.1L410.3,111.2L410.4,111.5Z M381.8,126.4L381.6,126.6L381.7,126.5L381.8,126.4Z M381.1,125.5L381.1,125.3L381.1,125.3L381.1,125.5Z M381.4,125.2L381.3,125.1L381.3,125.1L381.4,125.2Z M414.4,96.8L414.6,97.5L415.0,97.3L414.4,96.8Z M413.9,96.3L413.8,96.0L413.8,96.3L413.9,96.3Z M401.7,103.8L401.5,103.4L401.4,103.4L401.7,103.8Z M409.8,92.2L410.4,93.3L410.5,93.7L409.8,92.2Z M407.1,93.0L406.9,93.4L407.6,93.2L407.1,93.0Z M394.3,102.9L394.4,102.8L394.3,102.9L394.3,102.9Z M344.9,126.3L344.4,126.6L345.1,126.8L344.9,126.3Z M345.6,123.3L345.2,123.5L345.4,123.5L345.6,123.3Z M406.6,88.1L406.6,88.9L407.4,88.6L406.6,88.1Z M379.6,107.3L379.6,107.6L379.8,107.6L379.6,107.3Z M406.1,88.3L405.7,88.4L405.8,88.6L406.1,88.3Z M348.5,120.7L348.0,120.9L348.3,120.9L348.5,120.7Z M386.4,102.3L386.4,102.6L387.5,102.4L386.4,102.3Z M402.3,89.4L401.6,89.4L401.6,89.5L402.3,89.4Z M368.9,110.7L366.1,113.3L367.7,115.8L368.9,110.7Z M401.1,89.7L400.4,89.4L400.8,89.8L401.1,89.7Z M397.7,89.7L397.2,89.6L397.8,89.9L397.7,89.7Z M348.1,116.3L347.7,116.2L347.9,116.4L348.1,116.3Z M347.1,116.0L347.6,116.2L347.8,115.9L347.1,116.0Z M404.2,83.6L404.4,83.9L404.8,83.9L404.2,83.6Z M377.8,101.3L378.9,102.3L379.5,102.2L377.8,101.3Z M402.7,82.1L402.5,81.7L402.2,81.9L402.7,82.1Z M401.5,82.1L401.8,82.7L402.7,82.6L401.5,82.1Z M384.0,93.5L384.1,93.9L384.3,93.9L384.0,93.5Z M377.2,97.7L377.0,97.8L377.3,98.0L377.2,97.7Z M382.7,92.7L382.4,92.3L383.0,93.6L382.7,92.7Z M397.2,79.7L397.1,80.5L397.2,81.0L397.2,79.7Z M392.1,79.6L391.9,79.5L391.9,79.7L392.1,79.6Z M347.8,104.7L348.0,104.8L348.0,104.6L347.8,104.7Z M389.7,78.5L389.3,78.9L389.3,79.0L389.7,78.5Z M359.1,97.3L358.5,97.5L358.6,97.6L359.1,97.3Z M389.5,76.7L389.2,76.9L389.4,77.1L389.5,76.7Z M355.1,97.9L355.0,97.7L354.9,97.8L355.1,97.9Z M358.1,96.5L357.9,96.5L358.0,96.6L358.1,96.5Z M358.3,94.8L357.9,94.8L358.1,95.2L358.3,94.8Z M352.3,96.7L352.3,96.6L352.2,96.7L352.3,96.7Z M304.5,105.7L304.6,104.8L304.6,104.9L304.5,105.7Z M305.5,104.4L305.0,103.7L305.0,104.0L305.5,104.4Z M389.8,66.1L389.8,66.6L390.2,65.9L389.8,66.1Z M304.3,102.7L303.8,102.7L304.1,102.9L304.3,102.7Z M303.2,101.9L303.0,102.1L303.4,102.2L303.2,101.9Z M388.8,65.7L388.1,65.6L388.2,65.8L388.8,65.7Z M301.6,100.5L301.5,100.8L301.7,100.7L301.6,100.5Z M290.9,100.2L290.7,100.3L291.1,100.3L290.9,100.2Z M292.7,100.0L292.4,100.2L292.0,100.2L292.7,100.0Z M303.7,99.9L303.5,99.6L303.4,99.8L303.7,99.9Z M322.6,96.4L322.4,96.6L322.6,96.9L322.6,96.4Z M299.4,99.3L299.7,98.8L299.1,99.2L299.4,99.3Z M293.8,98.9L293.6,98.7L293.5,98.9L293.8,98.9Z M369.8,76.8L370.5,78.3L371.4,77.7L369.8,76.8Z M348.0,89.4L346.8,87.7L346.5,87.7L348.0,89.4Z M296.1,98.4L296.4,98.0L296.4,97.9L296.1,98.4Z M361.1,81.4L360.8,80.5L360.4,80.7L361.1,81.4Z M320.0,95.7L319.8,95.4L319.7,95.5L320.0,95.7Z M369.4,75.9L368.9,75.2L368.4,75.0L369.4,75.9Z M298.1,96.9L297.8,96.6L297.4,96.8L298.1,96.9Z M298.2,96.4L298.1,96.7L298.4,96.5L298.2,96.4Z M291.7,96.3L291.6,96.2L291.4,96.2L291.7,96.3Z M360.6,78.8L360.8,79.8L361.0,79.0L360.6,78.8Z M367.8,74.8L367.0,74.9L367.3,75.1L367.8,74.8Z M291.2,96.1L290.9,95.8L290.9,95.8L291.2,96.1Z M367.2,75.3L367.4,76.1L367.7,76.4L367.2,75.3Z M376.8,66.4L377.3,66.3L377.9,66.2L376.8,66.4Z M316.1,93.5L315.3,94.1L315.4,94.5L316.1,93.5Z M290.6,94.7L290.6,94.6L290.4,94.6L290.6,94.7Z M319.5,92.0L319.3,91.2L318.9,91.7L319.5,92.0Z M338.1,86.0L338.0,86.0L338.5,86.3L338.1,86.0Z M358.6,75.0L358.8,78.5L359.3,77.3L358.6,75.0Z M249.8,83.9L249.9,84.5L250.1,84.3L249.8,83.9Z M352.9,77.8L352.8,78.3L353.0,78.0L352.9,77.8Z M337.7,84.5L337.3,85.1L337.7,85.5L337.7,84.5Z M360.9,73.4L360.4,73.7L360.9,74.7L360.9,73.4Z M249.6,83.2L249.5,83.4L249.6,83.5L249.6,83.2Z M325.2,87.3L326.4,87.5L326.1,87.1L325.2,87.3Z M375.6,61.8L375.2,61.8L375.4,62.4L375.6,61.8Z M327.0,86.6L326.7,87.8L327.7,88.0L327.0,86.6Z M244.1,80.5L243.7,80.0L243.5,80.6L244.1,80.5Z M250.1,83.0L250.5,82.6L250.3,82.6L250.1,83.0Z M374.2,61.8L374.2,62.1L374.8,62.7L374.2,61.8Z M314.6,88.8L314.5,88.4L314.3,88.5L314.6,88.8Z M355.3,74.0L353.7,75.3L353.8,75.8L355.3,74.0Z M350.7,76.8L350.6,76.7L350.6,77.0L350.7,76.8Z M348.8,77.6L348.2,78.0L348.7,78.0L348.8,77.6Z M333.8,83.3L333.8,83.0L333.7,83.1L333.8,83.3Z M334.5,83.0L334.2,83.2L334.1,83.4L334.5,83.0Z M323.8,87.4L320.6,92.0L324.2,92.7L323.8,87.4Z M323.4,85.7L323.1,85.5L323.2,85.8L323.4,85.7Z M341.9,78.6L343.1,78.9L342.7,78.3L341.9,78.6Z M270.6,85.4L270.3,85.4L270.5,85.4L270.6,85.4Z M293.5,86.9L293.3,86.8L293.1,86.8L293.5,86.9Z M316.6,85.1L316.5,84.8L316.4,85.0L316.6,85.1Z M295.9,86.8L294.7,86.6L295.1,86.8L295.9,86.8Z M286.7,85.6L286.2,85.4L286.3,85.6L286.7,85.6Z M287.3,85.3L286.9,85.3L286.9,85.4L287.3,85.3Z M286.8,85.1L286.5,85.1L286.4,85.2L286.8,85.1Z M286.1,85.2L285.8,85.0L285.4,85.0L286.1,85.2Z M363.6,60.4L364.2,61.7L364.5,60.9L363.6,60.4Z M360.5,60.1L360.3,60.2L360.5,60.5L360.5,60.1Z M360.7,59.1L360.3,58.6L360.0,58.8L360.7,59.1Z M324.4,74.4L324.1,75.0L324.4,74.9L324.4,74.4Z M437.1,188.7L446.4,146.2L466.3,114.8L452.0,106.3L443.4,110.9L417.2,98.0L409.8,112.8L402.3,102.6L379.7,109.4L388.8,128.0L400.1,135.8L399.2,151.0L403.4,167.2L396.8,164.6L388.7,152.9L354.0,152.3L343.3,137.7L353.1,98.1L358.7,93.0L324.3,73.9L330.4,90.5L328.5,94.8L305.4,105.8L289.2,94.7L240.4,78.5L240.4,78.5L222.6,115.6L219.1,126.8L231.3,135.4L239.8,160.3L239.8,160.3L240.4,181.4L240.9,187.9L255.3,203.0L255.3,203.1L255.5,203.1L255.5,203.1L255.5,203.1L255.5,202.8L255.9,202.6L256.5,203.2L256.5,203.3L285.9,205.9L306.1,205.8L336.7,202.6L358.2,196.4L378.7,197.8L378.7,197.8L387.2,189.8L393.9,192.3L399.6,198.9L399.7,199.0L400.0,198.5L400.9,198.1L401.3,199.0L401.4,199.0L417.4,197.3L419.7,201.9L414.5,213.5L414.4,213.6L414.8,216.1L414.5,216.4L414.5,216.4L416.2,218.8L418.8,214.2L426.5,207.2L426.5,207.2L426.5,206.8L426.2,206.3L426.2,206.3L426.2,206.3L424.9,203.5L432.4,198.6L434.7,193.7L434.7,193.7L435.5,190.9L436.4,189.4L437.1,189.0L437.1,188.7Z M297.8,74.2L297.7,74.0L297.6,74.0L297.8,74.2Z M298.1,73.8L298.1,73.7L297.9,73.8L298.1,73.8Z M322.1,69.4L321.9,69.0L321.8,69.1L322.1,69.4Z M291.6,70.1L282.7,78.0L284.8,88.2L298.7,96.4L315.5,86.1L291.6,70.1Z M302.2,68.3L301.8,68.1L301.6,68.6L302.2,68.3Z M307.2,69.3L304.9,70.1L306.0,71.5L307.2,69.3Z M334.1,59.1L334.5,74.2L351.2,74.6L354.3,70.7L372.7,76.0L373.6,92.3L378.0,95.4L399.8,95.7L398.7,80.6L387.0,77.9L385.0,66.9L363.9,63.1L362.4,58.1L346.5,63.5L334.1,59.1Z M317.3,63.3L315.1,65.0L315.6,65.2L317.3,63.3Z M324.6,61.3L321.0,64.9L324.4,69.0L324.6,61.3Z M280.7,62.2L275.1,80.9L280.1,79.0L280.7,62.2Z M317.1,60.3L316.8,61.2L316.9,60.9L317.1,60.3Z M319.9,59.7L319.4,59.5L319.5,60.1L319.9,59.7Z M307.0,58.3L305.4,59.3L307.0,59.6L307.0,58.3Z M317.0,54.4L316.4,56.0L316.9,54.8L317.0,54.4Z M282.4,55.9L282.9,54.9L282.6,55.0L282.4,55.9Z M308.7,54.2L307.5,54.8L307.2,55.7L308.7,54.2Z M319.5,53.0L319.5,53.0L318.4,52.3L319.5,53.0Z M287.4,54.2L284.7,56.9L285.5,57.4L287.4,54.2Z M307.7,52.7L305.9,54.2L307.8,53.6L307.7,52.7Z M324.3,47.3L324.2,47.5L324.5,47.4L324.3,47.3Z M331.1,44.7L331.1,44.4L330.9,44.6L331.1,44.7Z M312.8,49.6L312.0,58.6L315.9,57.5L312.8,49.6Z M310.2,49.8L309.3,49.9L309.2,50.3L310.2,49.8Z M323.9,47.1L322.7,45.7L322.5,46.5L323.9,47.1Z M299.4,50.5L287.7,57.3L295.8,63.3L302.8,60.5L299.4,50.5Z M292.8,50.3L291.3,50.9L293.1,51.1L292.8,50.3Z M316.2,46.7L335.8,46.3L330.8,50.6L316.2,46.7Z M290.0,47.0L281.3,54.1L285.1,52.7L290.0,47.0Z M327.2,40.1L327.0,39.5L326.6,39.6L327.2,40.1Z M314.8,42.7L314.6,44.5L317.5,43.6L314.8,42.7Z M308.4,44.4L306.6,44.7L306.9,44.9L308.4,44.4Z M297.9,43.7L293.7,44.6L294.9,47.9L297.9,43.7Z M305.5,42.7L305.7,41.9L305.4,41.9L305.5,42.7Z M321.6,36.5L321.6,37.3L321.7,37.6L321.6,36.5Z M296.8,40.0L293.8,41.8L298.0,42.4L296.8,40.0Z M334.4,28.1L333.8,27.9L333.9,28.2L334.4,28.1Z M303.8,36.2L302.9,41.0L307.7,41.9L303.8,36.2Z M307.2,31.3L308.2,33.2L308.4,32.8L307.2,31.3Z M310.0,27.2L309.8,27.6L310.4,27.7L310.0,27.2Z M311.3,23.4L309.8,28.5L321.7,32.9L311.3,23.4Z M321.5,6.6L314.7,16.3L315.0,24.6L321.0,25.7L323.9,46.8L335.4,44.4L330.9,38.5L329.0,5.4L321.5,6.6Z "/><path d="M68.0,297.4L64.4,302.1L65.0,303.2L68.0,297.4Z M64.6,292.6L64.4,292.1L63.9,292.3L64.6,292.6Z M65.5,290.0L65.8,293.1L67.6,293.4L65.5,290.0Z M63.0,287.0L63.5,288.2L65.1,289.1L63.0,287.0Z M61.0,283.1L60.1,283.8L61.3,285.0L61.0,283.1Z M51.4,274.7L51.6,274.5L52.1,274.6L51.4,274.7Z M37.4,250.7L37.3,250.7L37.4,250.7L37.4,250.7Z M450.8,308.7L450.7,308.7L450.8,308.7L450.8,308.7Z M454.1,306.6L454.0,306.6L454.1,306.7L454.1,306.6Z M454.7,306.3L454.7,306.2L454.7,306.3L454.7,306.3Z M454.5,306.3L454.3,306.2L454.3,306.3L454.5,306.3Z M454.4,306.5L454.0,306.2L454.3,306.5L454.4,306.5Z M456.7,304.4L456.7,304.5L456.8,304.5L456.7,304.4Z M457.0,304.1L457.1,303.9L457.0,304.1L457.0,304.1Z M28.8,232.1L28.8,232.0L28.8,232.0L28.8,232.1Z M454.7,302.7L454.7,302.5L454.5,302.6L454.7,302.7Z M454.3,302.5L454.5,302.6L454.4,302.5L454.3,302.5Z M458.2,301.8L457.8,302.1L457.9,302.1L458.2,301.8Z M458.4,300.1L458.5,300.0L458.4,299.6L458.4,300.1Z M458.2,298.7L458.1,298.4L458.1,298.5L458.2,298.7Z M17.7,214.3L17.6,214.3L17.6,214.4L17.7,214.3Z M451.7,300.5L451.5,300.7L451.7,300.7L451.7,300.5Z M450.6,300.8L450.5,300.9L450.7,301.0L450.6,300.8Z M451.3,300.7L451.3,300.6L451.2,300.6L451.3,300.7Z M447.5,298.9L447.3,299.0L447.7,299.0L447.5,298.9Z M446.7,298.2L446.5,297.9L446.6,298.1L446.7,298.2Z M447.6,298.5L447.1,297.7L446.8,297.7L447.6,298.5Z M446.4,297.7L446.3,297.5L446.2,297.4L446.4,297.7Z M373.5,324.3L371.5,319.8L371.7,320.7L373.5,324.3Z M443.8,295.3L443.2,295.0L443.4,295.2L443.8,295.3Z M372.1,316.0L371.4,317.9L371.4,318.4L372.1,316.0Z M455.4,290.9L453.0,288.1L452.9,288.2L455.4,290.9Z M372.6,314.7L373.3,313.4L372.8,313.9L372.6,314.7Z M375.3,311.5L373.4,312.9L373.4,313.4L375.3,311.5Z M5.7,176.5L5.7,176.5L5.7,176.5L5.7,176.5Z M375.5,311.1L376.0,310.5L375.8,310.6L375.5,311.1Z M440.9,288.2L441.0,288.3L441.0,288.2L440.9,288.2Z M440.9,288.1L440.8,288.1L440.8,288.1L440.9,288.1Z M402.7,300.3L402.4,300.4L402.2,300.6L402.7,300.3Z M403.8,300.0L403.6,300.0L403.6,300.1L403.8,300.0Z M404.4,299.7L404.2,299.7L404.1,299.9L404.4,299.7Z M438.6,286.9L438.5,286.8L438.5,286.9L438.6,286.9Z M382.1,304.3L382.1,304.4L381.7,304.9L382.1,304.3Z M409.5,295.5L409.6,295.3L409.5,295.5L409.5,295.5Z M409.9,294.7L409.9,294.8L409.9,294.8L409.9,294.7Z M428.8,288.1L429.5,287.3L428.7,288.0L428.8,288.1Z M407.5,294.7L407.2,294.7L407.4,295.0L407.5,294.7Z M430.2,286.5L430.3,286.4L430.0,286.6L430.2,286.5Z M408.0,293.7L408.3,293.6L408.2,293.5L408.0,293.7Z M407.1,292.8L407.0,292.8L407.1,292.8L407.1,292.8Z M409.3,291.6L409.1,291.7L409.1,291.7L409.3,291.6Z M411.7,290.8L411.3,290.9L411.7,290.9L411.7,290.8Z M408.6,291.7L408.5,291.8L408.6,291.8L408.6,291.7Z M411.1,291.0L410.1,291.2L411.1,291.0L411.1,291.0Z M419.8,286.8L417.1,288.3L418.6,287.5L419.8,286.8Z M442.5,271.7L442.4,270.9L442.3,271.6L442.5,271.7Z M442.6,270.4L442.4,269.8L442.4,270.2L442.6,270.4Z M264.8,293.3L265.0,293.9L265.0,294.0L264.8,293.3Z M260.5,291.6L260.7,292.0L260.8,291.9L260.5,291.6Z M265.2,290.9L265.4,291.6L265.9,291.9L265.2,290.9Z M451.7,251.7L451.5,252.1L451.5,252.1L451.7,251.7Z M258.3,287.3L257.7,287.8L257.9,287.9L258.3,287.3Z M256.9,287.0L256.8,287.2L257.1,287.2L256.9,287.0Z M259.3,287.2L260.6,287.7L260.8,287.5L259.3,287.2Z M451.7,250.1L451.6,250.3L451.6,250.6L451.7,250.1Z M452.8,247.3L452.5,247.7L452.3,248.0L452.8,247.3Z M455.9,244.9L455.7,244.8L455.4,244.8L455.9,244.9Z M455.2,244.9L454.9,244.9L454.6,245.2L455.2,244.9Z M456.0,245.0L456.5,242.9L456.1,243.8L456.0,245.0Z M456.7,242.2L457.0,241.6L456.8,241.7L456.7,242.2Z M458.6,239.6L458.2,238.3L458.5,239.4L458.6,239.6Z M452.7,230.5L452.7,230.8L452.6,231.0L452.7,230.5Z M452.8,229.0L452.8,228.8L452.8,229.3L452.8,229.0Z M452.7,228.6L452.8,228.0L452.7,228.2L452.7,228.6Z M453.0,225.9L452.9,225.3L453.0,225.5L453.0,225.9Z M452.9,216.1L452.7,215.8L452.8,216.1L452.9,216.1Z M453.0,215.0L453.0,214.2L452.9,215.0L453.0,215.0Z M450.8,209.3L450.5,210.0L450.5,210.2L450.8,209.3Z M454.1,207.2L455.2,205.7L455.2,205.7L454.1,207.2Z M450.9,208.8L450.7,207.9L450.8,208.4L450.9,208.8Z M456.1,203.2L455.8,203.1L455.8,203.4L456.1,203.2Z M456.7,202.5L456.8,202.8L456.8,202.6L456.7,202.5Z M456.0,202.7L451.2,209.5L452.3,208.8L456.0,202.7Z M460.8,198.8L460.7,198.7L460.7,198.8L460.8,198.8Z M456.6,201.4L456.7,201.2L456.5,201.7L456.6,201.4Z M463.2,196.3L463.2,196.8L462.6,197.2L463.2,196.3Z M459.9,198.2L460.1,198.1L460.0,198.0L459.9,198.2Z M458.1,199.1L458.0,198.6L458.0,198.8L458.1,199.1Z M462.7,195.4L462.6,195.0L462.5,194.8L462.7,195.4Z M458.6,198.6L458.1,198.0L458.2,198.7L458.6,198.6Z M427.3,207.2L426.8,207.3L427.2,207.6L427.3,207.2Z M457.3,183.8L457.1,183.5L457.1,183.7L457.3,183.8Z M456.9,183.6L456.9,183.3L456.8,183.2L456.9,183.6Z M434.4,197.1L434.4,196.9L434.3,197.2L434.4,197.1Z M459.9,180.3L459.8,179.9L459.7,180.1L459.9,180.3Z M459.3,180.6L459.3,180.3L459.0,180.4L459.3,180.6Z M458.9,180.2L458.7,180.2L458.7,180.5L458.9,180.2Z M460.1,179.1L460.3,179.2L460.2,179.0L460.1,179.1Z M459.4,179.3L459.2,179.8L459.5,179.5L459.4,179.3Z M458.3,179.5L458.2,179.7L458.3,180.0L458.3,179.5Z M434.2,195.2L434.1,195.3L434.0,195.6L434.2,195.2Z M459.5,178.5L459.2,178.3L459.3,178.5L459.5,178.5Z M458.2,179.4L458.1,179.1L458.0,179.4L458.2,179.4Z M460.5,177.9L460.2,178.5L460.1,178.1L460.5,177.9Z M462.0,175.6L461.8,175.4L461.7,175.5L462.0,175.6Z M462.5,174.2L462.3,174.2L462.3,174.3L462.5,174.2Z M462.4,172.1L462.1,172.2L462.4,172.2L462.4,172.1Z M462.8,172.2L462.5,171.7L462.6,172.3L462.8,172.2Z M462.3,172.0L462.2,171.4L462.1,171.8L462.3,172.0Z M396.7,209.0L396.5,208.8L396.5,209.1L396.7,209.0Z M397.0,208.4L396.6,208.1L396.6,208.3L397.0,208.4Z M392.7,208.9L392.0,211.1L392.3,211.7L392.7,208.9Z M396.9,206.5L396.7,206.3L396.6,206.4L396.9,206.5Z M401.3,202.3L400.7,202.5L401.1,202.8L401.3,202.3Z M397.5,203.9L397.3,203.9L397.5,204.0L397.5,203.9Z M251.7,218.2L251.6,218.0L251.6,218.2L251.7,218.2Z M401.5,199.5L401.1,199.2L401.0,199.2L401.5,199.5Z M249.9,216.8L249.9,216.3L249.8,216.4L249.9,216.8Z M376.6,205.7L376.9,205.1L376.6,205.4L376.6,205.7Z M377.0,204.7L376.9,204.6L376.6,204.8L377.0,204.7Z M376.4,204.9L376.4,204.7L376.2,204.9L376.4,204.9Z M375.5,204.9L375.5,204.7L375.5,204.7L375.5,204.9Z M377.3,204.1L377.2,203.7L377.2,204.2L377.3,204.1Z M255.2,213.6L255.4,213.4L255.2,213.4L255.2,213.6Z M254.7,213.2L254.7,212.7L254.6,212.7L254.7,213.2Z M386.3,198.5L383.5,200.6L384.7,201.4L386.3,198.5Z M256.5,212.2L256.4,211.7L256.1,212.4L256.5,212.2Z M256.4,211.1L256.4,210.6L256.3,210.5L256.4,211.1Z M256.0,208.5L256.0,208.2L255.9,208.2L256.0,208.5Z M382.2,195.5L380.4,197.4L380.4,198.2L382.2,195.5Z M255.7,206.1L255.6,205.6L255.4,206.1L255.7,206.1Z M256.4,205.8L256.3,205.4L256.2,205.6L256.4,205.8Z M255.9,204.8L255.2,205.1L255.4,205.1L255.9,204.8Z M255.3,203.1L255.4,203.1L255.5,203.1L255.5,203.1L255.5,203.1L255.3,203.1L255.3,203.1Z M256.5,203.3L248.9,205.8L250.3,218.4L243.0,249.4L255.8,280.6L271.1,295.7L298.9,303.1L323.6,300.4L333.5,310.2L370.3,325.2L373.7,325.0L382.3,302.6L405.1,298.5L407.3,293.7L432.8,283.9L440.9,287.4L454.8,303.6L458.2,298.1L444.7,278.7L444.8,263.6L456.5,237.0L451.7,220.7L451.2,207.5L458.1,199.5L455.8,185.8L460.9,171.3L460.9,171.3L459.7,171.5L459.6,171.1L458.8,169.9L458.8,170.0L458.5,170.2L457.5,170.5L457.1,170.1L457.1,170.1L447.4,170.7L449.3,178.3L437.1,189.0L436.4,189.4L435.5,190.9L434.7,193.7L434.8,193.8L434.6,200.6L426.4,206.1L426.2,206.3L426.2,206.3L426.5,206.8L426.5,207.2L426.7,207.2L427.2,210.3L414.5,216.4L414.5,216.4L414.8,216.1L414.4,213.6L414.4,213.6L405.7,203.3L400.1,220.0L401.2,199.0L401.3,199.0L400.9,198.1L400.0,198.5L399.7,199.0L399.7,199.1L378.2,206.2L378.7,197.8L378.7,197.8L358.2,196.4L336.7,202.6L306.1,205.8L285.9,205.9L256.5,203.3L256.5,203.3Z M99.5,87.4L99.1,87.5L99.4,87.6L99.5,87.4Z M97.5,79.8L97.3,80.3L97.1,82.1L97.5,79.8Z M97.5,77.6L97.5,78.3L97.6,78.0L97.5,77.6Z M102.2,86.8L102.5,86.3L102.2,86.4L102.2,86.8Z M107.8,94.2L107.9,94.0L107.7,94.4L107.8,94.2Z M104.3,89.1L104.0,88.0L103.0,89.8L104.3,89.1Z M105.0,91.6L105.3,91.0L104.2,90.3L105.0,91.6Z M108.8,94.8L108.6,94.7L108.8,94.9L108.8,94.8Z M100.1,81.7L100.5,81.8L100.7,81.7L100.1,81.7Z M108.5,93.7L108.0,93.4L108.1,93.7L108.5,93.7Z M97.2,75.1L96.2,74.6L96.1,74.8L97.2,75.1Z M113.7,97.6L111.0,96.5L110.2,96.5L113.7,97.6Z M94.3,62.0L93.4,62.0L93.5,62.2L94.3,62.0Z M119.8,105.1L120.0,104.8L119.9,104.7L119.8,105.1Z M123.2,107.0L123.5,106.9L123.5,106.7L123.2,107.0Z M124.0,106.7L124.2,106.3L124.0,106.3L124.0,106.7Z M95.6,57.8L94.4,57.9L95.6,59.4L95.6,57.8Z M125.0,107.1L125.3,106.8L125.3,106.7L125.0,107.1Z M136.9,111.9L137.0,111.8L137.0,111.7L136.9,111.9Z M139.3,113.4L138.9,113.0L139.1,113.5L139.3,113.4Z M140.2,114.0L139.6,113.4L139.4,113.4L140.2,114.0Z M138.3,111.6L137.5,111.2L138.6,112.2L138.3,111.6Z M139.5,112.0L139.2,111.7L138.8,112.6L139.5,112.0Z M147.0,118.6L147.0,118.5L147.0,118.3L147.0,118.6Z M146.7,117.8L146.2,117.3L146.6,118.3L146.7,117.8Z M155.1,123.1L155.3,122.7L155.2,122.7L155.1,123.1Z M227.4,163.2L227.4,163.0L227.4,163.1L227.4,163.2Z M230.1,163.2L230.1,163.7L230.2,163.7L230.1,163.2Z M156.4,122.8L156.3,122.9L156.1,123.1L156.4,122.8Z M149.0,116.9L149.6,116.3L149.5,116.2L149.0,116.9Z M234.7,164.3L234.0,164.3L234.3,164.8L234.7,164.3Z M156.5,122.2L156.0,122.4L156.4,122.5L156.5,122.2Z M235.0,164.0L235.1,163.6L234.9,163.7L235.0,164.0Z M151.4,116.7L151.0,116.3L151.2,117.1L151.4,116.7Z M230.3,161.8L230.0,161.8L229.8,162.5L230.3,161.8Z M152.5,117.2L152.2,117.2L152.4,117.5L152.5,117.2Z M156.4,121.5L156.2,121.4L156.2,121.2L156.4,121.5Z M152.0,116.9L151.8,116.5L151.8,116.8L152.0,116.9Z M155.9,120.2L155.2,120.1L154.1,121.1L155.9,120.2Z M229.0,160.6L228.7,161.1L229.2,160.9L229.0,160.6Z M149.1,112.6L149.1,112.4L149.0,112.4L149.1,112.6Z M229.3,160.1L229.3,159.9L229.1,160.1L229.3,160.1Z M155.9,118.6L155.8,118.4L155.6,118.5L155.9,118.6Z M228.6,159.8L228.9,159.5L228.8,159.3L228.6,159.8Z M228.3,159.0L227.9,159.2L228.2,159.5L228.3,159.0Z M159.3,119.1L159.3,118.8L159.2,118.9L159.3,119.1Z M229.0,157.6L229.3,158.2L229.7,158.1L229.0,157.6Z M230.0,157.6L229.7,157.7L229.9,158.1L230.0,157.6Z M228.3,157.1L228.4,156.7L228.1,156.8L228.3,157.1Z M230.1,155.9L229.1,156.2L228.8,157.0L230.1,155.9Z M166.6,122.3L166.8,122.0L166.7,122.1L166.6,122.3Z M229.9,154.7L232.0,165.1L232.6,162.0L229.9,154.7Z M164.7,119.6L164.8,119.3L164.6,119.3L164.7,119.6Z M232.8,155.1L231.8,156.0L232.5,156.0L232.8,155.1Z M234.1,156.1L233.6,156.8L234.0,157.4L234.1,156.1Z M167.4,119.8L167.1,119.6L166.6,119.5L167.4,119.8Z M173.8,124.5L173.2,124.8L173.6,124.5L173.8,124.5Z M174.7,125.2L174.1,124.9L174.1,125.5L174.7,125.2Z M140.4,92.7L140.8,93.4L140.8,93.2L140.4,92.7Z M232.7,153.0L232.1,154.5L233.1,154.5L232.7,153.0Z M229.6,151.6L227.8,155.1L228.9,154.8L229.6,151.6Z M230.6,150.7L230.6,154.1L231.4,152.4L230.6,150.7Z M225.7,148.0L224.5,149.1L225.6,148.6L225.7,148.0Z M178.0,121.7L178.0,121.4L178.0,121.7L178.0,121.7Z M226.6,147.1L226.1,153.6L227.7,150.1L226.6,147.1Z M183.1,121.7L182.8,121.7L183.0,122.1L183.1,121.7Z M182.1,121.3L182.4,121.1L182.1,120.9L182.1,121.3Z M181.5,120.8L175.4,124.7L182.6,123.7L181.5,120.8Z M225.1,143.1L224.8,142.6L224.6,143.0L225.1,143.1Z M181.6,119.7L181.5,120.1L181.8,120.6L181.6,119.7Z M226.3,142.1L226.3,141.9L226.1,141.9L226.3,142.1Z M231.0,143.7L230.6,143.1L230.2,143.5L231.0,143.7Z M227.9,142.3L227.5,141.9L227.4,142.0L227.9,142.3Z M229.7,142.7L229.0,148.6L230.9,148.3L229.7,142.7Z M167.6,104.5L167.7,104.2L167.6,104.3L167.6,104.5Z M187.1,117.7L186.9,117.7L186.9,117.8L187.1,117.7Z M186.6,117.2L186.5,117.1L186.2,117.3L186.6,117.2Z M188.5,117.5L188.4,117.3L188.3,117.4L188.5,117.5Z M189.1,117.8L188.9,117.6L188.9,117.6L189.1,117.8Z M188.3,117.1L188.1,116.9L188.0,116.9L188.3,117.1Z M202.2,123.9L202.3,123.8L202.2,123.8L202.2,123.9Z M207.6,124.2L209.0,123.7L208.6,123.7L207.6,124.2Z M199.7,118.9L200.2,118.8L200.4,118.6L199.7,118.9Z M200.3,118.1L199.8,118.2L200.4,118.3L200.3,118.1Z M189.6,111.3L189.7,111.0L189.6,110.9L189.6,111.3Z M200.0,117.9L199.6,118.0L199.3,118.2L200.0,117.9Z M201.7,118.3L202.2,118.1L201.7,118.3L201.7,118.3Z M202.9,118.2L199.6,120.0L203.2,118.7L202.9,118.2Z M200.7,117.2L200.7,116.8L200.5,116.9L200.7,117.2Z M207.6,121.0L207.9,120.6L207.6,120.6L207.6,121.0Z M162.9,85.8L159.8,86.6L160.4,87.6L162.9,85.8Z M204.6,118.4L204.4,119.0L205.1,118.6L204.6,118.4Z M202.0,116.6L200.8,118.0L201.8,117.3L202.0,116.6Z M152.2,70.3L152.4,70.1L152.5,70.1L152.2,70.3Z M202.1,115.2L202.0,115.4L202.1,115.5L202.1,115.2Z M201.5,115.3L201.7,114.7L201.4,114.8L201.5,115.3Z M205.1,116.4L205.3,116.1L205.0,116.2L205.1,116.4Z M202.4,114.1L202.0,114.8L202.5,114.4L202.4,114.1Z M198.0,110.0L198.2,109.8L198.2,109.8L198.0,110.0Z M170.0,79.6L169.9,79.4L169.9,79.5L170.0,79.6Z M176.5,78.1L176.6,78.0L176.5,78.0L176.5,78.1Z M168.1,68.3L168.2,67.9L168.3,67.7L168.1,68.3Z M170.0,67.6L170.0,67.7L170.0,67.8L170.0,67.6Z M168.3,66.2L168.3,65.2L168.3,66.0L168.3,66.2Z M168.0,64.4L167.9,64.4L168.0,64.6L168.0,64.4Z M168.6,63.8L168.6,63.7L168.6,63.8L168.6,63.8Z M168.6,63.6L168.6,63.6L168.6,63.7L168.6,63.6Z M182.6,79.5L181.9,79.2L182.1,79.6L182.6,79.5Z M181.3,59.9L181.3,59.8L181.3,59.9L181.3,59.9Z M182.8,61.8L183.1,61.8L183.0,61.8L182.8,61.8Z M184.5,62.2L184.7,62.3L185.5,62.4L184.5,62.2Z M187.4,62.8L187.6,62.8L187.3,62.8L187.4,62.8Z M187.8,62.9L188.3,62.9L187.9,62.8L187.8,62.9Z M189.0,63.1L188.6,63.0L188.6,63.0L189.0,63.1Z M189.5,63.3L189.5,63.3L189.4,63.3L189.5,63.3Z M239.9,77.9L239.8,77.5L239.5,76.9L239.9,77.9Z M206.4,53.7L207.5,53.2L207.0,53.3L206.4,53.7Z M207.9,53.2L208.4,53.0L208.2,53.0L207.9,53.2Z M208.7,52.9L209.4,52.7L209.0,52.7L208.7,52.9Z M229.4,66.5L229.5,67.1L229.7,67.2L229.4,66.5Z M239.8,160.3L231.3,135.4L219.1,126.8L222.6,115.6L240.4,78.5L240.4,78.5L220.1,58.3L221.9,55.0L197.4,53.7L197.3,66.6L181.8,62.1L189.4,77.9L169.1,80.3L164.8,86.5L175.4,109.3L155.5,117.9L199.8,117.6L230.5,136.5L234.2,159.7L239.8,160.3L239.8,160.3Z "/></g><g class="" fill="#F27E30" id="location" stroke="#F27E30" stroke-width="10px"><circle cx="249.538542478" cy="195.716663892" r="2"/><circle cx="252.101833128" cy="274.914639618" r="2"/><circle cx="364.857852246" cy="301.351018591" r="2"/></g></svg>